<svg xmlns="http://www.w3.org/2000/svg" viewBox="0 0 29.99 29.99"><defs><style>.a{fill:#ff5f6c;}.b{fill:#f02e36;}</style></defs><g transform="translate(-730.01 -603.01)"><path class="a" d="M527.86,604H502.15a2.142,2.142,0,0,1-2.14-2.14V576.15a2.142,2.142,0,0,1,2.14-2.14h25.71a2.142,2.142,0,0,1,2.14,2.14v25.71A2.142,2.142,0,0,1,527.86,604Z" transform="translate(230 29)"/><path class="b" d="M1321.93,1122.99a7.2,7.2,0,0,0-9.88-.06l-.06.06-.98.93-.98-.93a7.253,7.253,0,0,0-9.96,0,6.547,6.547,0,0,0,0,9.54L1311,1143l10.93-10.47a6.5,6.5,0,0,0,.06-9.47.423.423,0,0,1-.06-.07" transform="translate(-566 -513)"/></g></svg>