<svg xmlns="http://www.w3.org/2000/svg" viewBox="0 0 768.036 531.86"><defs><style>.a{fill:#ff5f6c;}.b{fill:#ff6b90;}.c{fill:#f02e36;}.d{fill:rgba(240,46,54,0.84);}</style></defs><g transform="translate(0.006 -2.07)"><path class="a" d="M117.7,289.84a53.9,53.9,0,0,0,28.39-8.11c4.29-2.55,6.26-6.14,6.26-11.36v-19.7a8.85,8.85,0,0,0-8.92-8.92H123a7.77,7.77,0,0,0-7.76,7.76,7.67,7.67,0,0,0,7.76,7.65h12.05v11.59c-4.51,3.25-10.31,4.87-16.8,4.87-14.37,0-24.57-10.89-24.57-25.73v-.23c0-13.79,10.32-25.26,23.3-25.26a28.38,28.38,0,0,1,17.76,5.6,8.64,8.64,0,0,0,5.44,1.85A8.8,8.8,0,0,0,149,221a8.93,8.93,0,0,0-3.71-7.19c-7.3-5.1-15.41-7.88-27.69-7.88-24.57,0-42.53,18.89-42.53,41.95v.23C75.06,272.11,92.44,289.84,117.7,289.84Z"/><path class="a" d="M169.5,280.22a8.93,8.93,0,1,0,17.85,0V262.49H201.6l17.38,22c2.09,2.67,4.75,4.64,8.81,4.64a8.3,8.3,0,0,0,8.46-8.23c0-2.78-1.16-4.64-2.9-6.84L221,259c9.85-4.06,16.23-11.94,16.23-24.69v-.23c0-7.65-2.44-14-7-18.54-5.33-5.33-13.32-8.23-23.64-8.23H178.42a8.85,8.85,0,0,0-8.92,8.93Zm17.85-33.49V223.44h17.73c8.69,0,14,3.94,14,11.59v.23c0,6.84-5,11.47-13.67,11.47Z"/><path class="a" d="M292.68,289.84c25,0,43.23-18.89,43.23-41.95v-.23c0-23.06-18-41.72-43-41.72s-43.23,18.89-43.23,41.95v.23C249.69,271.18,267.65,289.84,292.68,289.84Zm.24-16.45c-14.37,0-24.57-11.59-24.57-25.5v-.23c0-13.91,10-25.26,24.33-25.26s24.57,11.59,24.57,25.49v.23c0,13.88-9.96,25.27-24.33,25.27Z"/><path class="a" d="M367.08,282.43c1.62,4.52,5,7.3,9.27,7.3h1.86c4.28,0,7.53-2.67,9.15-7.3l16-46.47,16,46.47c1.63,4.63,4.87,7.3,9.16,7.3h1.85c4.29,0,7.65-2.78,9.27-7.3l22.72-63.74a12.57,12.57,0,0,0,.69-3.48,8.61,8.61,0,0,0-8.8-8.57,8.93,8.93,0,0,0-8.58,6.37l-16.11,49.72-16.22-49.25c-1.39-4.29-4.52-7.07-9-7.07h-1.39c-4.52,0-7.65,2.89-9,7.07l-16.22,49.25L361.52,213a9,9,0,0,0-8.69-6.37,8.87,8.87,0,0,0-9.16,8.69,11.521,11.521,0,0,0,.7,3.36Z"/><path class="a" d="M366.5,281.09c1.63,4.52,5,7.3,9.28,7.3h1.85c4.29,0,7.53-2.66,9.15-7.3l16-46.47,16,46.47c1.62,4.64,4.87,7.3,9.15,7.3h1.86c4.28,0,7.65-2.78,9.27-7.3l22.71-63.73a12.37,12.37,0,0,0,.7-3.48,8.6,8.6,0,0,0-8.81-8.57,8.93,8.93,0,0,0-8.58,6.37L429,261.39l-16.23-49.25c-1.39-4.28-4.52-7.07-9-7.07h-1.39c-4.52,0-7.65,2.9-9,7.07l-16.22,49.25-16.11-49.71a9,9,0,0,0-8.69-6.37A8.85,8.85,0,0,0,343.1,214a11.57,11.57,0,0,0,.69,3.36Z"/><path class="a" d="M495.6,280.22a8.92,8.92,0,1,0,17.84,0V223.79h17.15a8.23,8.23,0,0,0,0-16.46H478.44a8.23,8.23,0,0,0,0,16.46H495.6Z"/><path class="a" d="M551.8,280.22a8.92,8.92,0,1,0,17.84,0V255.89h32.92v24.33a8.92,8.92,0,1,0,17.84,0V215.56a8.92,8.92,0,1,0-17.84,0v23.87H569.64V215.56a8.92,8.92,0,1,0-17.84,0Z"/><path class="b" d="M217.7,397.65a7.38,7.38,0,0,0,7.4,7.51,7.89,7.89,0,0,0,7.41-5l5.11-12h32.12l4.9,11.48c1.46,3.33,4,5.52,7.72,5.52a7.6,7.6,0,0,0,7.61-7.71,7.86,7.86,0,0,0-.83-3.24l-25.45-57.46c-1.77-4-4.9-6.36-9.28-6.36h-.94c-4.38,0-7.61,2.39-9.39,6.36l-25.44,57.46a8.58,8.58,0,0,0-.94,3.44ZM243.56,374l10.12-24.09L263.8,374Z"/><path class="b" d="M312.19,399.12c1.46,4.06,4.48,6.57,8.34,6.57h1.67c3.86,0,6.78-2.4,8.24-6.57l14.39-41.83,14.39,41.83c1.46,4.17,4.38,6.57,8.24,6.57h1.67c3.86,0,6.89-2.51,8.35-6.57l20.44-57.37a11.149,11.149,0,0,0,.62-3.13,7.74,7.74,0,0,0-7.92-7.71,8,8,0,0,0-7.72,5.73l-14.5,44.75-14.6-44.33c-1.25-3.86-4.07-6.36-8.13-6.36h-1.26c-4.06,0-6.88,2.61-8.13,6.36l-14.6,44.33-14.5-44.75a8.11,8.11,0,0,0-7.82-5.73,8,8,0,0,0-8.24,7.82,10.12,10.12,0,0,0,.63,3Z"/><path class="b" d="M418.88,404.54h41a7.12,7.12,0,0,0,7.19-7.09,7.21,7.21,0,0,0-7.19-7.2H426.81V374.92h27.84a7.12,7.12,0,0,0,7.2-7.09,7.21,7.21,0,0,0-7.2-7.2H426.81V345.82h32.54a7.12,7.12,0,0,0,7.19-7.09,7.21,7.21,0,0,0-7.19-7.2H418.88a8,8,0,0,0-8,8v56.95a8,8,0,0,0,8,8.06Z"/><path class="c" d="M83.86,164.78h33.71a5.86,5.86,0,0,0,5.92-5.83,5.93,5.93,0,0,0-5.92-5.92H90.38V140.42h22.9a5.86,5.86,0,0,0,5.92-5.83,5.93,5.93,0,0,0-5.92-5.92H90.38V116.49h26.76a5.86,5.86,0,0,0,5.92-5.83,5.93,5.93,0,0,0-5.92-5.92H83.86a6.56,6.56,0,0,0-6.61,6.6v46.84a6.55,6.55,0,0,0,6.61,6.6Z"/><path class="c" d="M134.72,158.69a6.61,6.61,0,1,0,13.21,0V141.54h23.16a6,6,0,1,0,0-12H147.93V116.75h27a6,6,0,0,0,0-12h-33.6a6.56,6.56,0,0,0-6.61,6.6Z"/><path class="c" d="M191,158.69a6.61,6.61,0,1,0,13.21,0V141.54h23.16a6,6,0,1,0,0-12H204.2V116.75h27a6,6,0,0,0,0-12H197.6a6.56,6.56,0,0,0-6.61,6.6Z"/><path class="c" d="M276.43,165.81c18.52,0,32-14,32-31.05v-.17c0-17.07-13.29-30.88-31.82-30.88s-32,14-32,31.05v.17C244.6,152,257.9,165.81,276.43,165.81Zm.17-12.18c-10.64,0-18.19-8.58-18.19-18.87v-.17c0-10.29,7.38-18.7,18-18.7s18.18,8.58,18.18,18.87v.17C294.61,145.23,287.23,153.63,276.6,153.63Z"/><path class="c" d="M320.17,158.69a6.61,6.61,0,1,0,13.21,0V145.57h10.55l12.87,16.3a7.91,7.91,0,0,0,6.52,3.43,6.14,6.14,0,0,0,6.26-6.09c0-2.06-.86-3.43-2.14-5.06L358.26,143c7.29-3,12-8.84,12-18.27v-.18c0-5.66-1.8-10.38-5.15-13.72-3.95-4-9.86-6.09-17.5-6.09H326.78a6.56,6.56,0,0,0-6.61,6.6Zm13.21-24.79V116.66h13.13c6.43,0,10.38,2.92,10.38,8.58v.17c0,5.06-3.69,8.49-10.13,8.49Z"/><path class="c" d="M396.17,158.69a6.61,6.61,0,1,0,13.21,0V116.92h12.7a6.09,6.09,0,1,0,0-12.18h-38.6a6.09,6.09,0,0,0,0,12.18h12.69Z"/><path class="b" d="M528.22,174.29a4.035,4.035,0,0,0,8.07,0v-11h14.89v11a4.035,4.035,0,1,0,8.07,0V145a4.035,4.035,0,0,0-8.07,0v10.8H536.29V145a4.035,4.035,0,1,0-8.07,0Z"/><path class="b" d="M583.36,178.59c9.86,0,16.1-5.46,16.1-16.57V145a4.035,4.035,0,0,0-8.07,0v17.3c0,5.82-3,8.81-7.92,8.81s-7.92-3.09-7.92-9.07V145a4.035,4.035,0,1,0-8.07,0v17.25C567.48,173.08,573.51,178.59,583.36,178.59Z"/><path class="b" d="M607.69,174.39a3.89,3.89,0,0,0,3.93,3.93,3.94,3.94,0,0,0,4-3.93V156.15l7,10.75a3.78,3.78,0,0,0,6.71,0l7.03-10.9v18.3a4,4,0,0,0,8,0V145.14a4,4,0,0,0-4-4h-.89a3.94,3.94,0,0,0-3.62,2.05L626,159.08l-9.75-15.88a4.15,4.15,0,0,0-3.67-2.1h-.89a4,4,0,0,0-4,4Z"/><path class="b" d="M671,178.64c11.32,0,19.55-8.55,19.55-19v-.1c0-10.44-8.12-18.88-19.45-18.88s-19.55,8.55-19.55,19v.11C651.57,170.2,659.69,178.64,671,178.64Zm.1-7.45c-6.5,0-11.11-5.24-11.11-11.53v-.1c0-6.29,4.51-11.43,11-11.43s11.11,5.24,11.11,11.53v.11c.03,6.29-4.48,11.42-10.98,11.42Z"/><path class="b" d="M713.06,178.59c9.86,0,16.09-5.46,16.09-16.57V145a4.035,4.035,0,0,0-8.07,0v17.3c0,5.82-3,8.81-7.91,8.81s-7.92-3.09-7.92-9.07V145a4.035,4.035,0,1,0-8.07,0v17.25C697.18,173.08,703.2,178.59,713.06,178.59Z"/><path class="b" d="M737.38,174.29a4.04,4.04,0,0,0,8.08,0v-8h6.45l7.86,10a4.83,4.83,0,0,0,4,2.09,3.75,3.75,0,0,0,3.83-3.72,4.66,4.66,0,0,0-1.31-3.09l-5.61-6.82c4.46-1.83,7.34-5.4,7.34-11.16v-.11a11.51,11.51,0,0,0-3.15-8.39c-2.41-2.41-6-3.72-10.69-3.72H741.42a4,4,0,0,0-4,4Zm8.08-15.15V148.6h8c3.93,0,6.34,1.78,6.34,5.24V154c0,3.09-2.25,5.19-6.18,5.19Z"/><path class="a" d="M122.33,452.54a3,3,0,1,0,6,0v-5.91H133l5.8,7.33a3.54,3.54,0,0,0,2.93,1.55,2.77,2.77,0,0,0,2.82-2.74,3.45,3.45,0,0,0-1-2.28l-4.13-5a8.26,8.26,0,0,0,5.4-8.23v-.08a8.51,8.51,0,0,0-2.31-6.18c-1.78-1.78-4.45-2.74-7.88-2.74h-9.39a3,3,0,0,0-3,3Zm6-11.17v-7.76h5.91c2.9,0,4.68,1.31,4.68,3.86v.08c0,2.28-1.66,3.82-4.56,3.82Z"/><path class="a" d="M153.24,455.28h15.18a2.65,2.65,0,1,0,0-5.29H156.17v-5.68h10.32a2.65,2.65,0,1,0,0-5.29H156.17v-5.49h12.05a2.64,2.64,0,0,0,2.67-2.63,2.67,2.67,0,0,0-2.67-2.66h-15a3,3,0,0,0-3,3V452.3a3,3,0,0,0,3.02,2.98Z"/><path class="a" d="M185.76,455.66c5.83,0,9.93-3,9.93-8.38v-.07c0-4.72-3.09-6.69-8.58-8.12-4.67-1.19-5.83-1.77-5.83-3.55v-.08c0-1.31,1.2-2.35,3.48-2.35a11.21,11.21,0,0,1,5.67,1.81,2.89,2.89,0,0,0,1.51.43,2.74,2.74,0,0,0,2.78-2.75,2.69,2.69,0,0,0-1.31-2.35,15.65,15.65,0,0,0-8.58-2.4c-5.52,0-9.46,3.25-9.46,8.15v.08c0,5.37,3.52,6.88,9,8.27,4.52,1.16,5.45,1.93,5.45,3.43v.08c0,1.59-1.47,2.55-3.9,2.55A11.46,11.46,0,0,1,179,448a2.83,2.83,0,0,0-1.7-.54,2.73,2.73,0,0,0-2.78,2.74,2.79,2.79,0,0,0,1.12,2.24,17.48,17.48,0,0,0,10.12,3.22Z"/><path class="a" d="M201.13,452.54a3,3,0,1,0,6,0V431a3,3,0,0,0-6,0Z"/><path class="a" d="M213.84,452.3a3,3,0,0,0,3,3h14a2.71,2.71,0,0,0,0-5.41h-11V431a3,3,0,0,0-5.95,0Z"/><path class="a" d="M238,452.54a3,3,0,0,0,5.95,0V431a3,3,0,0,0-5.95,0Z"/><path class="a" d="M248.88,452.73a2.74,2.74,0,0,0,2.74,2.78,2.92,2.92,0,0,0,2.74-1.85l1.9-4.45h11.89l1.82,4.25a3,3,0,0,0,2.86,2.05,2.82,2.82,0,0,0,2.82-2.86,3,3,0,0,0-.31-1.2l-9.43-21.28a3.61,3.61,0,0,0-3.43-2.36h-.35a3.69,3.69,0,0,0-3.48,2.36l-9.42,21.28a3.08,3.08,0,0,0-.35,1.28Zm9.58-8.77L262.2,435l3.8,9Z"/><path class="a" d="M280.32,452.57a2.94,2.94,0,1,0,5.87,0V438.09l11.9,15.6a3.67,3.67,0,0,0,3.09,1.74h.19a3,3,0,0,0,3-3V430.94a2.94,2.94,0,0,0-5.87,0v13.95L287,429.82a3.69,3.69,0,0,0-3.09-1.74h-.61a3,3,0,0,0-3,3Z"/><path class="a" d="M323.51,455.74a13.55,13.55,0,0,0,9.61-3.4,2.75,2.75,0,0,0,1-2.12,2.78,2.78,0,0,0-4.56-2.09,8.69,8.69,0,0,1-5.87,2.13c-4.64,0-7.84-3.87-7.84-8.5v-.08c0-4.63,3.28-8.42,7.84-8.42a8.93,8.93,0,0,1,5.52,1.93,3.15,3.15,0,0,0,1.78.58,2.9,2.9,0,0,0,2.94-2.9,3,3,0,0,0-1.16-2.35,14.34,14.34,0,0,0-9-2.74,13.74,13.74,0,0,0-14.1,14v.08a13.65,13.65,0,0,0,13.84,13.88Z"/><path class="a" d="M342.32,455.28H357.5a2.65,2.65,0,1,0,0-5.29H345.25v-5.68h10.32a2.65,2.65,0,1,0,0-5.29H345.25v-5.49h12.06A2.64,2.64,0,0,0,360,430.9a2.67,2.67,0,0,0-2.66-2.66h-15a3,3,0,0,0-3,3V452.3a3,3,0,0,0,2.98,2.98Z"/><path class="b" d="M208.07,91.83a10.64,10.64,0,0,0,11-10.64v-.06a10.94,10.94,0,0,0-21.87.06v.06a10.54,10.54,0,0,0,10.87,10.58Zm.06-4.18a6.25,6.25,0,0,1-6.24-6.46v-.06a6.16,6.16,0,0,1,6.18-6.41,6.25,6.25,0,0,1,6.23,6.47v.06a6.15,6.15,0,0,1-6.17,6.4Z"/><path class="b" d="M223.06,89.21a2.25,2.25,0,0,0,2.26,2.27h7.52c4.65,0,7.71-1.89,7.71-5.65v-.06c0-2.76-1.47-4.14-3.86-5a4.79,4.79,0,0,0,2.71-4.44v-.06a4.73,4.73,0,0,0-1.41-3.5,7.46,7.46,0,0,0-5.38-1.82h-7.29a2.25,2.25,0,0,0-2.26,2.26Zm4.41-10V74.87h4.46c1.91,0,3,.76,3,2.12V77c0,1.53-1.26,2.18-3.26,2.18Zm0,8.29V83h5.23c2.32,0,3.35.85,3.35,2.24h0c0,1.53-1.21,2.24-3.21,2.24Z"/><path class="b" d="M251.6,91.77c4.44,0,7.55-2.29,7.55-6.38v-.06c0-3.58-2.35-5.08-6.52-6.17-3.56-.91-4.44-1.35-4.44-2.7V76.4c0-1,.91-1.8,2.64-1.8a8.5,8.5,0,0,1,4.32,1.4,2.26,2.26,0,0,0,1.15.32,2.08,2.08,0,0,0,2.12-2.09,2.05,2.05,0,0,0-1-1.79,11.94,11.94,0,0,0-6.53-1.82c-4.2,0-7.2,2.47-7.2,6.2v.06c0,4.08,2.68,5.23,6.82,6.29,3.44.88,4.14,1.47,4.14,2.61v.06c0,1.21-1.11,1.94-3,1.94a8.68,8.68,0,0,1-5.27-1.85,2.12,2.12,0,0,0-1.29-.41A2.08,2.08,0,0,0,243,87.6a2.11,2.11,0,0,0,.86,1.7,13.23,13.23,0,0,0,7.74,2.47Z"/><path class="b" d="M267.44,89.39a2.27,2.27,0,0,0,4.53,0V75.07h4.35a2.09,2.09,0,0,0,0-4.17H263.09a2.09,2.09,0,1,0,0,4.17h4.35Z"/><path class="b" d="M278.08,89.54a2.08,2.08,0,0,0,2.09,2.11,2.21,2.21,0,0,0,2.08-1.41l1.44-3.38h9.06l1.38,3.23a2.3,2.3,0,0,0,2.17,1.56,2.1,2.1,0,0,0,1.91-3.08L291,72.37a2.75,2.75,0,0,0-2.61-1.79h-.27a2.79,2.79,0,0,0-2.64,1.79l-7.18,16.2A2.46,2.46,0,0,0,278.08,89.54Zm7.29-6.68,2.85-6.79,2.85,6.79Z"/><path class="b" d="M310.91,91.83a10.33,10.33,0,0,0,7.32-2.59,2.093,2.093,0,1,0-2.7-3.2,6.61,6.61,0,0,1-4.47,1.61c-3.53,0-6-2.93-6-6.46v-.06a6.1,6.1,0,0,1,6-6.41,6.77,6.77,0,0,1,4.2,1.47,2.35,2.35,0,0,0,1.35.44,2.21,2.21,0,0,0,2.24-2.2,2.24,2.24,0,0,0-.88-1.79,10.89,10.89,0,0,0-6.88-2.09,10.46,10.46,0,0,0-10.73,10.64v.06a10.38,10.38,0,0,0,10.55,10.58Z"/><path class="b" d="M323,89.21a2.25,2.25,0,0,0,2.27,2.27h10.64a2.06,2.06,0,0,0,0-4.12h-8.38V73A2.27,2.27,0,1,0,323,73Z"/><path class="b" d="M343.42,91.48H355a2,2,0,0,0,0-4h-9.32V83.13h7.85a2,2,0,0,0,0-4h-7.85v-4.2h9.17a2,2,0,0,0,0-4h-11.4a2.25,2.25,0,0,0-2.26,2.26v16a2.25,2.25,0,0,0,2.23,2.29Z"/><path class="b" d="M368.17,91.77c4.44,0,7.55-2.29,7.55-6.38v-.06c0-3.58-2.35-5.08-6.52-6.17-3.56-.91-4.44-1.35-4.44-2.7V76.4c0-1,.91-1.8,2.64-1.8a8.5,8.5,0,0,1,4.32,1.4,2.26,2.26,0,0,0,1.15.32,2.08,2.08,0,0,0,2.13-2.1,2.05,2.05,0,0,0-1-1.79,11.92,11.92,0,0,0-6.53-1.82c-4.2,0-7.2,2.47-7.2,6.2v.06c0,4.08,2.68,5.23,6.82,6.29,3.44.88,4.14,1.47,4.14,2.61v.06c0,1.21-1.11,1.94-3,1.94A8.68,8.68,0,0,1,363,85.92a2.12,2.12,0,0,0-1.29-.41,2.1,2.1,0,0,0-1.26,3.79,13.23,13.23,0,0,0,7.72,2.47Z"/><path class="c" d="M64.11,207a1.91,1.91,0,0,0,0-3.82h-3.8v-3.06L65,196.43a2.3,2.3,0,0,0,1-1.89,1.78,1.78,0,0,0-1.76-1.81,2.24,2.24,0,0,0-1.47.62L59.56,196a5.29,5.29,0,0,0-5.29-3.48h-.05a5.46,5.46,0,0,0-4,1.49,6.92,6.92,0,0,0-1.76,5.06v6A1.89,1.89,0,0,0,50.4,207Zm-7.18-3.82h-5v-3.8c0-1.87.84-3,2.48-3h0c1.47,0,2.46,1.07,2.46,2.93Z"/><path class="c" d="M64.11,188.9a1.91,1.91,0,1,0,0-3.82H50.25a1.91,1.91,0,0,0,0,3.82Z"/><path class="c" d="M66.12,174.55c0-3.75-1.94-6.38-5.39-6.38h0c-3,0-4.29,2-5.21,5.51-.77,3-1.15,3.75-2.29,3.75h0c-.84,0-1.51-.77-1.51-2.23a7.22,7.22,0,0,1,1.16-3.65,1.8,1.8,0,0,0,.28-1,1.77,1.77,0,0,0-3.28-1,10.16,10.16,0,0,0-1.54,5.52c0,3.55,2.09,6.08,5.24,6.08h.05c3.45,0,4.42-2.26,5.31-5.76.75-2.91,1.24-3.5,2.21-3.5h.05c1,0,1.64.94,1.64,2.51a7.33,7.33,0,0,1-1.56,4.44,1.81,1.81,0,0,0-.35,1.09,1.77,1.77,0,0,0,3.2,1.07A11.22,11.22,0,0,0,66.12,174.55Z"/><path class="c" d="M64.11,164.84a1.91,1.91,0,0,0,0-3.82H60.63l-2-2.19,6.5-5a1.94,1.94,0,0,0,.92-1.62,1.85,1.85,0,0,0-1.86-1.94,2,2,0,0,0-1.34.53l-6.71,5.34-4.57-4.9a1.9,1.9,0,0,0-1.44-.69,1.72,1.72,0,0,0-1.76,1.76,2.18,2.18,0,0,0,.74,1.62l7,7.05H50.25a1.91,1.91,0,0,0,0,3.82Z"/><path class="c" d="M60,147.58v-4.32a1.82,1.82,0,0,0-3.63,0v4.32a1.82,1.82,0,1,0,3.63,0Z"/><path class="c" d="M64.11,136.46a1.92,1.92,0,0,0,0-3.83H52V129a1.76,1.76,0,1,0-3.52,0v11.17a1.76,1.76,0,0,0,3.52,0V136.5Z"/><path class="c" d="M64.23,127.47A1.76,1.76,0,0,0,66,125.71a1.89,1.89,0,0,0-1.19-1.77L62,122.73v-7.65l2.73-1.17A1.94,1.94,0,0,0,66,112.07a1.82,1.82,0,0,0-1.84-1.81,2,2,0,0,0-.77.2l-13.68,6.06a2.33,2.33,0,0,0-1.51,2.21V119a2.37,2.37,0,0,0,1.51,2.24l13.68,6.06A2.14,2.14,0,0,0,64.23,127.47Zm-5.63-6.16-5.74-2.41,5.74-2.41Z"/><path class="c" d="M64.11,107.26a1.92,1.92,0,0,0,0-3.83H60.63l-2-2.18,6.5-5A1.92,1.92,0,0,0,66,94.67a1.85,1.85,0,0,0-1.86-1.94,2,2,0,0,0-1.34.52l-6.71,5.34L51.54,93.7A1.91,1.91,0,0,0,50.1,93a1.73,1.73,0,0,0-1.76,1.77,2.15,2.15,0,0,0,.74,1.61l7,7.05H50.25a1.92,1.92,0,0,0,0,3.83Z"/><path class="c" d="M64.11,89.4a1.91,1.91,0,1,0,0-3.82H50.25a1.91,1.91,0,0,0,0,3.82Z"/><path class="c" d="M64.13,81.23a1.89,1.89,0,1,0,0-3.77H54.82l10-7.65a2.37,2.37,0,0,0,1.12-2V67.7a1.89,1.89,0,0,0-1.91-1.91H50.23a1.89,1.89,0,1,0,0,3.77h9l-9.68,7.38a2.36,2.36,0,0,0-1.12,2v.4a1.89,1.89,0,0,0,1.91,1.91Z"/><path class="c" d="M66.17,53.25a11.58,11.58,0,0,0-1.74-6.09A2.59,2.59,0,0,0,62,45.82H57.78a1.91,1.91,0,0,0-1.92,1.91v4.38a1.67,1.67,0,0,0,1.67,1.66,1.65,1.65,0,0,0,1.64-1.66V49.52h2.48a6.14,6.14,0,0,1,1,3.6,5.21,5.21,0,0,1-5.51,5.27h0a5.22,5.22,0,0,1-5.41-5,6,6,0,0,1,1.19-3.8,1.87,1.87,0,0,0,.4-1.17,1.89,1.89,0,0,0-3.43-1.09,9.63,9.63,0,0,0-1.69,5.93,8.93,8.93,0,0,0,9,9.12h0C62.37,62.39,66.17,58.66,66.17,53.25Z"/><path class="c" d="M496.42,465a10.69,10.69,0,0,0-2.67-7.55,2.165,2.165,0,1,0-3.31,2.79,6.82,6.82,0,0,1,1.67,4.61c0,3.64-3,6.16-6.68,6.16h-.06c-3.64,0-6.62-2.58-6.62-6.16a7,7,0,0,1,1.52-4.34,2.47,2.47,0,0,0,.45-1.4,2.27,2.27,0,0,0-2.27-2.3,2.31,2.31,0,0,0-1.85.91,11.21,11.21,0,0,0-2.16,7.1,10.8,10.8,0,0,0,11,11.08h.06A10.73,10.73,0,0,0,496.42,465Z"/><path class="c" d="M493.9,452.53a2.34,2.34,0,0,0,0-4.68h-4.65v-3.73l5.77-4.55a2.8,2.8,0,0,0,1.21-2.31,2.17,2.17,0,0,0-2.15-2.21,2.7,2.7,0,0,0-1.79.76l-4,3.24a6.48,6.48,0,0,0-6.46-4.25h-.06a6.68,6.68,0,0,0-4.86,1.82,8.48,8.48,0,0,0-2.15,6.2v7.37a2.32,2.32,0,0,0,2.33,2.34Zm-8.77-4.68H479v-4.64c0-2.28,1-3.67,3-3.67h.06c1.79,0,3,1.3,3,3.58Z"/><path class="c" d="M493.9,430.37a2.34,2.34,0,0,0,0-4.67H477a2.34,2.34,0,1,0,0,4.67Z"/><path class="c" d="M493.9,415.44a2.34,2.34,0,0,0,0-4.67H479.12v-4.5a2.16,2.16,0,0,0-4.31,0v13.66a2.16,2.16,0,1,0,4.31,0v-4.49Z"/><path class="c" d="M493.9,400.51a2.34,2.34,0,0,0,0-4.68H477a2.34,2.34,0,1,0,0,4.68Z"/><path class="c" d="M496.42,380.57a10.72,10.72,0,0,0-2.67-7.56,2.165,2.165,0,1,0-3.31,2.79,6.84,6.84,0,0,1,1.67,4.61c0,3.65-3,6.17-6.68,6.17h-.06c-3.64,0-6.62-2.58-6.62-6.17a7,7,0,0,1,1.52-4.34,2.43,2.43,0,0,0,.45-1.39,2.28,2.28,0,0,0-2.27-2.31,2.34,2.34,0,0,0-1.85.91,11.23,11.23,0,0,0-2.16,7.1,10.8,10.8,0,0,0,11,11.08h.06a10.72,10.72,0,0,0,10.92-10.89Z"/><path class="c" d="M493.9,367.91a2.34,2.34,0,0,0,0-4.67H477a2.34,2.34,0,1,0,0,4.67Z"/><path class="c" d="M496.36,350.37c0-4.59-2.37-7.8-6.59-7.8h-.06c-3.7,0-5.25,2.42-6.38,6.73-.94,3.68-1.39,4.59-2.79,4.59h-.06c-1,0-1.85-.94-1.85-2.73a8.88,8.88,0,0,1,1.43-4.47,2.23,2.23,0,0,0,.33-1.18,2.16,2.16,0,0,0-4-1.15,12.33,12.33,0,0,0-1.88,6.73c0,4.35,2.55,7.44,6.41,7.44H481c4.22,0,5.4-2.76,6.49-7,.91-3.55,1.52-4.28,2.7-4.28h.06c1.25,0,2,1.15,2,3.07a9,9,0,0,1-1.91,5.43,2.19,2.19,0,0,0-.43,1.33,2.15,2.15,0,0,0,2.16,2.19,2.22,2.22,0,0,0,1.76-.88,13.72,13.72,0,0,0,2.53-8.02Z"/><path class="c" d="M494,338.5a2.29,2.29,0,0,0,0-4.58H483.4l6.22-4a2.19,2.19,0,0,0,0-3.89l-6.32-4.09h10.6a2.33,2.33,0,1,0,0-4.65H477a2.33,2.33,0,0,0-2.34,2.34v.52a2.29,2.29,0,0,0,1.19,2.09l9.23,5.68-9.2,5.64a2.41,2.41,0,0,0-1.22,2.13v.51a2.32,2.32,0,0,0,2.34,2.3Z"/><path class="a" d="M507.08,111.47a2.76,2.76,0,1,0,5.52,0v-5h4.2c5.63,0,10.15-3,10.15-8.83v-.07c0-5.13-3.62-8.68-9.61-8.68h-7.5a2.74,2.74,0,0,0-2.76,2.77Zm5.52-9.9V93.9h4.27c2.76,0,4.49,1.33,4.49,3.8v.07c0,2.15-1.62,3.8-4.38,3.8Z"/><path class="a" d="M531,111.47a2.76,2.76,0,1,0,5.52,0V106H541l5.38,6.81a3.32,3.32,0,0,0,2.73,1.44,2.57,2.57,0,0,0,2.62-2.55,3.22,3.22,0,0,0-.9-2.12L547,104.91a7.67,7.67,0,0,0,5-7.64V97.2a7.88,7.88,0,0,0-2.16-5.74c-1.65-1.65-4.12-2.55-7.31-2.55H533.8a2.74,2.74,0,0,0-2.8,2.77Zm5.52-10.36V93.9h5.49c2.69,0,4.34,1.22,4.34,3.59v.07c0,2.11-1.54,3.55-4.23,3.55Z"/><path class="a" d="M559.73,114h14.1a2.45,2.45,0,0,0,2.47-2.44,2.48,2.48,0,0,0-2.47-2.47H562.46v-5.28H572a2.44,2.44,0,0,0,2.47-2.43A2.48,2.48,0,0,0,572,98.92h-9.58V93.83h11.19a2.46,2.46,0,0,0,2.48-2.44,2.49,2.49,0,0,0-2.48-2.48H559.73A2.74,2.74,0,0,0,557,91.68v19.58a2.74,2.74,0,0,0,2.73,2.74Z"/><path class="a" d="M589.93,114.38c5.42,0,9.22-2.8,9.22-7.78v-.08c0-4.37-2.87-6.2-8-7.53-4.34-1.11-5.42-1.65-5.42-3.3v-.07c0-1.22,1.12-2.19,3.23-2.19a10.42,10.42,0,0,1,5.27,1.69,2.68,2.68,0,0,0,1.4.39A2.55,2.55,0,0,0,597,90.78a14.56,14.56,0,0,0-8-2.23c-5.13,0-8.78,3-8.78,7.57v.07c0,5,3.26,6.39,8.32,7.68,4.19,1.08,5,1.79,5,3.19v.07c0,1.47-1.36,2.37-3.62,2.37a10.58,10.58,0,0,1-6.42-2.26,2.67,2.67,0,0,0-1.58-.5,2.54,2.54,0,0,0-2.58,2.55,2.58,2.58,0,0,0,1,2.08,16.19,16.19,0,0,0,9.59,3.01Z"/><path class="a" d="M606.72,114h14.1a2.45,2.45,0,0,0,2.47-2.44,2.48,2.48,0,0,0-2.47-2.47H609.45v-5.28H619a2.44,2.44,0,0,0,2.48-2.43A2.48,2.48,0,0,0,619,98.92h-9.57V93.83h11.19a2.45,2.45,0,0,0,2.47-2.44,2.48,2.48,0,0,0-2.47-2.48h-13.9A2.74,2.74,0,0,0,604,91.68v19.58a2.74,2.74,0,0,0,2.72,2.74Z"/><path class="a" d="M628,111.51a2.73,2.73,0,1,0,5.45,0V98.06l11,14.49a3.41,3.41,0,0,0,2.87,1.61h.18a2.74,2.74,0,0,0,2.76-2.76v-20a2.73,2.73,0,0,0-5.45,0v13l-10.65-14a3.46,3.46,0,0,0-2.87-1.61h-.58A2.74,2.74,0,0,0,628,91.53Z"/><path class="a" d="M668.09,114.45a12.58,12.58,0,0,0,8.93-3.16,2.554,2.554,0,1,0-3.3-3.9,8.08,8.08,0,0,1-5.45,2c-4.3,0-7.28-3.59-7.28-7.89v-.07c0-4.31,3-7.82,7.28-7.82A8.249,8.249,0,0,1,673.4,95.4a2.9,2.9,0,0,0,1.651.541,2.7,2.7,0,0,0,2.72-2.69A2.77,2.77,0,0,0,676.7,91a13.31,13.31,0,0,0-8.39-2.55,12.77,12.77,0,0,0-13.1,13v.07a12.67,12.67,0,0,0,12.88,12.93Z"/><path class="a" d="M685.56,114h14.09a2.45,2.45,0,0,0,2.48-2.44,2.48,2.48,0,0,0-2.48-2.47H688.28v-5.28h9.58a2.45,2.45,0,0,0,2.48-2.43,2.49,2.49,0,0,0-2.48-2.48h-9.58V93.83h11.19A2.45,2.45,0,0,0,702,91.39a2.49,2.49,0,0,0-2.48-2.48H685.56a2.74,2.74,0,0,0-2.76,2.77v19.58a2.74,2.74,0,0,0,2.76,2.74Z"/><path class="c" d="M681.7,381.38a2.38,2.38,0,1,0,0-4.76h-6.18v-8.33a2.16,2.16,0,1,0-4.32,0v8.33h-4.59V366.9a2.16,2.16,0,0,0-4.32,0V379a2.35,2.35,0,0,0,2.37,2.38Z"/><path class="c" d="M683.89,358.76V346.63a2.11,2.11,0,0,0-2.1-2.13,2.14,2.14,0,0,0-2.13,2.13v9.78h-4.54v-8.24A2.11,2.11,0,0,0,673,346a2.14,2.14,0,0,0-2.13,2.13v8.24h-4.38v-9.63a2.11,2.11,0,1,0-4.22,0v12a2.35,2.35,0,0,0,2.37,2.37h16.85a2.36,2.36,0,0,0,2.4-2.35Z"/><path class="c" d="M683.89,338.08V326a2.1,2.1,0,0,0-2.1-2.12,2.13,2.13,0,0,0-2.13,2.12v9.79h-4.54V327.5a2.1,2.1,0,0,0-2.1-2.13,2.13,2.13,0,0,0-2.13,2.13v8.24h-4.38v-9.63a2.11,2.11,0,1,0-4.22,0v12a2.35,2.35,0,0,0,2.37,2.38h16.85a2.36,2.36,0,0,0,2.38-2.41Z"/><path class="c" d="M681.51,319.78a2.36,2.36,0,0,0,2.38-2.37v-6.05c0-6.79-4.73-11.48-10.8-11.48H673c-6.07,0-10.73,4.69-10.73,11.48v6.05a2.35,2.35,0,0,0,2.37,2.37ZM679.6,315h-13v-3.67a6.21,6.21,0,0,1,6.52-6.51h.06a6.16,6.16,0,0,1,6.45,6.51Z"/><path class="c" d="M681.51,295.65a2.36,2.36,0,0,0,2.38-2.37v-7.9c0-4.88-2-8.09-5.93-8.09h-.06c-2.9,0-4.35,1.54-5.31,4a5,5,0,0,0-4.66-2.84h-.06A5,5,0,0,0,664.2,280a7.75,7.75,0,0,0-1.91,5.64v7.66a2.35,2.35,0,0,0,2.37,2.37ZM671,291h-4.57v-4.69c0-2,.8-3.11,2.22-3.11h.06c1.61,0,2.29,1.32,2.29,3.42Zm8.7,0H675v-5.49c0-2.44.89-3.52,2.34-3.52h.07c1.6,0,2.34,1.27,2.34,3.37Z"/><path class="c" d="M681.85,274.85a2.18,2.18,0,0,0,2.22-2.19,2.32,2.32,0,0,0-1.48-2.19L679,269v-9.51l3.4-1.45a2.42,2.42,0,0,0,1.63-2.28,2.22,2.22,0,0,0-3.24-2l-17,7.52A2.9,2.9,0,0,0,662,264v.28a3,3,0,0,0,1.88,2.78l17,7.53a2.581,2.581,0,0,0,.97.26Zm-7-7.65-7.12-3,7.12-3Z"/><path class="c" d="M684.26,240.38a10.84,10.84,0,0,0-2.72-7.68,2.2,2.2,0,1,0-3.36,2.84,6.92,6.92,0,0,1,1.69,4.69c0,3.7-3.08,6.26-6.78,6.26H673c-3.7,0-6.72-2.62-6.72-6.26a7.06,7.06,0,0,1,1.54-4.41,2.46,2.46,0,0,0,.46-1.42,2.32,2.32,0,0,0-2.31-2.35,2.36,2.36,0,0,0-1.88.93,11.42,11.42,0,0,0-2.19,7.22,11,11,0,0,0,11.17,11.26h.06a10.91,10.91,0,0,0,11.13-11.08Z"/><path class="c" d="M681.7,227.73a2.38,2.38,0,0,0,0-4.75h-4.32l-2.54-2.72,8.09-6.17a2.39,2.39,0,0,0,1.14-2,2.3,2.3,0,0,0-2.31-2.41,2.54,2.54,0,0,0-1.67.65L671.76,217l-5.68-6.08a2.39,2.39,0,0,0-1.79-.86,2.14,2.14,0,0,0-2.19,2.19,2.69,2.69,0,0,0,.93,2l8.7,8.76h-7.25a2.38,2.38,0,1,0,0,4.75Z"/><path class="c" d="M62,323.55H76.23a2.48,2.48,0,0,0,2.5-2.47,2.51,2.51,0,0,0-2.5-2.5H64.75v-5.32h9.67a2.47,2.47,0,0,0,2.5-2.46,2.5,2.5,0,0,0-2.5-2.5H64.75v-5.15h11.3a2.47,2.47,0,0,0,2.5-2.46,2.51,2.51,0,0,0-2.5-2.5H62A2.77,2.77,0,0,0,59.21,301v19.78A2.77,2.77,0,0,0,62,323.55Z"/><path class="c" d="M83.48,321.05a2.68,2.68,0,0,0,2.71,2.71A2.72,2.72,0,0,0,89,321.05V308.44l4.81,7.43a2.61,2.61,0,0,0,4.64,0l4.89-7.54V321a2.77,2.77,0,0,0,5.54,0V300.84a2.77,2.77,0,0,0-2.79-2.79h-.62a2.71,2.71,0,0,0-2.49,1.41l-6.78,11-6.73-11a2.86,2.86,0,0,0-2.54-1.45h-.62a2.76,2.76,0,0,0-2.78,2.79Z"/><path class="c" d="M114.91,321a2.79,2.79,0,1,0,5.58,0v-5h4.24c5.68,0,10.25-3,10.25-8.91V307c0-5.18-3.66-8.77-9.71-8.77H117.7a2.77,2.77,0,0,0-2.79,2.79Zm5.58-10v-7.75h4.31c2.79,0,4.53,1.34,4.53,3.84v.07c0,2.17-1.63,3.84-4.42,3.84Z"/><path class="c" d="M135.56,321.15a2.57,2.57,0,0,0,2.57,2.61A2.73,2.73,0,0,0,140.7,322l1.78-4.16h11.15l1.7,4a2.85,2.85,0,0,0,2.68,1.92,2.64,2.64,0,0,0,2.65-2.68,2.74,2.74,0,0,0-.29-1.12l-8.84-20a3.41,3.41,0,0,0-3.22-2.21H148a3.46,3.46,0,0,0-3.26,2.21l-8.84,20a3,3,0,0,0-.34,1.19Zm9-8.22,3.51-8.36,3.52,8.36Z"/><path class="c" d="M168.23,321a2.79,2.79,0,1,0,5.57,0V303.34h5.36a2.58,2.58,0,1,0,0-5.15H162.87a2.58,2.58,0,1,0,0,5.15h5.36Z"/><path class="c" d="M185.79,321a2.79,2.79,0,1,0,5.58,0v-7.6h10.29V321a2.79,2.79,0,1,0,5.57,0V300.76a2.79,2.79,0,0,0-5.57,0v7.46H191.37v-7.46a2.79,2.79,0,0,0-5.58,0Z"/><path class="c" d="M220,321a2.79,2.79,0,1,0,5.57,0v-7.31l8.19-11.05a3.47,3.47,0,0,0,.72-1.95,2.58,2.58,0,0,0-2.71-2.72A3.2,3.2,0,0,0,229,299.6l-6.27,8.95-6.16-8.87a3.18,3.18,0,0,0-2.75-1.7,2.72,2.72,0,0,0-2.79,2.68,3.32,3.32,0,0,0,.69,2L220,313.77Z"/><path class="a" d="M728.1,533.93a2.76,2.76,0,0,0,0-5.51h-5v-4.18c0-5.61-3-10.12-8.79-10.12h-.08c-5.11,0-8.65,3.61-8.65,9.58v7.47a2.74,2.74,0,0,0,2.76,2.76Zm-9.87-5.51h-7.65v-4.25c0-2.75,1.32-4.47,3.79-4.47h.07c2.15,0,3.79,1.61,3.79,4.36Z"/><path class="a" d="M730.64,507.29v-14a2.45,2.45,0,0,0-2.43-2.47,2.48,2.48,0,0,0-2.47,2.47v11.33h-5.26V495a2.43,2.43,0,0,0-2.43-2.46,2.46,2.46,0,0,0-2.46,2.46v9.55h-5.08V493.42a2.44,2.44,0,0,0-2.43-2.46,2.47,2.47,0,0,0-2.47,2.46v13.87a2.74,2.74,0,0,0,2.76,2.76h19.51a2.74,2.74,0,0,0,2.76-2.76Z"/><path class="a" d="M728.1,486.1a2.76,2.76,0,0,0,0-5.51h-5.47v-4.4l6.79-5.36a3.28,3.28,0,0,0,1.43-2.71,2.56,2.56,0,0,0-2.54-2.61,3.19,3.19,0,0,0-2.11.89l-4.64,3.82a7.65,7.65,0,0,0-7.62-5h-.07a7.86,7.86,0,0,0-5.72,2.14c-1.64,1.65-2.54,4.12-2.54,7.3v8.68a2.74,2.74,0,0,0,2.76,2.76Zm-10.33-5.51h-7.19v-5.47c0-2.68,1.22-4.32,3.58-4.32h.07c2.11,0,3.54,1.53,3.54,4.21Z"/><path class="a" d="M731,451.35c0-5.4-2.78-9.19-7.75-9.19h-.08c-4.36,0-6.18,2.86-7.5,7.94-1.11,4.32-1.65,5.4-3.29,5.4h-.07c-1.22,0-2.18-1.11-2.18-3.22A10.36,10.36,0,0,1,711.8,447a2.619,2.619,0,0,0,.39-1.39,2.55,2.55,0,0,0-4.72-1.36,14.53,14.53,0,0,0-2.21,7.94c0,5.11,3,8.76,7.54,8.76h.07c5,0,6.36-3.26,7.65-8.3,1.07-4.18,1.79-5,3.18-5h.07c1.47,0,2.36,1.36,2.36,3.61a10.57,10.57,0,0,1-2.25,6.4,2.66,2.66,0,0,0-.5,1.57,2.55,2.55,0,0,0,4.61,1.54A16.16,16.16,0,0,0,731,451.35Z"/><path class="a" d="M728.1,437.12a2.75,2.75,0,1,0,0-5.5h-20a2.75,2.75,0,0,0,0,5.5Z"/><path class="a" d="M731,416.46c0-5.4-2.78-9.19-7.75-9.19h-.08c-4.36,0-6.18,2.86-7.5,7.94-1.11,4.32-1.65,5.4-3.29,5.4h-.07c-1.22,0-2.18-1.11-2.18-3.22a10.36,10.36,0,0,1,1.68-5.26,2.619,2.619,0,0,0,.39-1.39,2.55,2.55,0,0,0-4.72-1.36,14.53,14.53,0,0,0-2.21,7.94c0,5.11,3,8.76,7.54,8.76h.07c5,0,6.36-3.26,7.65-8.3,1.07-4.18,1.79-5,3.18-5h.07c1.47,0,2.36,1.36,2.36,3.61a10.571,10.571,0,0,1-2.25,6.4,2.66,2.66,0,0,0-.5,1.57A2.55,2.55,0,0,0,728,425.9,16.161,16.161,0,0,0,731,416.46Z"/><path class="a" d="M728.1,397.19a2.75,2.75,0,1,0,0-5.5H710.69V386.4a2.54,2.54,0,1,0-5.08,0v16.08a2.54,2.54,0,0,0,5.08,0v-5.29Z"/><path class="a" d="M728.28,384.25a2.53,2.53,0,0,0,2.57-2.54,2.71,2.71,0,0,0-1.72-2.54L725,377.42v-11l3.94-1.68a2.8,2.8,0,0,0,1.89-2.64,2.61,2.61,0,0,0-2.64-2.61,2.64,2.64,0,0,0-1.11.28l-19.7,8.73a3.34,3.34,0,0,0-2.18,3.18V372a3.41,3.41,0,0,0,2.18,3.22l19.7,8.72a2.86,2.86,0,0,0,1.2.31Zm-8.12-8.87-8.26-3.46,8.26-3.47Z"/><path class="a" d="M728.13,355.15a2.72,2.72,0,1,0,0-5.43h-13.4l14.44-11a3.4,3.4,0,0,0,1.61-2.86v-.18a2.73,2.73,0,0,0-2.75-2.75H708.11a2.72,2.72,0,0,0,0,5.43H721L707.08,349a3.39,3.39,0,0,0-1.61,2.86v.57a2.73,2.73,0,0,0,2.75,2.75Z"/><path class="a" d="M731.07,315.19a12.58,12.58,0,0,0-3.15-8.91,2.551,2.551,0,0,0-3.9,3.29,8.06,8.06,0,0,1,2,5.44c0,4.29-3.58,7.25-7.87,7.25h-.07c-4.29,0-7.79-3-7.79-7.25a8.219,8.219,0,0,1,1.789-5.119,2.871,2.871,0,0,0,.531-1.641,2.69,2.69,0,0,0-2.68-2.72,2.74,2.74,0,0,0-2.18,1.08,13.22,13.22,0,0,0-2.54,8.36,12.72,12.72,0,0,0,12.94,13h.08a12.63,12.63,0,0,0,12.84-12.78Z"/><path class="a" d="M730.64,297.78v-14a2.45,2.45,0,0,0-2.43-2.47,2.48,2.48,0,0,0-2.47,2.47v11.33h-5.26v-9.55a2.445,2.445,0,1,0-4.89,0v9.55h-5.08v-11.2a2.44,2.44,0,0,0-2.43-2.47,2.48,2.48,0,0,0-2.47,2.47v13.87a2.74,2.74,0,0,0,2.76,2.75h19.51a2.74,2.74,0,0,0,2.76-2.75Z"/><path class="b" d="M226.43,194a2.09,2.09,0,0,0,1.95,1.54h.39A2,2,0,0,0,230.7,194l3.36-9.77,3.37,9.77a2,2,0,0,0,1.92,1.54h.39a2.09,2.09,0,0,0,1.95-1.54l4.78-13.4a2.691,2.691,0,0,0,.14-.73,1.81,1.81,0,0,0-1.85-1.8,1.86,1.86,0,0,0-1.8,1.34l-3.39,10.45-3.41-10.36a1.94,1.94,0,0,0-1.9-1.48H234a2,2,0,0,0-1.9,1.48l-3.41,10.36-3.39-10.45a1.89,1.89,0,0,0-1.82-1.34,1.86,1.86,0,0,0-1.93,1.82,2.26,2.26,0,0,0,.15.71Z"/><path class="b" d="M257.29,195.54a8.82,8.82,0,0,0,9.09-8.82v-.05a9.07,9.07,0,0,0-18.13.05v.05a8.73,8.73,0,0,0,9.04,8.77Zm0-3.46a5.18,5.18,0,0,1-5.17-5.36v-.05a5.11,5.11,0,0,1,5.12-5.31,5.18,5.18,0,0,1,5.16,5.36v.05a5.1,5.1,0,0,1-5.06,5.31Z"/><path class="b" d="M269.72,193.55a1.85,1.85,0,0,0,3.7,0v-9.14l7.51,9.84a2.31,2.31,0,0,0,1.95,1.1H283a1.87,1.87,0,0,0,1.88-1.88V179.9a1.86,1.86,0,0,0-3.71,0v8.8l-7.24-9.51a2.32,2.32,0,0,0-1.95-1.1h-.39a1.86,1.86,0,0,0-1.87,1.88Z"/><path class="b" d="M289,193.37a1.87,1.87,0,0,0,1.88,1.88h4.77c5.36,0,9.07-3.73,9.07-8.53v-.05c0-4.8-3.71-8.48-9.07-8.48h-4.77a1.87,1.87,0,0,0-1.88,1.88Zm3.75-1.51V181.58h2.9a4.9,4.9,0,0,1,5.14,5.14v.05a4.86,4.86,0,0,1-5.14,5.09Z"/><path class="b" d="M309.9,195.25h9.58a1.66,1.66,0,0,0,1.68-1.66,1.68,1.68,0,0,0-1.68-1.68h-7.72v-3.58h6.5a1.66,1.66,0,0,0,1.68-1.66,1.68,1.68,0,0,0-1.68-1.68h-6.5v-3.46h7.6a1.66,1.66,0,0,0,1.68-1.66,1.68,1.68,0,0,0-1.68-1.68H309.9a1.86,1.86,0,0,0-1.87,1.88v13.3a1.86,1.86,0,0,0,1.87,1.88Z"/><path class="b" d="M324.36,193.52a1.88,1.88,0,1,0,3.75,0v-3.73h3l3.65,4.63a2.25,2.25,0,0,0,1.85,1,1.74,1.74,0,0,0,1.78-1.73,2.16,2.16,0,0,0-.61-1.44l-2.6-3.17a5.2,5.2,0,0,0,3.41-5.19v-.05a5.35,5.35,0,0,0-1.46-3.9,6.82,6.82,0,0,0-5-1.73h-5.92a1.86,1.86,0,0,0-1.87,1.88Zm3.75-7v-4.9h3.73c1.83,0,3,.83,3,2.44h0c0,1.44-1.05,2.42-2.88,2.42Z"/><path class="b" d="M342,193.57a1.81,1.81,0,0,0,1.82,1.83,1.84,1.84,0,0,0,1.86-1.83v-8.48l3.24,5a1.75,1.75,0,0,0,3.12,0l3.29-5.06v8.5a1.87,1.87,0,1,0,3.73,0V180a1.87,1.87,0,0,0-1.88-1.88h-.42a1.85,1.85,0,0,0-1.68.95l-4.55,7.41L346,179.07a1.93,1.93,0,0,0-1.7-1h-.42A1.86,1.86,0,0,0,342,180Z"/><path class="b" d="M365,195.25h9.57a1.67,1.67,0,0,0,1.69-1.66,1.69,1.69,0,0,0-1.69-1.68h-7.72v-3.58h6.51a1.67,1.67,0,0,0,1.68-1.66,1.69,1.69,0,0,0-1.68-1.68h-6.51v-3.46h7.6a1.66,1.66,0,0,0,1.68-1.66,1.68,1.68,0,0,0-1.68-1.68H365a1.87,1.87,0,0,0-1.88,1.88v13.3a1.87,1.87,0,0,0,1.88,1.88Z"/><path class="b" d="M379.46,193.55a1.85,1.85,0,1,0,3.7,0v-9.14l7.51,9.84a2.32,2.32,0,0,0,1.95,1.1h.12a1.87,1.87,0,0,0,1.88-1.88V179.9a1.86,1.86,0,0,0-3.71,0v8.8l-7.24-9.51a2.31,2.31,0,0,0-1.95-1.1h-.39a1.86,1.86,0,0,0-1.87,1.88Z"/><path class="b" d="M402.68,193.52a1.88,1.88,0,0,0,3.76,0V181.65H410a1.73,1.73,0,1,0,0-3.46H399a1.73,1.73,0,1,0,0,3.46h3.6Z"/><path class="d" d="M524.48,430a12.36,12.36,0,0,0,8.76-3.1,2.51,2.51,0,1,0-3.24-3.83,7.89,7.89,0,0,1-5.34,1.94c-4.22,0-7.14-3.52-7.14-7.74v-.07c0-4.22,3-7.66,7.14-7.66a8.08,8.08,0,0,1,5,1.76,2.87,2.87,0,0,0,1.61.52A2.64,2.64,0,0,0,534,409.2a2.73,2.73,0,0,0-1.06-2.15,13,13,0,0,0-8.22-2.49,12.51,12.51,0,0,0-12.84,12.72v.07A12.42,12.42,0,0,0,524.48,430Z"/><path class="d" d="M538.9,426.88a2.68,2.68,0,0,0,2.7,2.7h12.73a2.46,2.46,0,1,0,0-4.92h-10V407.47a2.71,2.71,0,0,0-5.41,0Z"/><path class="d" d="M559,427.26a2.5,2.5,0,0,0,2.49,2.54,2.67,2.67,0,0,0,2.5-1.69l1.72-4h10.83l1.65,3.86a2.76,2.76,0,0,0,2.6,1.87,2.57,2.57,0,0,0,2.57-2.61,2.749,2.749,0,0,0-.28-1.09l-8.58-19.36a3.3,3.3,0,0,0-3.13-2.15H571a3.35,3.35,0,0,0-3.16,2.15l-8.58,19.36a3,3,0,0,0-.26,1.12Zm8.72-8,3.41-8.12,3.41,8.12Z"/><path class="d" d="M587.58,427.09a2.71,2.71,0,1,0,5.41,0v-5.38h4.33l5.27,6.68a3.23,3.23,0,0,0,2.67,1.41,2.53,2.53,0,0,0,2.57-2.5,3.13,3.13,0,0,0-.88-2.07l-3.76-4.57a7.51,7.51,0,0,0,4.92-7.49v-.07a7.76,7.76,0,0,0-2.11-5.63c-1.62-1.61-4-2.49-7.17-2.49h-8.54a2.69,2.69,0,0,0-2.71,2.71ZM593,416.93v-7.07h5.38c2.64,0,4.26,1.2,4.26,3.52v.07c0,2.07-1.52,3.48-4.15,3.48Z"/><path class="d" d="M613.24,427.09a2.71,2.71,0,1,0,5.42,0V407.47a2.71,2.71,0,0,0-5.42,0Z"/><path class="d" d="M630.54,427.09a2.71,2.71,0,1,0,5.41,0V410h5.2a2.5,2.5,0,0,0,0-5H625.33a2.5,2.5,0,0,0,0,5h5.21Z"/><path class="d" d="M654,427.09a2.71,2.71,0,1,0,5.41,0V420l8-10.72a3.39,3.39,0,0,0,.7-1.9,2.51,2.51,0,0,0-2.64-2.64,3.12,3.12,0,0,0-2.6,1.62L656.76,415l-6-8.61a3.11,3.11,0,0,0-2.67-1.65,2.64,2.64,0,0,0-2.7,2.6,3.25,3.25,0,0,0,.66,1.93L654,420.09Z"/><path class="c" d="M281.84,324.61c5,0,8.51-2.58,8.51-7.18v-.07c0-4-2.65-5.73-7.35-6.95-4-1-5-1.53-5-3.05v-.06c0-1.13,1-2,3-2a9.68,9.68,0,0,1,4.87,1.55,2.46,2.46,0,0,0,1.29.37,2.35,2.35,0,0,0,2.38-2.35,2.32,2.32,0,0,0-1.12-2,13.43,13.43,0,0,0-7.35-2.06c-4.74,0-8.11,2.78-8.11,7v.07c0,4.6,3,5.89,7.68,7.08,3.87,1,4.67,1.66,4.67,2.95v.06c0,1.36-1.26,2.19-3.35,2.19A9.76,9.76,0,0,1,276,318a2.5,2.5,0,0,0-1.46-.46,2.35,2.35,0,0,0-2.39,2.35,2.4,2.4,0,0,0,1,1.92A15,15,0,0,0,281.84,324.61Z"/><path class="c" d="M304.46,324.64c6.22,0,10.16-3.44,10.16-10.46V303.46a2.55,2.55,0,1,0-5.1,0v10.92c0,3.68-1.89,5.56-5,5.56s-5-1.95-5-5.72V303.46a2.55,2.55,0,1,0-5.1,0v10.89C294.42,321.17,298.23,324.64,304.46,324.64Z"/><path class="c" d="M319.82,321.93a2.55,2.55,0,0,0,5.1,0v-4.6h3.87c5.2,0,9.37-2.78,9.37-8.15v-.06c0-4.74-3.34-8-8.87-8h-6.92a2.53,2.53,0,0,0-2.55,2.55Zm5.1-9.14v-7.08h3.94c2.55,0,4.13,1.22,4.13,3.51v.06c0,2-1.49,3.51-4,3.51Z"/><path class="c" d="M341.93,321.93a2.55,2.55,0,1,0,5.1,0v-4.6h3.88c5.19,0,9.37-2.78,9.37-8.15v-.06c0-4.74-3.35-8-8.88-8h-6.92a2.54,2.54,0,0,0-2.55,2.55Zm5.1-9.14v-7.08H351c2.55,0,4.14,1.22,4.14,3.51v.06c0,2-1.49,3.51-4,3.51Z"/><path class="c" d="M375.31,324.68a12,12,0,0,0,12.35-12v-.06a12.33,12.33,0,0,0-24.64.06v.07a11.88,11.88,0,0,0,12.29,11.93Zm.06-4.7a7,7,0,0,1-7-7.29v-.06a6.93,6.93,0,0,1,7-7.22,7,7,0,0,1,7,7.28v.07a6.94,6.94,0,0,1-7,7.24Z"/><path class="c" d="M392.19,321.93a2.55,2.55,0,0,0,5.1,0v-5.07h4.07l5,6.29a3,3,0,0,0,2.51,1.33,2.37,2.37,0,0,0,2.42-2.35,3,3,0,0,0-.83-2l-3.54-4.3a7.07,7.07,0,0,0,4.64-7.05v-.07a7.27,7.27,0,0,0-2-5.29,9.21,9.21,0,0,0-6.75-2.36h-8.05a2.54,2.54,0,0,0-2.55,2.55Zm5.1-9.57v-6.65h5.07c2.48,0,4,1.12,4,3.31v.06c0,2-1.42,3.28-3.91,3.28Z"/><path class="c" d="M421.53,321.93a2.55,2.55,0,1,0,5.09,0V305.81h4.9a2.36,2.36,0,0,0,0-4.71H416.63a2.36,2.36,0,1,0,0,4.71h4.9Z"/><path class="b" d="M532.13,363.35a10.72,10.72,0,0,0,7.56-2.67,2.24,2.24,0,0,0,.79-1.67,2.19,2.19,0,0,0-2.19-2.16,2.14,2.14,0,0,0-1.39.52,6.84,6.84,0,0,1-4.62,1.67c-3.64,0-6.16-3-6.16-6.68v-.06c0-3.64,2.58-6.62,6.16-6.62a7,7,0,0,1,4.34,1.52,2.5,2.5,0,0,0,1.4.45,2.28,2.28,0,0,0,2.31-2.27,2.34,2.34,0,0,0-.91-1.85,11.24,11.24,0,0,0-7.11-2.16,10.8,10.8,0,0,0-11.07,11v.06a10.72,10.72,0,0,0,10.89,10.92Z"/><path class="b" d="M544.58,360.83a2.34,2.34,0,0,0,4.67,0v-4.65H553l4.56,5.77a2.77,2.77,0,0,0,2.3,1.21,2.17,2.17,0,0,0,2.22-2.15,2.75,2.75,0,0,0-.76-1.79l-3.25-4a6.48,6.48,0,0,0,4.25-6.46v-.06a6.68,6.68,0,0,0-1.82-4.86,8.45,8.45,0,0,0-6.19-2.15h-7.38a2.31,2.31,0,0,0-2.33,2.33Zm4.67-8.77V346h4.64c2.28,0,3.68,1,3.68,3v.06c0,1.79-1.31,3-3.59,3Z"/><path class="b" d="M568.86,363h11.92a2.07,2.07,0,0,0,2.1-2.06,2.1,2.1,0,0,0-2.1-2.1h-9.62v-4.46h8.11a2.07,2.07,0,0,0,2.09-2.06,2.1,2.1,0,0,0-2.09-2.1h-8.11v-4.31h9.47a2.07,2.07,0,0,0,2.1-2.06,2.1,2.1,0,0,0-2.1-2.09H568.86a2.32,2.32,0,0,0-2.34,2.33v16.58a2.32,2.32,0,0,0,2.34,2.33Z"/><path class="b" d="M585.4,361a2.15,2.15,0,0,0,2.15,2.18,2.3,2.3,0,0,0,2.16-1.45l1.49-3.49h9.34l1.43,3.34a2.37,2.37,0,0,0,2.25,1.6,2.21,2.21,0,0,0,2.21-2.24,2.26,2.26,0,0,0-.24-.94l-7.41-16.73a2.84,2.84,0,0,0-2.7-1.85h-.27a2.88,2.88,0,0,0-2.73,1.85L585.67,360a2.488,2.488,0,0,0-.27,1Zm7.53-6.89,2.94-7,2.94,7Z"/><path class="b" d="M612.78,360.83a2.34,2.34,0,0,0,4.67,0V346.05h4.49a2.16,2.16,0,1,0,0-4.31H608.28a2.16,2.16,0,0,0,0,4.31h4.5Z"/><path class="b" d="M629.83,363h11.93a2.07,2.07,0,0,0,2.09-2.06,2.1,2.1,0,0,0-2.09-2.1h-9.62v-4.46h8.1a2.07,2.07,0,0,0,2.1-2.06,2.11,2.11,0,0,0-2.1-2.1h-8.1v-4.31h9.47a2.07,2.07,0,0,0,2.09-2.06,2.1,2.1,0,0,0-2.09-2.09H629.83a2.31,2.31,0,0,0-2.33,2.33v16.58a2.31,2.31,0,0,0,2.33,2.33Z"/><path class="a" d="M480.18,192.58a3.35,3.35,0,0,0,0-6.69H456a3.35,3.35,0,1,0,0,6.69Z"/><path class="a" d="M480.26,178.29a3.22,3.22,0,0,0,3.26-3.26,3.26,3.26,0,0,0-3.26-3.3H465.15l8.9-5.77a3.12,3.12,0,0,0,0-5.56l-9-5.86h15.16a3.33,3.33,0,1,0,0-6.65H456a3.32,3.32,0,0,0-3.34,3.35V152a3.26,3.26,0,0,0,1.69,3l13.2,8.12L454.4,171.2a3.44,3.44,0,0,0-1.74,3v.8a3.32,3.32,0,0,0,3.34,3.34Z"/><path class="a" d="M480.39,142.68a3.07,3.07,0,0,0,3.13-3.08,3.28,3.28,0,0,0-2.08-3.08l-5-2.13V121l4.78-2a3.4,3.4,0,0,0,2.3-3.21,3.17,3.17,0,0,0-3.21-3.17,3.23,3.23,0,0,0-1.35.35L455,123.53a4.08,4.08,0,0,0-2.65,3.87v.39A4.14,4.14,0,0,0,455,131.7l24,10.59a3.529,3.529,0,0,0,1.39.39Zm-9.85-10.77-10-4.21,10-4.21Z"/><path class="a" d="M483.78,93.79a20.21,20.21,0,0,0-3-10.64,4.51,4.51,0,0,0-4.25-2.35H469.1a3.32,3.32,0,0,0-3.34,3.35v7.64a2.91,2.91,0,0,0,2.91,2.91,2.87,2.87,0,0,0,2.87-2.91V87.27h4.34a10.74,10.74,0,0,1,1.82,6.3c0,5.38-4.08,9.21-9.64,9.21H468c-5.16,0-9.46-3.87-9.46-8.73a10.68,10.68,0,0,1,2.08-6.65,3.21,3.21,0,0,0,.7-2,3.3,3.3,0,0,0-3.3-3.3,3.36,3.36,0,0,0-2.7,1.39,16.872,16.872,0,0,0-3,10.38,15.6,15.6,0,0,0,15.72,15.94h.09C477.14,109.77,483.78,103.25,483.78,93.79Z"/><path class="a" d="M480.18,74.07a3.35,3.35,0,0,0,0-6.69H456a3.35,3.35,0,1,0,0,6.69Z"/><path class="a" d="M480.22,59.78a3.3,3.3,0,0,0,0-6.6H463.94l17.54-13.37a4.14,4.14,0,0,0,1.95-3.47v-.22a3.32,3.32,0,0,0-3.34-3.35H455.9a3.3,3.3,0,0,0,0,6.6h15.68l-16.94,12.9a4.15,4.15,0,0,0-1.95,3.48v.69A3.31,3.31,0,0,0,456,59.78Z"/><path class="a" d="M483.26,22.14V5.07a2.975,2.975,0,1,0-5.95,0V18.83h-6.38V7.24a3,3,0,1,0-5.95,0V18.83h-6.17V5.29a2.975,2.975,0,1,0-5.95,0V22.14a3.32,3.32,0,0,0,3.35,3.34h23.71a3.32,3.32,0,0,0,3.34-3.34Z"/><path class="a" d="M55.17,359.16a1.56,1.56,0,0,0,1.57,1.59,1.68,1.68,0,0,0,1.57-1.06l1.08-2.55h6.82l1,2.44a1.74,1.74,0,0,0,1.64,1.17,1.6,1.6,0,0,0,1.44-2.32l-5.4-12.2a2.08,2.08,0,0,0-2-1.35h-.2a2.1,2.1,0,0,0-2,1.35l-5.4,12.2a1.63,1.63,0,0,0-.12.73Zm5.49-5L62.8,349l2.2,5.13Z"/><path class="a" d="M75.22,359.47A1.89,1.89,0,0,0,77,360.86h.35a1.84,1.84,0,0,0,1.75-1.39l3.06-8.88,3,8.88A1.84,1.84,0,0,0,87,360.86h.35a1.89,1.89,0,0,0,1.77-1.39l4.34-12.18a2.23,2.23,0,0,0,.14-.66A1.65,1.65,0,0,0,91.86,345a1.69,1.69,0,0,0-1.63,1.22l-3.08,9.49-3.1-9.4A1.77,1.77,0,0,0,82.32,345h-.26a1.8,1.8,0,0,0-1.73,1.35l-3.1,9.4-3.07-9.49A1.73,1.73,0,0,0,72.5,345a1.69,1.69,0,0,0-1.75,1.66,2.08,2.08,0,0,0,.13.64Z"/><path class="a" d="M93.77,359.16a1.56,1.56,0,0,0,1.57,1.59,1.68,1.68,0,0,0,1.57-1.06L98,357.14h6.82l1,2.44a1.74,1.74,0,0,0,1.64,1.17,1.62,1.62,0,0,0,1.62-1.64,1.64,1.64,0,0,0-.18-.68l-5.4-12.2a2.08,2.08,0,0,0-2-1.35h-.2a2.1,2.1,0,0,0-2,1.35L94,358.43a1.78,1.78,0,0,0-.23.73Zm5.49-5L101.4,349l2.15,5.11Z"/><path class="a" d="M111.78,359.05a1.71,1.71,0,0,0,3.41,0v-3.39h2.72l3.32,4.2a2.05,2.05,0,0,0,1.69.89,1.58,1.58,0,0,0,1.61-1.57,2,2,0,0,0-.55-1.31L121.61,355a4.72,4.72,0,0,0,3.1-4.71h0a4.91,4.91,0,0,0-1.33-3.55,6.2,6.2,0,0,0-4.51-1.57h-5.38a1.7,1.7,0,0,0-1.71,1.71Zm3.41-6.4V348.2h3.39c1.66,0,2.68.75,2.68,2.21h0c0,1.3-1,2.19-2.61,2.19Z"/><path class="a" d="M129.49,360.62h8.7a1.52,1.52,0,0,0,1.53-1.51,1.54,1.54,0,0,0-1.53-1.53h-7v-3.25h5.91a1.51,1.51,0,0,0,1.53-1.5,1.53,1.53,0,0,0-1.53-1.53h-5.91v-3.14h6.91a1.52,1.52,0,0,0,1.53-1.51,1.54,1.54,0,0,0-1.53-1.53h-8.59a1.69,1.69,0,0,0-1.7,1.71v12.08a1.69,1.69,0,0,0,1.68,1.71Z"/><path class="a" d="M142.62,359.07a1.68,1.68,0,1,0,3.36,0v-8.3l6.82,8.94a2.1,2.1,0,0,0,1.77,1h.11a1.69,1.69,0,0,0,1.7-1.71V346.67a1.68,1.68,0,0,0-3.36,0v8L146.44,346a2.1,2.1,0,0,0-1.77-1h-.35a1.69,1.69,0,0,0-1.7,1.71Z"/><path class="a" d="M161.81,360.62h8.69a1.52,1.52,0,0,0,1.53-1.51,1.54,1.54,0,0,0-1.53-1.53h-7v-3.25h5.91a1.5,1.5,0,0,0,1.52-1.5,1.52,1.52,0,0,0-1.52-1.53H163.5v-3.14h6.9a1.52,1.52,0,0,0,1.53-1.51,1.54,1.54,0,0,0-1.53-1.53h-8.58a1.7,1.7,0,0,0-1.71,1.71v12.08a1.7,1.7,0,0,0,1.7,1.71Z"/><path class="a" d="M180.44,360.84c3.34,0,5.69-1.73,5.69-4.8V356c0-2.7-1.77-3.83-4.91-4.65-2.68-.68-3.35-1-3.35-2v-.05c0-.75.69-1.35,2-1.35a6.479,6.479,0,0,1,3.25,1,1.6,1.6,0,0,0,.86.25,1.58,1.58,0,0,0,.84-2.93,9,9,0,0,0-4.91-1.37c-3.16,0-5.42,1.86-5.42,4.67v.05c0,3.07,2,3.94,5.13,4.73,2.59.67,3.12,1.11,3.12,2v.05c0,.9-.84,1.46-2.23,1.46a6.47,6.47,0,0,1-4-1.4,1.7,1.7,0,0,0-1-.31,1.59,1.59,0,0,0-.95,2.86,10,10,0,0,0,5.88,1.83Z"/><path class="a" d="M194.39,360.84c3.34,0,5.68-1.73,5.68-4.8V356c0-2.7-1.77-3.83-4.91-4.65-2.68-.68-3.34-1-3.34-2v-.05c0-.75.68-1.35,2-1.35a6.45,6.45,0,0,1,3.25,1,1.64,1.64,0,0,0,.87.25,1.58,1.58,0,0,0,.84-2.93,9.05,9.05,0,0,0-4.92-1.37c-3.16,0-5.42,1.86-5.42,4.67v.05c0,3.07,2,3.94,5.14,4.73,2.59.67,3.12,1.11,3.12,2v.05c0,.9-.84,1.46-2.24,1.46a6.5,6.5,0,0,1-4-1.4,1.66,1.66,0,0,0-1-.31,1.58,1.58,0,0,0-1.6,1.58,1.61,1.61,0,0,0,.64,1.28,10,10,0,0,0,5.89,1.83Z"/><path class="a" d="M101.38,57.69a21,21,0,0,0,11-3.15,4.67,4.67,0,0,0,2.43-4.41V42.48A3.44,3.44,0,0,0,111.37,39h-7.92a3,3,0,0,0,0,6h4.68v4.5a11.05,11.05,0,0,1-6.52,1.89c-5.58,0-9.54-4.23-9.54-10V41.3c0-5.35,4-9.81,9-9.81A11,11,0,0,1,108,33.66a3.44,3.44,0,0,0,5.54-2.7,3.49,3.49,0,0,0-1.44-2.79c-2.84-2-6-3.05-10.75-3.05A16.17,16.17,0,0,0,84.82,41.4v.09C84.82,50.81,91.57,57.69,101.38,57.69Z"/><path class="a" d="M136.79,57.69c9.72,0,16.78-7.33,16.78-16.29v-.09c0-9-7-16.19-16.69-16.19S120.1,32.45,120.1,41.4v.09C120.1,50.45,127.07,57.69,136.79,57.69Zm.09-6.39a9.57,9.57,0,0,1-9.54-9.9v-.09c0-5.4,3.87-9.81,9.45-9.81a9.57,9.57,0,0,1,9.54,9.9v.09c0,5.4-3.87,9.81-9.45,9.81Z"/><path class="a" d="M156.45,54.18a3.19,3.19,0,0,0,3.2,3.24,3.39,3.39,0,0,0,3.19-2.16l2.2-5.17H178.9L181,55a3.54,3.54,0,0,0,3.33,2.38,3.23,3.23,0,0,0,2.92-4.72l-11-24.8a4.22,4.22,0,0,0-4-2.74h-.41a4.3,4.3,0,0,0-4,2.74l-11,24.8A3.59,3.59,0,0,0,156.45,54.18ZM167.61,44,172,33.57,176.34,44Z"/><path class="a" d="M193.07,53.69a3.44,3.44,0,0,0,3.47,3.46h16.29a3.15,3.15,0,0,0,0-6.3H200v-22a3.47,3.47,0,0,0-6.93,0Z"/><path class="a" d="M232.13,57.6c6.79,0,11.56-3.51,11.56-9.76v-.09c0-5.49-3.6-7.79-10-9.45-5.44-1.4-6.79-2.07-6.79-4.14v-.09c0-1.53,1.39-2.75,4.05-2.75a13.08,13.08,0,0,1,6.61,2.12,3.37,3.37,0,0,0,1.76.49A3.21,3.21,0,0,0,241,28a18.39,18.39,0,0,0-10-2.78c-6.44,0-11,3.77-11,9.49v.09c0,6.25,4.09,8,10.43,9.63,5.27,1.35,6.35,2.25,6.35,4v.09c0,1.85-1.71,3-4.55,3a13.29,13.29,0,0,1-8-2.83,3.3,3.3,0,0,0-2-.63A3.18,3.18,0,0,0,219,51.21a3.23,3.23,0,0,0,1.31,2.61,20.3,20.3,0,0,0,11.82,3.78Z"/><path class="b" d="M33.58,390.63a4.03,4.03,0,1,0,0-8.06H23.1V368.42a3.67,3.67,0,1,0-7.33,0v14.15H8V366.06a3.64,3.64,0,0,0-3.7-3.66,3.64,3.64,0,0,0-3.67,3.66V386.6a4,4,0,0,0,4,4Z"/><path class="b" d="M37.93,338.45c0-11.31-8.54-19.54-19-19.54h-.11C8.43,318.91,0,327,0,338.35s8.54,19.54,19,19.54h.1C29.5,357.89,37.93,349.77,37.93,338.45Zm-7.44-.1c0,6.5-5.24,11.11-11.52,11.11h-.11c-6.29,0-11.42-4.51-11.42-11s5.24-11.1,11.53-11.1h.1C25.36,327.35,30.49,331.85,30.49,338.35Z"/><path class="b" d="M37.93,294.55c0-5.87-1.73-9.74-4.61-13a3.74,3.74,0,1,0-5.71,4.82,11.76,11.76,0,0,1,2.88,8c0,6.29-5.24,10.63-11.52,10.63h-.11c-6.29,0-11.42-4.45-11.42-10.63a12,12,0,0,1,2.62-7.49,4.22,4.22,0,0,0,.78-2.41,3.93,3.93,0,0,0-3.92-4A4,4,0,0,0,3.72,282C1.47,285,0,288.74,0,294.24a18.64,18.64,0,0,0,19,19.12h.1a18.51,18.51,0,0,0,18.83-18.81Z"/><path class="b" d="M37.88,257.77c0-9.84-5.45-16.08-16.56-16.08h-17a4.035,4.035,0,1,0,0,8.07H21.64c5.81,0,8.8,3,8.8,7.91s-3.09,7.91-9.07,7.91h-17a4.035,4.035,0,0,0,0,8.07H21.58C32.38,273.65,37.88,267.62,37.88,257.77Z"/><path class="b" d="M37.83,220.42c0-7.91-4.09-13.46-11.37-13.46h-.11c-6.39,0-9.06,4.19-11,11.63-1.62,6.34-2.41,7.91-4.82,7.91h-.1c-1.79,0-3.2-1.63-3.2-4.72a15.28,15.28,0,0,1,2.46-7.7,3.85,3.85,0,0,0,.58-2,3.74,3.74,0,0,0-6.92-2A21.32,21.32,0,0,0,.1,221.68c0,7.49,4.41,12.83,11.06,12.83h.1c7.29,0,9.33-4.76,11.22-12.15,1.57-6.13,2.61-7.39,4.66-7.39h.1c2.15,0,3.46,2,3.46,5.29a15.48,15.48,0,0,1-3.3,9.38,3.86,3.86,0,0,0-.73,2.31,3.71,3.71,0,0,0,3.72,3.77,3.75,3.75,0,0,0,3-1.52A23.65,23.65,0,0,0,37.83,220.42Z"/></g></svg>