<svg xmlns="http://www.w3.org/2000/svg" xmlns:xlink="http://www.w3.org/1999/xlink" viewBox="0 0 65 65"><defs><style>.a{fill:#ff5f6c;}.b{clip-path:url(#a);}.c,.e{fill:none;stroke:#fff;stroke-miterlimit:10;}.d{clip-path:url(#b);}.e{stroke-linejoin:round;}</style><clipPath id="a"><circle cx="32.5" cy="32.5" r="32.5" transform="translate(-33.2 -45.2)"/></clipPath><clipPath id="b"><circle cx="32.5" cy="32.5" r="32.5"/></clipPath></defs><g transform="translate(-6272 -918)"><circle class="a" cx="32.5" cy="32.5" r="32.5" transform="translate(6272 918)"/><g class="b" transform="translate(6305.2 963.2)"><circle class="c" cx="2.9" cy="2.9" r="2.9"/></g><g class="d" transform="translate(6272 918)"><path class="e" d="M40.5,32.6l-5.8,5.3V33.7H27.4v18a1.367,1.367,0,0,0,1.4,1.4h0a1.367,1.367,0,0,0,1.4-1.4V42.3h4.3l8-7.3a1.45,1.45,0,0,0,0-2.1l-.3-.3A1.146,1.146,0,0,0,40.5,32.6Z"/></g><g class="d" transform="translate(6272 918)"><path class="e" d="M49.3,14.3l-1.4-1.4a1.569,1.569,0,0,0-2.2,0L32.5,25.7H13.1a1.58,1.58,0,0,0-1.6,1.6v1.9a1.58,1.58,0,0,0,1.6,1.6H34.6L49.2,16.5A1.488,1.488,0,0,0,49.3,14.3Z"/></g></g></svg>