<svg xmlns="http://www.w3.org/2000/svg" xmlns:xlink="http://www.w3.org/1999/xlink" viewBox="0 0 65 65"><defs><style>.a{fill:#ff5f6c;}.b{clip-path:url(#a);}.c{fill:#fff;}.d{fill:none;}</style><clipPath id="a"><circle cx="32.5" cy="32.5" r="32.5"/></clipPath></defs><g transform="translate(-6272 -1004)"><circle class="a" cx="32.5" cy="32.5" r="32.5" transform="translate(6272 1004)"/><g class="b" transform="translate(6272 1004)"><path class="c" d="M25.6,16.9v1a9.04,9.04,0,0,1,6.2,2.5.908.908,0,0,0,.7.3,1.08,1.08,0,0,0,.7-.3,9.04,9.04,0,0,1,6.2-2.5,9.184,9.184,0,0,1,6.5,2.8,10.039,10.039,0,0,1,0,13.7c-.1.2-11.7,12.2-11.8,12.3a2.36,2.36,0,0,1-1.6.7,2.13,2.13,0,0,1-1.6-.7S20.2,35.6,19.1,34.4a10.039,10.039,0,0,1,0-13.7,8.846,8.846,0,0,1,6.5-2.8v-1m13.8,0a9.845,9.845,0,0,0-6.9,2.8,9.907,9.907,0,0,0-14.1.3,11,11,0,0,0,0,15.1c1.1,1.2,11.8,12.3,11.8,12.3a3.145,3.145,0,0,0,4.6,0S46.5,35.2,46.6,35.1a11,11,0,0,0,0-15.1,9.856,9.856,0,0,0-7.2-3.1Z"/><path class="d" d="M25.3,22.5h0a4.617,4.617,0,0,0-4.5,4.8"/></g></g></svg>