<svg xmlns="http://www.w3.org/2000/svg" xmlns:xlink="http://www.w3.org/1999/xlink" viewBox="0 0 65 65"><defs><style>.a{fill:#ff5f6c;}.b{clip-path:url(#a);}.c{fill:#fff;}</style><clipPath id="a"><circle cx="32.5" cy="32.5" r="32.5"/></clipPath></defs><g transform="translate(-6356 -747)"><circle class="a" cx="32.5" cy="32.5" r="32.5" transform="translate(6356 747)"/><g class="b" transform="translate(6356 747)"><path class="c" d="M46.9,16h0v1.4c0,.2.2.5.4.5l1.4.6c.1,0,.2.1.3.1a.758.758,0,0,0,.4-.2l1-1,1.4,1.4h0l-1,1a.616.616,0,0,0-.1.7l.6,1.4a.664.664,0,0,0,.5.4h1.4v2H51.8c-.2,0-.5.2-.5.4L50.6,26a.616.616,0,0,0,.1.7l1,1-1.4,1.4-1-1a.758.758,0,0,0-.4-.2.367.367,0,0,0-.3.1l-1.4.6a.664.664,0,0,0-.4.5v1.4h-2V29.1c0-.2-.2-.5-.4-.5L43.1,28c-.1,0-.2-.1-.3-.1a.758.758,0,0,0-.4.2l-1,1L40,27.7l1-1a.616.616,0,0,0,.1-.7l-.6-1.4a.664.664,0,0,0-.5-.4H38.6v-2H40c.2,0,.5-.2.5-.4l.6-1.4a.616.616,0,0,0-.1-.7l-1-1,1.4-1.4,1,1a.758.758,0,0,0,.4.2.367.367,0,0,0,.3-.1l1.4-.6a.664.664,0,0,0,.4-.5V16h2m-1,9.8a2.5,2.5,0,0,0,0-5,2.5,2.5,0,1,0,0,5m2-10.8h-4v2.1l-.9.4-.8-.8-.7-.7-.7.7-1.4,1.4-.7.7.7.7.8.8-.4.9H37.7v4h2.1l.4.9-.8.9-.7.7.7.7,1.4,1.4.7.7.7-.7L43,29l.9.4v2.1h4V29.4l.9-.4.8.8.7.7.7-.7,1.4-1.4.7-.7-.7-.7-.8-.8.4-.9h2.1v-4H52l-.4-.9.8-.8.7-.7-.7-.7L51,16.7l-.7-.7-.7.7-.8.8-.9-.4V15Zm-2,9.8a1.561,1.561,0,0,1-1.6-1.5,1.5,1.5,0,0,1,1.6-1.5,1.473,1.473,0,0,1,1.5,1.5,1.538,1.538,0,0,1-1.5,1.5Z"/><path class="c" d="M26.1,24v2.4a.961.961,0,0,0,.7.9l2.4,1a.6.6,0,0,0,.4.1.908.908,0,0,0,.7-.3L32,26.4l2.4,2.4-1.7,1.7a.937.937,0,0,0-.2,1.1l1,2.4a.961.961,0,0,0,.9.7h2.4v3.4H34.4a.961.961,0,0,0-.9.7l-1,2.4a.913.913,0,0,0,.2,1.1L34.4,44,32,46.5l-1.7-1.7a.908.908,0,0,0-.7-.3c-.2,0-.3,0-.4.1l-2.4,1a.961.961,0,0,0-.7.9V49H22.7V46.6a.961.961,0,0,0-.7-.9l-2.4-1a.6.6,0,0,0-.4-.1.908.908,0,0,0-.7.3l-1.7,1.7-2.4-2.4,1.7-1.7a.937.937,0,0,0,.2-1.1l-1-2.4a.961.961,0,0,0-.9-.7H12V34.9h2.4a.961.961,0,0,0,.9-.7l1-2.4a.913.913,0,0,0-.2-1.1L14.4,29l2.4-2.4,1.7,1.7a.908.908,0,0,0,.7.3c.2,0,.3,0,.4-.1l2.4-1a.961.961,0,0,0,.7-.9V24h3.4M24.4,41.5a4.333,4.333,0,0,0,1.9-.4A4.78,4.78,0,0,0,29,38.4a4.948,4.948,0,0,0-4.6-6.9,4.333,4.333,0,0,0-1.9.4,4.78,4.78,0,0,0-2.7,2.7,4.974,4.974,0,0,0,4.6,6.9M27.1,23H21.7v3.4h0l-2.4,1h-.1l-1.7-1.7-.7-.7-.8.8-2.4,2.4-.7.7.7.7,1.7,1.7h0v.1l-1,2.4H10.9v5.4h3.4l1,2.4v.1h0l-1.7,1.7-.7.7.7.7L16,47.2l.7.7.7-.7,1.7-1.7h0l2.4,1h0v3.4h5.4V46.5h0l2.4-1h.1l1.7,1.7.7.7.7-.7,2.4-2.4.7-.7-.7-.7-1.7-1.7h0v-.1l1-2.4h3.4V33.8H34.2l-1-2.4v-.1h0l1.7-1.7.7-.7-.7-.7-2.4-2.4-.5-.7-.7.7-1.7,1.7h0l-2.4-1h0V23ZM24.4,40.5a4.032,4.032,0,0,1-3.3-1.7,3.95,3.95,0,0,1-.4-3.8,3.624,3.624,0,0,1,2.1-2.1,4.529,4.529,0,0,1,1.6-.3h0a4.032,4.032,0,0,1,3.3,1.7,3.95,3.95,0,0,1,.4,3.8A3.624,3.624,0,0,1,26,40.2a4.973,4.973,0,0,1-1.6.3Z"/></g></g></svg>