<svg xmlns="http://www.w3.org/2000/svg" xmlns:xlink="http://www.w3.org/1999/xlink" viewBox="0 0 65 65"><defs><style>.a{fill:#ff5f6c;}.b{clip-path:url(#a);}.c{fill:none;}.d{fill:#fff;}</style><clipPath id="a"><circle cx="32.5" cy="32.5" r="32.5"/></clipPath></defs><g transform="translate(-6356 -1004)"><circle class="a" cx="32.5" cy="32.5" r="32.5" transform="translate(6356 1004)"/><g class="b" transform="translate(6356 1004)"><path class="c" d="M39.3,43.6a12.918,12.918,0,0,0,2-4.9H23.7a12.918,12.918,0,0,0,2,4.9Z"/><path class="d" d="M32.5,25.1a7.025,7.025,0,0,1,3.4.9c.1,3.1,2.2,8.3,4.6,11.1a12.1,12.1,0,0,1-8,10.6,11.948,11.948,0,0,1-8-10.6c2.4-2.8,4.5-8,4.6-11.1a7.025,7.025,0,0,1,3.4-.9m0-1a8.373,8.373,0,0,0-4.4,1.3c.2,2.6-2,8.5-4.6,11.3a12.868,12.868,0,0,0,9,11.9,12.868,12.868,0,0,0,9-11.9c-2.6-2.8-4.8-8.7-4.6-11.3a8.373,8.373,0,0,0-4.4-1.3Z"/><path class="c" d="M37.7,29.8H27.3A24.213,24.213,0,0,1,25,34.7H40A36,36,0,0,1,37.7,29.8Z"/><path class="d" d="M42,23.2c3.3,0,7.3.8,9.2,2.2a7.547,7.547,0,0,1-4.3,13.7,6.918,6.918,0,0,1-4.3-1.4c-3.4-2.4-6.7-11.3-5.4-13.3.6-.8,2.5-1.2,4.8-1.2m-19,0c2.3,0,4.2.4,4.8,1.2,1.4,1.9-2,10.9-5.4,13.3a7.6,7.6,0,0,1-4.3,1.4A7.24,7.24,0,0,1,12,35.9a7.531,7.531,0,0,1,1.8-10.5c1.9-1.4,5.9-2.2,9.2-2.2m19-1c-2,0-4.7.3-5.6,1.6-1.2,1.7.1,5.7.8,7.4,1.3,3.3,3.1,6.1,4.8,7.3a8.488,8.488,0,0,0,11.9-2,8.6,8.6,0,0,0-2-11.9c-2.3-1.6-6.6-2.4-9.9-2.4Zm-19,0h0c-3.2,0-7.5.7-9.8,2.3A8.429,8.429,0,0,0,9.7,30a8.617,8.617,0,0,0,1.4,6.4,8.448,8.448,0,0,0,7,3.6A7.79,7.79,0,0,0,23,38.4c3.4-2.4,7.5-12,5.6-14.7-1-1.2-3.6-1.5-5.6-1.5Z"/><path class="d" d="M32.5,50l-3.2-3.4h6.4Z"/><path class="d" d="M32.5,16a5.894,5.894,0,0,1,5.9,5.4,4.265,4.265,0,0,0-2,1.2l-.1.1a9.9,9.9,0,0,0-3.8-.9,9.553,9.553,0,0,0-3.8.9.1.1,0,0,0-.1-.1,3.8,3.8,0,0,0-2-1.2A5.894,5.894,0,0,1,32.5,16m0-1a6.914,6.914,0,0,0-6.9,6.9v.3a3.771,3.771,0,0,1,2.2,1,1.493,1.493,0,0,1,.3,1,8.859,8.859,0,0,1,4.4-1.3,8.61,8.61,0,0,1,4.4,1.3,1.493,1.493,0,0,1,.3-1,3.23,3.23,0,0,1,2.2-1v-.3A6.914,6.914,0,0,0,32.5,15Z"/></g></g></svg>