<svg xmlns="http://www.w3.org/2000/svg" xmlns:xlink="http://www.w3.org/1999/xlink" viewBox="0 0 65 65"><defs><style>.a{fill:#ff5f6c;}.b{clip-path:url(#a);}.c{fill:#fff;}.d{fill:none;stroke:#fff;stroke-miterlimit:10;}</style><clipPath id="a"><circle cx="32.5" cy="32.5" r="32.5"/></clipPath></defs><g transform="translate(-6356 -918)"><circle class="a" cx="32.5" cy="32.5" r="32.5" transform="translate(6356 918)"/><g class="b" transform="translate(6356 918)"><path class="c" d="M32.5,12a3.691,3.691,0,0,1,3.7,3.7,3.7,3.7,0,0,1-7.4,0A3.691,3.691,0,0,1,32.5,12m0-1a4.7,4.7,0,1,0,4.7,4.7A4.695,4.695,0,0,0,32.5,11Z"/><path class="c" d="M36.2,21.4a3.847,3.847,0,0,1,3,3.7v.4H25.8v-.4a3.847,3.847,0,0,1,3-3.7,6.959,6.959,0,0,0,3.7,1.1,6.183,6.183,0,0,0,3.7-1.1m-.3-1a5.987,5.987,0,0,1-3.4,1.1,5.754,5.754,0,0,1-3.4-1.1,4.776,4.776,0,0,0-4.2,4.8v1.4H40.3V25.2a5.038,5.038,0,0,0-4.4-4.8Z"/><path class="c" d="M46.9,33.9a3.7,3.7,0,1,1-3.7,3.7,3.757,3.757,0,0,1,3.7-3.7m0-1a4.7,4.7,0,1,0,4.7,4.7,4.695,4.695,0,0,0-4.7-4.7Z"/><path class="c" d="M50.6,43.3a3.847,3.847,0,0,1,3,3.7v.4H40.2V47a3.847,3.847,0,0,1,3-3.7,6.773,6.773,0,0,0,7.4,0m-.2-1A5.987,5.987,0,0,1,47,43.4a5.754,5.754,0,0,1-3.4-1.1,4.776,4.776,0,0,0-4.2,4.8v1.4H54.8V47a4.942,4.942,0,0,0-4.4-4.7Z"/><path class="c" d="M18.2,33.9a3.7,3.7,0,0,1,0,7.4,3.757,3.757,0,0,1-3.7-3.7,3.629,3.629,0,0,1,3.7-3.7m0-1a4.7,4.7,0,1,0,4.7,4.7,4.695,4.695,0,0,0-4.7-4.7Z"/><path class="c" d="M21.9,43.3a3.847,3.847,0,0,1,3,3.7v.4H11.5V47a3.847,3.847,0,0,1,3-3.7,6.773,6.773,0,0,0,7.4,0m-.3-1a5.987,5.987,0,0,1-3.4,1.1,5.754,5.754,0,0,1-3.4-1.1,4.776,4.776,0,0,0-4.2,4.8v1.4H26V47a4.859,4.859,0,0,0-4.4-4.7Z"/><path class="c" d="M11.6,26.8a.9.9,0,0,1,.9.9V32c0,.5-.5.6-.9.6h-1V34l-.8-1-.3-.4H5.2c-.4,0-.9-.1-.9-.6V27.8a.9.9,0,0,1,.9-.9h6.4m0-1.1H5.2a1.9,1.9,0,0,0-1.9,1.9V32c0,1.1.9,1.6,1.9,1.6H9l2.6,3.3V33.6c1.1,0,1.9-.5,1.9-1.6V27.8a1.864,1.864,0,0,0-1.9-2Z"/><path class="c" d="M56.3,26.8c2.1,0,3.8,1.4,3.8,3.2,0,1.7-1.7,3.2-3.8,3.2H56l-.3.2-1.5,1,.1-1.1v-.6l-.5-.3A2.939,2.939,0,0,1,52.4,30a3.679,3.679,0,0,1,3.9-3.2m0-1c-2.6,0-4.8,1.9-4.8,4.2a4.133,4.133,0,0,0,1.8,3.3l-.2,3.1,3.2-2.2c2.6,0,4.8-1.9,4.8-4.2s-2.2-4.2-4.8-4.2Z"/><circle class="d" cx="2.1" cy="2.1" r="2.1" transform="translate(30.4 34.1)"/><line class="d" y1="4.9" transform="translate(32.5 29.2)"/><line class="d" x1="4.3" y2="2.4" transform="translate(26.4 37.3)"/><line class="d" x2="4.3" y2="2.4" transform="translate(34.3 37.3)"/><path class="c" d="M26.2,8.6v5.7h-2v1.4l-.8-1-.4-.3H17.8V8.6h8.4m.1-1H17.7a.9.9,0,0,0-.9.9v6.3a.576.576,0,0,0,.6.6h5.1l2.6,3.3V15.4h1.2a.9.9,0,0,0,.9-.9v-6a.9.9,0,0,0-.9-.9Z"/></g></g></svg>