<svg xmlns="http://www.w3.org/2000/svg" xmlns:xlink="http://www.w3.org/1999/xlink" viewBox="0 0 65 65"><defs><style>.a{fill:#ff5f6c;}.b{clip-path:url(#a);}.c{fill:#fff;}</style><clipPath id="a"><circle cx="32.5" cy="32.5" r="32.5"/></clipPath></defs><g transform="translate(-6272 -747)"><circle class="a" cx="32.5" cy="32.5" r="32.5" transform="translate(6272 747)"/><g class="b" transform="translate(6272 747)"><rect class="c" width="7.2" height="2.9" transform="translate(13 19.5)"/><path class="c" d="M16.9,49.2l-3.5-6.5h6.9Z"/><path class="c" d="M19.2,24.9V40.2H14V24.9h5.2m1-1H13V41.2h7.2V23.9Z"/></g><g class="b" transform="translate(6272 747)"><path class="c" d="M39.4,19.5A12.078,12.078,0,0,1,51.5,31.6,11.663,11.663,0,0,1,50,37.4l-.2.4.1.4,2,5.9-5.9-2-.4-.1-.4.2a11.94,11.94,0,0,1-5.8,1.5,12.1,12.1,0,0,1,0-24.2m0-1a13.1,13.1,0,0,0,0,26.2,13.387,13.387,0,0,0,6.3-1.6l7.8,2.6L50.9,38a13.387,13.387,0,0,0,1.6-6.3A13.04,13.04,0,0,0,39.4,18.5Z"/></g></g></svg>