<svg xmlns="http://www.w3.org/2000/svg" viewBox="0 0 65 65"><defs><style>.a{fill:#ff5f6c;}.b{fill:#fff;}</style></defs><g transform="translate(-6272 -833)"><circle class="a" cx="32.5" cy="32.5" r="32.5" transform="translate(6272 833)"/><g transform="translate(6272 833)"><path class="b" d="M49.7,12.3h0c.1,0,.1,0,.1.1a38.1,38.1,0,0,1,2.8,7.2,63.58,63.58,0,0,1,1.6,7.3,34.9,34.9,0,0,1,.5,7.2,19.676,19.676,0,0,1-.6,3.5,11.7,11.7,0,0,1-1.2,3H46.1a14.429,14.429,0,0,1-1.2-3,19.676,19.676,0,0,1-.6-3.5,34.9,34.9,0,0,1,.5-7.2,63.582,63.582,0,0,1,1.6-7.3,38.1,38.1,0,0,1,2.8-7.2,1.338,1.338,0,0,1,.5-.1m0-1a1.356,1.356,0,0,0-1.1.7,37.782,37.782,0,0,0-2.9,7.4,70.254,70.254,0,0,0-1.6,7.4,31.084,31.084,0,0,0-.5,7.4,23.759,23.759,0,0,0,.6,3.7,11.873,11.873,0,0,0,1.6,3.7h7.9a14.81,14.81,0,0,0,1.6-3.7,23.759,23.759,0,0,0,.6-3.7,36.36,36.36,0,0,0-.5-7.4,60.839,60.839,0,0,0-1.6-7.4A35.489,35.489,0,0,0,50.9,12a1.242,1.242,0,0,0-.8-.6.756.756,0,0,0-.4-.1Z"/><path class="b" d="M52.9,44c.3,1.4.7,4.9-1.2,7.7-1.2,1.8-4.4,3.7-8.6,3.7a14.083,14.083,0,0,1-4.5-.7,5.035,5.035,0,0,0,3.9-4.4c.3-1.9.7-4.3,3.7-6.2h6.7m.7-1.1H45.8c-3.5,2.2-4,5.1-4.4,7.1-.6,3.5-3.1,3.7-6.3,4.2A16.709,16.709,0,0,0,43,56.4c4.6,0,8.1-2.1,9.4-4.1,2.9-4.1,1.2-9.3,1.2-9.3Z"/></g><g transform="translate(6272 833)"><path class="b" d="M23.5,19.7,34.9,42.8H12.1L23.5,19.7m0-2.3-13,26.4h26l-13-26.4Z"/></g><g transform="translate(6272 833)"><path class="b" d="M39.2,8.7l2.5,4.4-2.5,4.4H34.1l-2.5-4.4,2.5-4.4h5.1m.6-1H33.5l-3.1,5.4,3.1,5.4h6.3l3.1-5.4L39.8,7.7Z"/></g></g></svg>