<svg id="Layer_2" data-name="Layer 2" xmlns="http://www.w3.org/2000/svg" xmlns:xlink="http://www.w3.org/1999/xlink" viewBox="0 0 590 590"><defs><style>.cls-1,.cls-4,.cls-5,.cls-6,.cls-7{fill:none;}.cls-1{stroke:#f2f2f2;stroke-width:15px;}.cls-1,.cls-4{stroke-miterlimit:10;}.cls-2{fill:url(#linear-gradient);}.cls-3{fill:#fff;}.cls-4,.cls-5,.cls-7{stroke:#fff;stroke-width:2px;}.cls-5,.cls-7{stroke-linejoin:round;}.cls-7{stroke-linecap:round;}.cls-14,.cls-27,.cls-8{font-size:16px;}.cls-14,.cls-27,.cls-31,.cls-8{font-family:Comfortaa-Bold, Comfortaa;}.cls-8{letter-spacing:-0.12em;}.cls-31,.cls-9{font-weight:700;}.cls-10{letter-spacing:-0.01em;}.cls-11,.cls-15,.cls-18{font-size:12px;fill:#676d76;font-family:Comfortaa-Regular, Comfortaa;}.cls-11,.cls-14,.cls-16{letter-spacing:-0.01em;}.cls-12{letter-spacing:-0.04em;}.cls-13{letter-spacing:-0.03em;}.cls-15{letter-spacing:-0.04em;}.cls-17{letter-spacing:-0.04em;}.cls-19{letter-spacing:-0.06em;}.cls-20{letter-spacing:-0.03em;}.cls-21{letter-spacing:-0.03em;}.cls-22{letter-spacing:-0.04em;}.cls-23{letter-spacing:-0.01em;}.cls-24{letter-spacing:-0.05em;}.cls-25{letter-spacing:-0.03em;}.cls-26{letter-spacing:-0.03em;}.cls-27{letter-spacing:-0.03em;}.cls-28{letter-spacing:-0.04em;}.cls-29{letter-spacing:-0.02em;}.cls-30{isolation:isolate;}.cls-31{font-size:26px;letter-spacing:-0.05em;}.cls-32{letter-spacing:-0.01em;}</style><linearGradient id="linear-gradient" x1="117.82" y1="300.16" x2="488.51" y2="300.16" gradientTransform="translate(-118.96 293.66) rotate(-45)" gradientUnits="userSpaceOnUse"><stop offset="0" stop-color="#ff5f6c"/><stop offset="0.5" stop-color="#ff6b90"/><stop offset="1" stop-color="#ffb73e"/></linearGradient></defs><title>5_Become_Mentor_TutorHere</title><circle class="cls-1" cx="307.91" cy="291.79" r="141.05"/><path class="cls-2" d="M176.6,160.48c17.72-17.72,46-18.14,63.22-.95s16.78,45.51-.94,63.23-46,18.14-63.23.94S158.88,178.2,176.6,160.48ZM122.31,291.54c0-25.06,19.72-45.38,44-45.38s44,20.32,44,45.38-19.72,45.37-44,45.37S122.31,316.6,122.31,291.54ZM176.6,422.6c-17.72-17.72-18.15-46-.95-63.23s45.51-16.78,63.23.94,18.14,46,.94,63.23S194.32,440.32,176.6,422.6Zm131.06,54.28c-25.06,0-45.38-19.72-45.38-44s20.32-44,45.38-44,45.37,19.72,45.37,44S332.71,476.88,307.66,476.88Zm131-54.28c-17.72,17.72-46,18.14-63.22.94s-16.78-45.51.94-63.23,46-18.14,63.23-.94S456.43,404.88,438.71,422.6ZM493,291.54c0,25.06-19.72,45.37-44,45.37s-44-20.31-44-45.37,19.72-45.38,44-45.38S493,266.48,493,291.54ZM438.71,160.48c17.72,17.72,18.15,46,1,63.22s-45.51,16.78-63.23-.94-18.14-46-.94-63.23S421,142.76,438.71,160.48Zm-131-54.29c25,0,45.37,19.72,45.37,44s-20.32,44-45.37,44-45.38-19.71-45.38-44S282.6,106.19,307.66,106.19Z"/><rect class="cls-3" x="281.19" y="132.24" width="9.63" height="4.31"/><polygon class="cls-3" points="286.01 172.9 281.19 163.9 290.83 163.9 286.01 172.9"/><path class="cls-3" d="M288.83,140.35v19.91h-5.64V140.35h5.64m2-2h-9.64v23.91h9.64V138.35Z"/><path class="cls-3" d="M317.22,132.84a16.21,16.21,0,0,1,14.21,24l-.43.76.28.83,2.34,7-7-2.33-.83-.28-.77.42a16.2,16.2,0,1,1-7.79-30.4m0-2A18.2,18.2,0,1,0,326,165l10.81,3.61-3.6-10.81a18.2,18.2,0,0,0-16-26.95Z"/><g id="Gears"><g id="Shape_291" data-name="Shape 291"><path class="cls-3" d="M426.51,169.69h0v1.94a.82.82,0,0,0,.55.74l1.92.79a.69.69,0,0,0,.35.08.79.79,0,0,0,.56-.21l1.38-1.38,1.92,1.93h0L431.82,175a.82.82,0,0,0-.13.92l.79,1.91a.82.82,0,0,0,.74.55h1.95v2.73h-1.95a.82.82,0,0,0-.74.55l-.79,1.91a.82.82,0,0,0,.13.92l1.37,1.37-1.92,1.93-1.38-1.38a.79.79,0,0,0-.56-.21.72.72,0,0,0-.35.08l-1.92.79a.82.82,0,0,0-.55.74v1.94h-2.73v-1.94a.82.82,0,0,0-.55-.74l-1.92-.79a.69.69,0,0,0-.35-.08.79.79,0,0,0-.56.21L419,187.73l-1.92-1.92,1.37-1.37a.81.81,0,0,0,.13-.92l-.78-1.91a.83.83,0,0,0-.74-.55h-1.95v-2.73h1.95a.83.83,0,0,0,.74-.55l.78-1.91a.81.81,0,0,0-.13-.92l-1.37-1.37,1.93-1.92L420.4,173a.79.79,0,0,0,.56.21.67.67,0,0,0,.35-.08l1.92-.79a.82.82,0,0,0,.55-.74v-1.94h2.73m-1.36,13.53a3.53,3.53,0,1,0-3.53-3.53,3.53,3.53,0,0,0,3.53,3.53m3.36-15.53h-6.73v3.11l-.55.23-.79-.79L419,168.83l-1.42,1.41-1.93,1.93-1.41,1.41,1.41,1.42.79.79-.22.54h-3.12v6.73h3.12l.22.55-.79.78-1.41,1.42,1.41,1.41,1.93,1.93,1.41,1.41,1.42-1.41.79-.79.55.23v3.11h6.73v-3.11l.55-.23.8.79,1.41,1.42,1.42-1.42,1.92-1.93L436,185.8l-1.41-1.41-.79-.78.22-.55h3.13v-6.73h-3.12l-.23-.55.79-.78,1.41-1.42-1.41-1.41-1.92-1.93-1.42-1.42-1.41,1.42-.8.79-.55-.23v-3.11Zm-3.36,13.53a1.53,1.53,0,1,1,1.53-1.53,1.52,1.52,0,0,1-1.53,1.53Z"/></g><g id="Shape_293" data-name="Shape 293"><path class="cls-3" d="M397.7,180.75v3.35a1.41,1.41,0,0,0,.95,1.28l3.31,1.36a1.25,1.25,0,0,0,.61.15,1.4,1.4,0,0,0,1-.37l2.37-2.38,3.32,3.33-2.37,2.37a1.42,1.42,0,0,0-.22,1.57l1.36,3.31a1.42,1.42,0,0,0,1.28.95h3.36v4.7h-3.36a1.41,1.41,0,0,0-1.28.95l-1.36,3.31a1.42,1.42,0,0,0,.22,1.57l2.37,2.37-3.32,3.33-2.37-2.38a1.4,1.4,0,0,0-1-.37,1.28,1.28,0,0,0-.61.15l-3.31,1.36a1.41,1.41,0,0,0-.95,1.28v3.35H393v-3.35a1.42,1.42,0,0,0-1-1.28l-3.31-1.36a1.25,1.25,0,0,0-.61-.15,1.37,1.37,0,0,0-1,.37l-2.38,2.38-3.32-3.33,2.37-2.37a1.4,1.4,0,0,0,.23-1.57l-1.36-3.31a1.44,1.44,0,0,0-1.28-.95h-3.36v-4.7h3.36a1.44,1.44,0,0,0,1.28-.95l1.36-3.31a1.4,1.4,0,0,0-.23-1.57l-2.37-2.37,3.33-3.32,2.37,2.37a1.39,1.39,0,0,0,1,.37,1.25,1.25,0,0,0,.61-.15l3.31-1.36a1.42,1.42,0,0,0,1-1.28v-3.35h4.7m-2.35,24.16a7.58,7.58,0,0,0,2.7-.51,6.41,6.41,0,0,0,3.68-3.68,6.93,6.93,0,0,0-6.38-9.59,7.58,7.58,0,0,0-2.7.51,6.41,6.41,0,0,0-3.68,3.68,6.92,6.92,0,0,0,6.38,9.59m4.35-26.16H391v4.9l-2.75,1.13-2.05-2.05-1.41-1.41-1.42,1.41L380,186.05l-1.41,1.42,1.41,1.41,2,2.05L381,193.67h-4.9v8.7H381l1.13,2.74-2,2-1.41,1.42L380,210l3.33,3.33,1.41,1.42,1.42-1.42,2.05-2.05,2.75,1.13v4.9h7.62l.54-.63.54-.53v-3.74l2.75-1.13,2.05,2.05,1.41,1.42,1.42-1.42,3.32-3.33,1.41-1.42-1.41-1.41-2-2,1.13-2.75h4.91v-8.7h-4.91l-1.13-2.74,2-2,1.41-1.42-1.41-1.41-3.32-3.33-1.42-1.42-1.41,1.42-2.05,2.05-2.75-1.13v-4.9Zm-4.35,24.16a4.89,4.89,0,0,1-4-2.12,5,5,0,0,1-.48-4.75,4.45,4.45,0,0,1,2.54-2.53,5.52,5.52,0,0,1,2-.38h0a4.92,4.92,0,0,1,4,2.13,5,5,0,0,1,.48,4.74,4.45,4.45,0,0,1-2.54,2.53,5.6,5.6,0,0,1-2,.38Z"/></g></g><circle class="cls-4" cx="310.68" cy="454.83" r="4.15"/><path class="cls-5" d="M319.73,431.38a2.11,2.11,0,0,0-2.11.56l-8.8,8.81V434.7H298.68V461a2.06,2.06,0,0,0,1,1.83,2.26,2.26,0,0,0,3.47-1.9V447.08h5.66l11.93-11.93A2.26,2.26,0,0,0,319.73,431.38Z"/><path class="cls-5" d="M327.87,408.36l-1.72-1.72a2.19,2.19,0,0,0-3.07,0L306,423.71H280.48a2.17,2.17,0,0,0-2.17,2.17v2.43a2.17,2.17,0,0,0,2.17,2.17h28.34l19.05-19.05A2.19,2.19,0,0,0,327.87,408.36Z"/><g id="heart"><path class="cls-3" d="M156.8,270v2a11.86,11.86,0,0,1,8.18,3.3,2,2,0,0,0,1.38.55,2,2,0,0,0,1.37-.55,11.86,11.86,0,0,1,8.17-3.3,11.74,11.74,0,0,1,8.51,3.68,13.21,13.21,0,0,1,0,18.11l-16.34,17a2.35,2.35,0,0,1-3.44,0l-16.34-17a13.21,13.21,0,0,1,0-18.11A11.75,11.75,0,0,1,156.8,272v-2m19.1,0a13.79,13.79,0,0,0-9.54,3.85,13.73,13.73,0,0,0-19.51.45,15.18,15.18,0,0,0,0,20.87l16.34,17a4.34,4.34,0,0,0,6.33,0l16.34-17a15.2,15.2,0,0,0,0-20.87,13.77,13.77,0,0,0-10-4.3Z"/><path class="cls-6" d="M156.37,277.74h0a6.46,6.46,0,0,0-6.28,6.62"/></g><ellipse class="cls-5" cx="393.76" cy="412.62" rx="8.88" ry="6.18"/><line class="cls-7" x1="402.64" y1="412.62" x2="402.64" y2="374.42"/><ellipse class="cls-5" cx="416.8" cy="402.13" rx="8.88" ry="6.18"/><line class="cls-7" x1="425.67" y1="402.13" x2="425.67" y2="363.93"/><polygon class="cls-5" points="425.67 372.53 402.64 383.03 402.64 374.42 425.67 363.93 425.67 372.53"/><path class="cls-6" d="M217.17,205.63a18,18,0,0,0,2.73-6.73H195.57a18.2,18.2,0,0,0,2.73,6.73Z"/><path class="cls-3" d="M207.74,180.66a10.23,10.23,0,0,1,4.15,1c.28,4.37,3.11,11.25,6.3,15.15a16.06,16.06,0,0,1-10.45,13.78,16.06,16.06,0,0,1-10.45-13.78c3.19-3.9,6-10.78,6.29-15.15a10.26,10.26,0,0,1,4.16-1m0-2a12.45,12.45,0,0,0-6.15,1.83c.31,3.67-2.8,11.79-6.37,15.67.84,12.88,11.78,16.51,12.52,16.51s11.68-3.63,12.51-16.51c-3.56-3.88-6.67-12-6.36-15.67a12.48,12.48,0,0,0-6.15-1.83Z"/><path class="cls-6" d="M215,186.53h-14.5a33.69,33.69,0,0,1-3.12,6.73h20.74A33.69,33.69,0,0,1,215,186.53Z"/><path class="cls-3" d="M220.93,177.5c4.5,0,10,1,12.79,3a10.4,10.4,0,1,1-12,17c-4.69-3.31-9.3-15.69-7.42-18.35.78-1.11,3.44-1.63,6.63-1.63m-26.38,0c3.18,0,5.85.52,6.63,1.63,1.88,2.66-2.73,15-7.43,18.35a10.4,10.4,0,1,1-12-17c2.75-1.94,8.29-3,12.8-3m26.38-2c-4.33,0-7.11.83-8.27,2.47-1.8,2.55-.13,7.88,1,10.82.7,1.77,3.24,7.75,6.89,10.33a12.4,12.4,0,1,0,14.3-20.27c-3.28-2.32-9.36-3.35-13.94-3.35Zm-26.38,0h0c-4.58,0-10.67,1-14,3.35a12.41,12.41,0,0,0,14.31,20.27c3.64-2.58,6.19-8.56,6.88-10.33,1.16-2.94,2.82-8.27,1-10.82-1.16-1.64-3.94-2.47-8.26-2.47Z"/><polygon class="cls-3" points="207.74 214.5 203.28 209.86 212.19 209.86 207.74 214.5"/><path class="cls-3" d="M207.74,168.14a7.59,7.59,0,0,1,7.49,6.49,5.13,5.13,0,0,0-2.38,1.49,12.74,12.74,0,0,0-10.22,0,5.22,5.22,0,0,0-2.39-1.49,7.59,7.59,0,0,1,7.5-6.49m0-2a9.57,9.57,0,0,0-9.57,9.57c0,.16,0,.31,0,.46a4.74,4.74,0,0,1,3,1.34,2.77,2.77,0,0,1,.41,1.36,11.3,11.3,0,0,1,12.3,0,2.77,2.77,0,0,1,.41-1.36,4.72,4.72,0,0,1,3-1.34c0-.15,0-.3,0-.46a9.58,9.58,0,0,0-9.57-9.57Z"/><text class="cls-8" transform="translate(280.76 55.5)"><tspan class="cls-9">V<tspan class="cls-10" x="9.87" y="0">erbal</tspan></tspan><tspan class="cls-11"><tspan x="-27.52" y="19.17">Using written and </tspan><tspan x="-26.19" y="35.68">spo</tspan><tspan class="cls-12" x="-3.47" y="35.68">k</tspan><tspan x="2.89" y="35.68">en </tspan><tspan class="cls-13" x="21.54" y="35.68">l</tspan><tspan x="24.59" y="35.68">anguage</tspan></tspan></text><text class="cls-14" transform="translate(452.05 114.86)"><tspan class="cls-9">Logic</tspan><tspan class="cls-15"><tspan x="-0.1" y="19.17">C</tspan><tspan class="cls-16" x="8.7" y="19.17">ogniti</tspan><tspan class="cls-17" x="44.11" y="19.17">v</tspan><tspan class="cls-16" x="50.32" y="19.17">e </tspan></tspan><tspan class="cls-18"><tspan x="-0.17" y="35.68">p</tspan><tspan class="cls-19" x="8.19" y="35.68">r</tspan><tspan x="12.95" y="35.68">ob</tspan><tspan class="cls-20" x="29.31" y="35.68">l</tspan><tspan x="32.36" y="35.68">em so</tspan><tspan class="cls-13" x="68.6" y="35.68">l</tspan><tspan x="71.65" y="35.68">ving</tspan></tspan></text><text class="cls-14" transform="translate(504.46 272.53)"><tspan class="cls-9">Visual</tspan><tspan class="cls-18"><tspan x="0" y="19.17">Using and </tspan><tspan x="0" y="35.68">manipu</tspan><tspan class="cls-13" x="46.97" y="35.68">l</tspan><tspan x="50.02" y="35.68">ating </tspan><tspan x="0" y="52.2">space</tspan></tspan></text><text class="cls-14" transform="translate(68.08 272.53)"><tspan class="cls-9">Inner</tspan><tspan class="cls-18"><tspan x="-49.07" y="19.17">Self </tspan><tspan class="cls-21" x="-23.07" y="19.17">a</tspan><tspan class="cls-17" x="-15.35" y="19.17">w</tspan><tspan x="-6.9" y="19.17">a</tspan><tspan class="cls-19" x="1.1" y="19.17">r</tspan><tspan x="5.85" y="19.17">eness, </tspan><tspan x="-65.19" y="35.68">self management, </tspan><tspan x="-46.46" y="52.2">self moti</tspan><tspan class="cls-22" x="5.37" y="52.2">v</tspan><tspan class="cls-23" x="11.58" y="52.2">ation</tspan></tspan></text><text class="cls-14" transform="translate(70.68 116.55)"><tspan class="cls-9">Natu<tspan class="cls-24" x="40.77" y="0">r</tspan><tspan x="47.74" y="0">alistic</tspan></tspan><tspan class="cls-18"><tspan x="3.17" y="19.17">Understanding </tspan><tspan x="-8.08" y="35.68">the natu</tspan><tspan class="cls-19" x="43.99" y="35.68">r</tspan><tspan x="48.74" y="35.68">al </tspan><tspan class="cls-17" x="63.41" y="35.68">w</tspan><tspan x="71.85" y="35.68">or</tspan><tspan class="cls-13" x="85.23" y="35.68">l</tspan><tspan x="88.28" y="35.68">d</tspan></tspan></text><text class="cls-14" transform="translate(451.23 444.23)"><tspan class="cls-9">Musical</tspan><tspan class="cls-18"><tspan x="0" y="19.17">C</tspan><tspan class="cls-19" x="9.13" y="19.17">r</tspan><tspan class="cls-25" x="13.88" y="19.17">e</tspan><tspan x="20.89" y="19.17">ating and </tspan><tspan x="0" y="35.68">app</tspan><tspan class="cls-19" x="24.73" y="35.68">r</tspan><tspan class="cls-26" x="29.48" y="35.68">e</tspan><tspan x="36.49" y="35.68">ciating </tspan><tspan x="0" y="52.2">music</tspan></tspan></text><text class="cls-14" transform="translate(287.15 505.78)"><tspan class="cls-9">Body</tspan><tspan class="cls-18"><tspan x="-29.2" y="19.17">Using g</tspan><tspan class="cls-19" x="17.62" y="19.17">r</tspan><tspan x="22.37" y="19.17">oss and </tspan><tspan x="-27.1" y="35.68">fine motor skills</tspan></tspan></text><text class="cls-27" transform="translate(113.05 444.23)"><tspan class="cls-9">Pe<tspan class="cls-16" x="18.94" y="0">op</tspan><tspan class="cls-28" x="40.67" y="0">l</tspan><tspan class="cls-16" x="44.83" y="0">e</tspan></tspan><tspan class="cls-11"><tspan x="-66.6" y="19.17">Understanding and </tspan><tspan x="-76.98" y="35.68">inte</tspan><tspan class="cls-19" x="-53.68" y="35.68">r</tspan><tspan x="-48.92" y="35.68">acting e</tspan><tspan class="cls-29" x="0.81" y="35.68">ff</tspan><tspan class="cls-25" x="9.38" y="35.68">e</tspan><tspan x="16.39" y="35.68">cti</tspan><tspan class="cls-17" x="31.47" y="35.68">v</tspan><tspan x="37.68" y="35.68">ely </tspan><tspan x="-13.25" y="52.2">with others</tspan></tspan></text><path class="cls-3" d="M473.07,264.11h0m-.33.62a52.77,52.77,0,0,1,3.55,9.27,82.45,82.45,0,0,1,2.19,10,46.14,46.14,0,0,1,.72,9.87,25,25,0,0,1-.75,4.74,18.56,18.56,0,0,1-1.38,3.68h-8.66a19.66,19.66,0,0,1-1.37-3.65,24.86,24.86,0,0,1-.76-4.78,46.46,46.46,0,0,1,.72-9.84,82.12,82.12,0,0,1,2.19-10,53.72,53.72,0,0,1,3.55-9.3m0-2.42a1.62,1.62,0,0,0-1.43.85,53.49,53.49,0,0,0-4,10.29A86.11,86.11,0,0,0,465,283.74a48.86,48.86,0,0,0-.74,10.29,27.9,27.9,0,0,0,.83,5.15,18.47,18.47,0,0,0,2.15,5.14h11a18.78,18.78,0,0,0,2.15-5.14,27.06,27.06,0,0,0,.82-5.15,48.2,48.2,0,0,0-.74-10.29,82.38,82.38,0,0,0-2.25-10.29,52.8,52.8,0,0,0-4-10.29,1.61,1.61,0,0,0-1.44-.85Z"/><path class="cls-3" d="M476.64,308.46c.36,2.11.65,6.24-1.7,9.69s-8.11,4.79-11.37,4.79a19.57,19.57,0,0,1-4.28-.48,7.4,7.4,0,0,0,4-5.87c.43-2.5,1-5.58,4.65-8.13h8.68m1.59-2H467.36c-4.86,3.09-5.54,7-6,9.79-.83,4.8-4.26,5.1-8.69,5.84a23.4,23.4,0,0,0,10.92,2.85c6.32,0,11.16-2.93,13-5.67,3.88-5.71,1.64-12.81,1.64-12.81Z"/><path class="cls-3" d="M436.51,274.94l14.82,30H421.7l14.81-30m0-4.52-18,36.49h36.07l-18-36.49Z"/><path class="cls-3" d="M458.3,258.65l3.31,5.74-3.31,5.73h-6.63l-3.31-5.73,3.31-5.74h6.63m1.15-2h-8.93l-4.47,7.74,4.47,7.73h8.93l4.47-7.73-4.47-7.74Z"/><path class="cls-3" d="M207.74,363.73a4.55,4.55,0,1,1-4.55,4.55,4.55,4.55,0,0,1,4.55-4.55m0-2a6.55,6.55,0,1,0,6.55,6.55,6.55,6.55,0,0,0-6.55-6.55Z"/><path class="cls-3" d="M213,376.79a4.62,4.62,0,0,1,3.43,4.46H199.09a4.63,4.63,0,0,1,3.43-4.46,9.93,9.93,0,0,0,10.43,0m-.44-2.12a7.91,7.91,0,0,1-9.54,0,6.64,6.64,0,0,0-5.88,6.59v2h21.29v-2a6.64,6.64,0,0,0-5.87-6.59Z"/><path class="cls-3" d="M227.7,394a4.55,4.55,0,1,1-4.55,4.55A4.55,4.55,0,0,1,227.7,394m0-2a6.55,6.55,0,1,0,6.55,6.55A6.55,6.55,0,0,0,227.7,392Z"/><path class="cls-3" d="M232.92,407.07a4.63,4.63,0,0,1,3.43,4.46H219.06a4.61,4.61,0,0,1,3.43-4.46,9.93,9.93,0,0,0,10.43,0m-.45-2.11a8,8,0,0,1-9.54,0,6.63,6.63,0,0,0-5.87,6.58v2h21.29v-2a6.63,6.63,0,0,0-5.88-6.58Z"/><path class="cls-3" d="M187.9,394a4.55,4.55,0,1,1-4.55,4.55A4.55,4.55,0,0,1,187.9,394m0-2a6.55,6.55,0,1,0,6.55,6.55A6.55,6.55,0,0,0,187.9,392Z"/><path class="cls-3" d="M182.69,407.07a9.93,9.93,0,0,0,10.43,0,4.63,4.63,0,0,1,3.43,4.46H179.26a4.63,4.63,0,0,1,3.43-4.46m10-2.11a8,8,0,0,1-9.54,0,6.63,6.63,0,0,0-5.87,6.58v2h21.29v-2a6.63,6.63,0,0,0-5.88-6.58Z"/><g id="Chat_Bubble" data-name="Chat Bubble"><g id="_4-communication_-_bubble_chat_talk_conversation" data-name="4-communication - bubble chat talk conversation" class="cls-30"><g id="_4-communication_-_bubble_chat_talk_conversation-2" data-name="4-communication - bubble chat talk conversation"><path class="cls-3" d="M178.82,384.2a.69.69,0,0,1,.69.69v5.81a.28.28,0,0,1,0,.08,1.13,1.13,0,0,1-.68.15h-2v.77h0l-.6-.77h-6.34a1.4,1.4,0,0,1-.67-.13.36.36,0,0,1,0-.1v-5.81a.69.69,0,0,1,.68-.69h8.94m0-2h-8.94a2.68,2.68,0,0,0-2.68,2.69v5.81c0,1.48,1.2,2.23,2.68,2.23h5.37l3.57,4.56v-4.56c1.49,0,2.69-.75,2.69-2.23v-5.81a2.68,2.68,0,0,0-2.69-2.69Z"/></g></g></g><g id="_2-communication_-_bubble_chat_talk_conversation_line" data-name="2-communication - bubble chat talk conversation line"><g id="_2-communication_-_bubble_chat_talk_conversation_line-2" data-name="2-communication - bubble chat talk conversation line"><path class="cls-3" d="M240.7,384.2c2.54,0,4.61,1.7,4.61,3.78s-2.07,3.78-4.61,3.78h-.63l-.51.36-1,.7,0-.2.07-1.12-.92-.65A3.54,3.54,0,0,1,236.1,388c0-2.08,2.06-3.78,4.6-3.78m0-2c-3.65,0-6.6,2.59-6.6,5.78a5.52,5.52,0,0,0,2.47,4.51l-.29,4.35,4.42-3.08c3.65,0,6.61-2.59,6.61-5.78s-3-5.78-6.61-5.78Z"/></g></g><circle class="cls-4" cx="207.74" cy="396.62" r="2.92"/><line class="cls-4" x1="207.74" y1="393.7" x2="207.74" y2="386.94"/><line class="cls-4" x1="205.21" y1="398.08" x2="199.35" y2="401.46"/><line class="cls-4" x1="210.26" y1="398.08" x2="216.12" y2="401.46"/><path class="cls-3" d="M198.38,359v6.73h-2.84v.77h0l-.6-.77h-6.87V359h10.31m.79-2H187.29a1.22,1.22,0,0,0-1.22,1.22V367a.77.77,0,0,0,.77.76H194l3.57,4.56v-4.56h1.63a1.21,1.21,0,0,0,1.21-1.21v-8.3a1.22,1.22,0,0,0-1.21-1.22Z"/><text class="cls-31" transform="translate(225.19 301.76)">S<tspan class="cls-32" x="16.59" y="0">TRENGTHS</tspan></text></svg>