<svg xmlns="http://www.w3.org/2000/svg" viewBox="0 0 64.959 65.039"><defs><style>.a{fill:#f02e36;}.b,.c{fill:none;stroke:#fff;stroke-miterlimit:10;}.c{stroke-linejoin:round;}</style></defs><g transform="translate(-0.02 0.02)"><ellipse class="a" cx="32.48" cy="32.52" rx="32.48" ry="32.52" transform="translate(0.02 -0.02)"/><circle class="b" cx="2.99" cy="2.99" r="2.99" transform="translate(31.7 45.39)"/><path class="c" d="M41.16,31.42a1.506,1.506,0,0,0-1.46.42L33.34,38.2V33.84H26.02v19a1.506,1.506,0,0,0,.73,1.33,1.636,1.636,0,0,0,2.5-1.38V42.78h4.09l8.61-8.61A1.64,1.64,0,0,0,41.16,31.42Z"/><path class="c" d="M47.1,14.82l-1.24-1.24a1.575,1.575,0,0,0-2.22,0L31.31,25.9H12.88a1.566,1.566,0,0,0-1.57,1.57v1.76a1.566,1.566,0,0,0,1.57,1.57H33.34L47.1,17.04A1.575,1.575,0,0,0,47.1,14.82Z"/></g></svg>