<svg xmlns="http://www.w3.org/2000/svg" viewBox="0 0 65 65"><defs><style>.a{fill:#f02e36;}.b{fill:#fff;}.c{fill:none;}</style></defs><circle class="a" cx="32.5" cy="32.5" r="32.5"/><path class="b" d="M25.61,16.91v1a9,9,0,0,1,6.21,2.51,1.017,1.017,0,0,0,1.38,0,9,9,0,0,1,6.21-2.51,8.89,8.89,0,0,1,6.47,2.8,10,10,0,0,1,0,13.7c-.15.16-11.68,12.17-11.8,12.3a2.129,2.129,0,0,1-3.12,0S20.3,35.6,19.16,34.41a9.986,9.986,0,0,1,0-13.69,8.89,8.89,0,0,1,6.47-2.8l-.02-1.01m13.79,0a9.987,9.987,0,0,0-6.89,2.78,10.028,10.028,0,0,0-6.9-2.78,9.907,9.907,0,0,0-7.19,3.11,10.975,10.975,0,0,0,0,15.08c1.14,1.19,11.8,12.3,11.8,12.3a3.144,3.144,0,0,0,4.58,0S46.47,35.24,46.6,35.1a10.975,10.975,0,0,0,0-15.08,9.984,9.984,0,0,0-7.2-3.11Z"/><path class="c" d="M25.29,22.54h0a4.663,4.663,0,0,0-4.54,4.78"/></svg>