<svg xmlns="http://www.w3.org/2000/svg" viewBox="0 0 64.999 64.999"><defs><style>.a{fill:#f02e36;}.b{fill:none;}.c{fill:#fff;}</style></defs><g transform="translate(0 0)"><circle class="a" cx="32.5" cy="32.5" r="32.5" transform="translate(0 0)"/><path class="b" d="M39.31,42.62a13.212,13.212,0,0,0,1.97-4.86H23.72a13.212,13.212,0,0,0,1.97,4.86Z"/><path class="c" d="M32.5,24.14a8,8,0,0,1,3.43.89c.08,3.1,2.21,8.28,4.58,11.08A12.008,12.008,0,0,1,32.5,46.67a12.008,12.008,0,0,1-8.01-10.56c2.37-2.8,4.5-7.99,4.58-11.08a8,8,0,0,1,3.43-.89m0-1a8.9,8.9,0,0,0-4.44,1.32c.23,2.65-2.02,8.52-4.6,11.32A12.879,12.879,0,0,0,32.5,47.71a12.9,12.9,0,0,0,9.04-11.93c-2.58-2.8-4.82-8.67-4.6-11.32a9.011,9.011,0,0,0-4.44-1.32Z"/><path class="b" d="M37.73,28.82H27.27a24.384,24.384,0,0,1-2.26,4.86H39.99A24.956,24.956,0,0,1,37.73,28.82Z"/><path class="c" d="M42.03,22.3c3.25,0,7.25.76,9.24,2.16A7.512,7.512,0,1,1,42.6,36.73c-3.39-2.39-6.72-11.33-5.36-13.26.56-.79,2.49-1.17,4.79-1.17m-19.06,0c2.3,0,4.23.38,4.79,1.18,1.36,1.92-1.97,10.87-5.36,13.26a7.512,7.512,0,1,1-8.67-12.27c1.99-1.41,5.99-2.17,9.24-2.17m19.06-1c-2.04,0-4.67.28-5.61,1.6-1.22,1.73.14,5.75.79,7.39,1.31,3.34,3.11,6.05,4.82,7.26a8.515,8.515,0,0,0,9.81-13.92c-2.29-1.61-6.58-2.33-9.81-2.33Zm-19.06,0c-3.24,0-7.53.72-9.81,2.34a8.52,8.52,0,0,0,4.91,15.48,8.446,8.446,0,0,0,4.9-1.56c3.39-2.39,7.48-11.99,5.6-14.65-.92-1.33-3.55-1.61-5.6-1.61Z"/><path class="c" d="M32.5,49.03l-3.22-3.35h6.44Z"/><path class="c" d="M32.5,15.1a5.917,5.917,0,0,1,5.89,5.44,3.433,3.433,0,0,0-1.97,1.19c-.03.04-.05.08-.08.12a9.764,9.764,0,0,0-3.84-.87,9.731,9.731,0,0,0-3.84.87.834.834,0,0,0-.08-.12,3.468,3.468,0,0,0-1.97-1.19A5.917,5.917,0,0,1,32.5,15.1m0-1a6.905,6.905,0,0,0-6.91,6.91c0,.11.01.22.02.33a3.457,3.457,0,0,1,2.16.97,2,2,0,0,1,.29.98,9.038,9.038,0,0,1,4.44-1.32,8.9,8.9,0,0,1,4.44,1.32,2.106,2.106,0,0,1,.29-.98,3.457,3.457,0,0,1,2.16-.97c.01-.11.02-.22.02-.33A6.905,6.905,0,0,0,32.5,14.1Z"/></g></svg>