<svg xmlns="http://www.w3.org/2000/svg" viewBox="0 0 64.999 64.999"><defs><style>.a{fill:#f02e36;}.b{fill:#fff;}.c{fill:none;stroke:#fff;stroke-miterlimit:10;}</style></defs><g transform="translate(0 0)"><circle class="a" cx="32.5" cy="32.5" r="32.5" transform="translate(0 0)"/><path class="b" d="M32.5,12.03a3.73,3.73,0,1,1-3.73,3.73,3.73,3.73,0,0,1,3.73-3.73m0-1a4.73,4.73,0,1,0,4.73,4.73,4.733,4.733,0,0,0-4.73-4.73Z"/><path class="b" d="M36.19,21.43a3.793,3.793,0,0,1,3,3.71v.43H25.81v-.43a3.793,3.793,0,0,1,3-3.71,6.739,6.739,0,0,0,7.38,0m-.25-1.05a5.72,5.72,0,0,1-6.88,0,4.787,4.787,0,0,0-4.24,4.76v1.43H40.2V25.14a4.812,4.812,0,0,0-4.26-4.76Z"/><path class="b" d="M46.92,33.9a3.73,3.73,0,1,1-3.73,3.73,3.73,3.73,0,0,1,3.73-3.73m0-1a4.73,4.73,0,1,0,4.73,4.73,4.733,4.733,0,0,0-4.73-4.73Z"/><path class="b" d="M50.6,43.3a3.793,3.793,0,0,1,3,3.71v.43H40.23v-.43a3.793,3.793,0,0,1,3-3.71,6.722,6.722,0,0,0,7.37,0m-.24-1.05a5.72,5.72,0,0,1-6.88,0,4.787,4.787,0,0,0-4.24,4.76v1.43H54.62V47.01a4.812,4.812,0,0,0-4.26-4.76Z"/><path class="b" d="M18.18,33.9a3.73,3.73,0,1,1-3.73,3.73,3.73,3.73,0,0,1,3.73-3.73m0-1a4.73,4.73,0,1,0,4.73,4.73,4.733,4.733,0,0,0-4.73-4.73Z"/><path class="b" d="M14.49,43.3a6.739,6.739,0,0,0,7.38,0,3.793,3.793,0,0,1,3,3.71v.43H11.49v-.43a3.783,3.783,0,0,1,3-3.71m7.13-1.05a5.72,5.72,0,0,1-6.88,0,4.787,4.787,0,0,0-4.24,4.76v1.43H25.88V47.01a4.82,4.82,0,0,0-4.26-4.76Z"/><path class="b" d="M11.62,26.82a.939.939,0,0,1,.94.94v4.2c0,.51-.51.61-.94.61h-1v1.4l-.8-1.02-.3-.38H5.16c-.43,0-.94-.11-.94-.61v-4.2a.939.939,0,0,1,.94-.94h6.46m0-1H5.16a1.942,1.942,0,0,0-1.94,1.94v4.2c0,1.07.87,1.61,1.94,1.61H9.03l2.58,3.29V33.57c1.07,0,1.94-.54,1.94-1.61v-4.2a1.927,1.927,0,0,0-1.93-1.94Z"/><path class="b" d="M56.31,26.82c2.08,0,3.77,1.42,3.77,3.17s-1.69,3.17-3.77,3.17H56l-.26.18-1.48,1.03.07-1.07.04-.56-.46-.32a3,3,0,0,1-1.36-2.44c-.01-1.74,1.68-3.16,3.76-3.16m0-1c-2.63,0-4.77,1.87-4.77,4.17a4.007,4.007,0,0,0,1.79,3.26l-.21,3.14,3.19-2.23c2.63,0,4.77-1.87,4.77-4.17s-2.14-4.17-4.77-4.17Z"/><circle class="c" cx="2.11" cy="2.11" r="2.11" transform="translate(30.39 34.12)"/><line class="c" y1="4.88" transform="translate(32.5 29.24)"/><line class="c" x1="4.24" y2="2.45" transform="translate(26.44 37.28)"/><line class="c" x2="4.24" y2="2.45" transform="translate(34.32 37.28)"/><path class="b" d="M26.19,8.64v5.75H24.14v1.4l-.8-1.01-.3-.38H17.85V8.64h8.34m.12-1H17.73a.881.881,0,0,0-.88.88v6.32a.548.548,0,0,0,.55.55h5.15l2.58,3.29V15.39H26.3a.881.881,0,0,0,.88-.88V8.52a.867.867,0,0,0-.87-.88Z"/></g></svg>