<svg xmlns="http://www.w3.org/2000/svg" viewBox="0 0 65 65"><defs><style>.a{fill:#f02e36;}.b{fill:#fff;}</style></defs><circle class="a" cx="32.5" cy="32.5" r="32.5"/><rect class="b" width="6.96" height="3.12" transform="translate(13.39 19.5)"/><path class="b" d="M16.87,48.87l-3.48-6.5h6.96Z"/><path class="b" d="M19.35,24.92V40.19H14.39V24.92h4.96m1-1H13.39V41.19h6.96V23.92Z"/><path class="b" d="M39.41,19.49A12.144,12.144,0,0,1,50.06,37.48l-.21.38.14.41,1.97,5.91-5.91-1.97-.41-.14-.38.21a12.145,12.145,0,1,1-5.85-22.79m0-1a13.15,13.15,0,1,0,6.32,24.68l7.81,2.6-2.6-7.81A13.148,13.148,0,0,0,39.41,18.49Z"/></svg>