<svg xmlns="http://www.w3.org/2000/svg" viewBox="0 0 65 65"><defs><style>.a{fill:#f02e36;}.b{fill:#fff;}</style></defs><circle class="a" cx="32.5" cy="32.5" r="32.5"/><path class="b" d="M49.68,12.39a.188.188,0,0,1,.08.02.158.158,0,0,1,.07.07,37.824,37.824,0,0,1,2.83,7.23,62.668,62.668,0,0,1,1.6,7.3,33.634,33.634,0,0,1,.52,7.22,18.623,18.623,0,0,1-.56,3.52,13.28,13.28,0,0,1-1.16,2.98H46.28a13.593,13.593,0,0,1-1.16-2.97,18.075,18.075,0,0,1-.56-3.53,34.145,34.145,0,0,1,.52-7.21,61.739,61.739,0,0,1,1.59-7.3,37.713,37.713,0,0,1,2.84-7.24.208.208,0,0,1,.17-.09m0-1a1.168,1.168,0,0,0-1.04.62,38.721,38.721,0,0,0-2.91,7.43,61.709,61.709,0,0,0-1.62,7.43,34.438,34.438,0,0,0-.53,7.43,19.993,19.993,0,0,0,.59,3.72,13.392,13.392,0,0,0,1.55,3.72h7.92a13.392,13.392,0,0,0,1.55-3.72,19.2,19.2,0,0,0,.59-3.72,35.084,35.084,0,0,0-.53-7.43,61.71,61.71,0,0,0-1.62-7.43,38.722,38.722,0,0,0-2.91-7.43,1.23,1.23,0,0,0-.48-.48,1.135,1.135,0,0,0-.56-.14Z"/><path class="b" d="M52.86,44.28a10.308,10.308,0,0,1-1.23,7.69c-1.2,1.76-4.39,3.65-8.58,3.65a14.693,14.693,0,0,1-4.5-.72,5.015,5.015,0,0,0,3.88-4.39c.33-1.91.74-4.28,3.66-6.24h6.77m.78-.99H45.79a9.149,9.149,0,0,0-4.35,7.07c-.6,3.47-3.08,3.68-6.28,4.22a16.911,16.911,0,0,0,7.89,2.06c4.57,0,8.06-2.11,9.4-4.09,2.81-4.13,1.19-9.26,1.19-9.26Z"/><path class="b" d="M23.51,19.51,34.92,42.6H12.1L23.51,19.51m0-2.26L10.49,43.6H36.54L23.51,17.25Z"/><path class="b" d="M39.5,8.31l2.65,4.59L39.5,17.49H34.2L31.55,12.9,34.2,8.31h5.3m.58-1H33.63L30.4,12.9l3.23,5.59h6.45l3.23-5.59L40.08,7.31Z"/></svg>