<svg id="Layer_1" data-name="Layer 1" xmlns="http://www.w3.org/2000/svg" width="14" height="22" viewBox="0 0 14 22"><defs><style>.cls-1{fill:#fff;}</style></defs><title>TutorHere locationicon_search bar</title><g id="AI_mappointer" data-name="AI mappointer"><path id="AI_mappointer-2" data-name="AI mappointer-2" class="cls-1" d="M7,1a6.14,6.14,0,0,1,6,6.27,6.12,6.12,0,0,1-.73,2.9L7.8,20.43A.91.91,0,0,1,7,21a.94.94,0,0,1-.83-.57L1.67,10.17A6.92,6.92,0,0,1,1,7.27,6.14,6.14,0,0,1,7,1H7m0,9.73a4,4,0,0,0,.76-.08,3.51,3.51,0,1,0-.76.08M7,0H7A7.15,7.15,0,0,0,0,7.27,7.81,7.81,0,0,0,.77,10.6L5.22,20.83a1.89,1.89,0,0,0,3.5,0l4.45-10.22A7.19,7.19,0,0,0,14,7.26,7.14,7.14,0,0,0,7,0ZM7,9.73A2.5,2.5,0,0,1,5.23,5.46,2.53,2.53,0,0,1,7,4.73a2.5,2.5,0,0,1,.54,4.94A2.57,2.57,0,0,1,7,9.73Z"/></g></svg>