<svg xmlns="http://www.w3.org/2000/svg" viewBox="0 0 767.5 314"><defs><style>.a,.c,.e,.g,.i,.j,.k{fill:none;}.a,.b{stroke:#e5e5e5;}.a,.b,.g,.i,.j,.k{stroke-miterlimit:10;}.b{fill:#4c8fdf;}.d{fill:#fff;}.e,.g{stroke:#000;}.e,.i,.j{stroke-linecap:round;}.e{stroke-linejoin:round;}.f{fill:#00b0cd;}.h{fill:#e34447;}.i,.k{stroke:#e34447;}.j{stroke:#fff;}</style></defs><g transform="translate(-1.47 -0.5)"><rect class="a" width="108" height="26.99" rx="4" transform="translate(537.47 27.99)"/><rect class="a" width="35" height="35" transform="translate(1.97 64.5)"/><rect class="a" width="35" height="35" transform="translate(41.13 64.5)"/><rect class="a" width="35" height="35" transform="translate(80.3 64.5)"/><rect class="a" width="35" height="35" transform="translate(119.47 64.5)"/><rect class="a" width="35" height="35" transform="translate(158.63 64.5)"/><rect class="b" width="35" height="35" transform="translate(197.8 64.5)"/><rect class="a" width="35" height="35" transform="translate(236.97 64.5)"/><rect class="a" width="35" height="35" transform="translate(1.97 105.5)"/><rect class="a" width="35" height="35" transform="translate(41.13 105.5)"/><rect class="a" width="35" height="35" transform="translate(80.3 105.5)"/><rect class="a" width="35" height="35" transform="translate(119.47 105.5)"/><rect class="a" width="35" height="35" transform="translate(158.63 105.5)"/><rect class="b" width="35" height="35" transform="translate(197.8 105.5)"/><rect class="a" width="35" height="35" transform="translate(236.97 105.5)"/><rect class="a" width="35" height="35" transform="translate(1.97 146.5)"/><rect class="a" width="35" height="35" transform="translate(41.13 146.5)"/><rect class="a" width="35" height="35" transform="translate(80.3 146.5)"/><rect class="a" width="35" height="35" transform="translate(119.47 146.5)"/><rect class="a" width="35" height="35" transform="translate(158.63 146.5)"/><rect class="b" width="35" height="35" transform="translate(197.8 146.5)"/><rect class="a" width="35" height="35" transform="translate(236.97 146.5)"/><rect class="a" width="35" height="35" transform="translate(1.97 187.5)"/><rect class="a" width="35" height="35" transform="translate(41.13 187.5)"/><rect class="a" width="35" height="35" transform="translate(80.3 187.5)"/><rect class="a" width="35" height="35" transform="translate(119.47 187.5)"/><rect class="a" width="35" height="35" transform="translate(158.63 187.5)"/><rect class="b" width="35" height="35" transform="translate(197.8 187.5)"/><rect class="a" width="35" height="35" transform="translate(236.97 187.5)"/><rect class="a" width="35" height="35" transform="translate(1.97 228.5)"/><rect class="a" width="35" height="35" transform="translate(41.13 228.5)"/><rect class="a" width="35" height="35" transform="translate(80.3 228.5)"/><rect class="a" width="35" height="35" transform="translate(119.47 228.5)"/><rect class="a" width="35" height="35" transform="translate(158.63 228.5)"/><rect class="a" width="35" height="35" transform="translate(197.8 228.5)"/><rect class="a" width="35" height="35" transform="translate(236.97 228.5)"/><path d="M94.26,15.13A3.33,3.33,0,0,1,93.08,14a3.08,3.08,0,0,1-.44-1.6.425.425,0,1,1,.85,0,2.26,2.26,0,0,0,.32,1.19,2.62,2.62,0,0,0,.88.87,2.37,2.37,0,0,0,2.38,0,2.53,2.53,0,0,0,.87-.88,2.35,2.35,0,0,0,.32-1.18V4.91a.41.41,0,0,1,.12-.3.44.44,0,0,1,.3-.12.41.41,0,0,1,.42.42v7.44A3.23,3.23,0,0,1,98.67,14a3.31,3.31,0,0,1-1.18,1.17,3.18,3.18,0,0,1-3.23,0Z"/><path d="M107.11,8.2a3.76,3.76,0,0,1,1.4,1.4,4,4,0,0,1,.52,2V15a.41.41,0,0,1-.12.3.38.38,0,0,1-.3.12.41.41,0,0,1-.31-.12.4.4,0,0,1-.11-.3V13.92a3.24,3.24,0,0,1-1.27,1.16,3.74,3.74,0,0,1-1.8.43,3.94,3.94,0,0,1-2-.51,3.67,3.67,0,0,1-1.41-1.41,3.92,3.92,0,0,1-.51-2,4,4,0,0,1,.51-2,3.72,3.72,0,0,1,1.41-1.4,4.16,4.16,0,0,1,4,0Zm-.42,6.12a3,3,0,0,0,1.1-1.12,3.26,3.26,0,0,0,.4-1.59,3.3,3.3,0,0,0-.4-1.6,3.06,3.06,0,0,0-1.1-1.13,3.21,3.21,0,0,0-3.14,0,2.91,2.91,0,0,0-1.1,1.13,3.307,3.307,0,0,0,0,3.19,2.82,2.82,0,0,0,1.1,1.12,3.21,3.21,0,0,0,3.14,0Z"/><path d="M116.31,8.09a3,3,0,0,1,1.26,1.23,3.74,3.74,0,0,1,.46,1.92V15a.41.41,0,0,1-.42.42.39.39,0,0,1-.3-.12.41.41,0,0,1-.12-.3V11.24a2.64,2.64,0,0,0-.75-2,2.74,2.74,0,0,0-2-.7,3.17,3.17,0,0,0-1.35.29,2.43,2.43,0,0,0-1,.8,2,2,0,0,0-.35,1.12V15a.4.4,0,0,1-.11.3.39.39,0,0,1-.31.12A.41.41,0,0,1,111,15V8.19a.41.41,0,0,1,.12-.31.44.44,0,0,1,.3-.11.42.42,0,0,1,.31.11.41.41,0,0,1,.11.31v.73A3.4,3.4,0,0,1,113,8a3.36,3.36,0,0,1,1.49-.33,3.86,3.86,0,0,1,1.82.42Z"/><path d="M127.06,7.88a.45.45,0,0,1,.11.31V15a.44.44,0,0,1-.11.3.425.425,0,0,1-.73-.3v-.73a3.35,3.35,0,0,1-2.66,1.25,3.92,3.92,0,0,1-1.83-.42,3,3,0,0,1-1.26-1.23,3.89,3.89,0,0,1-.45-1.92V8.19a.42.42,0,1,1,.84,0V12a2.66,2.66,0,0,0,.75,2,2.76,2.76,0,0,0,2,.7,3.17,3.17,0,0,0,1.28-.3,2.3,2.3,0,0,0,1-.8,2,2,0,0,0,.35-1.13V8.19a.41.41,0,0,1,.12-.31.44.44,0,0,1,.3-.11.45.45,0,0,1,.29.11Z"/><path d="M135,8.2a3.76,3.76,0,0,1,1.4,1.4,4,4,0,0,1,.52,2V15a.41.41,0,0,1-.12.3.38.38,0,0,1-.3.12.41.41,0,0,1-.31-.12.4.4,0,0,1-.11-.3V13.92a3.31,3.31,0,0,1-1.27,1.16,3.74,3.74,0,0,1-1.8.43,3.94,3.94,0,0,1-2-.51,3.67,3.67,0,0,1-1.41-1.41,3.92,3.92,0,0,1-.51-2,4,4,0,0,1,.51-2,3.72,3.72,0,0,1,1.41-1.4,4.16,4.16,0,0,1,4,0Zm-.42,6.12a2.86,2.86,0,0,0,1.09-1.12,3.16,3.16,0,0,0,.41-1.59,3.2,3.2,0,0,0-.41-1.6,3,3,0,0,0-1.09-1.13,3.21,3.21,0,0,0-3.14,0,2.91,2.91,0,0,0-1.1,1.13,3.307,3.307,0,0,0,0,3.19,2.82,2.82,0,0,0,1.1,1.12,3.21,3.21,0,0,0,3.14,0Z"/><path d="M143.23,8.15a.36.36,0,0,1,0,.11.43.43,0,0,1-.13.22.44.44,0,0,1-.25.06h-.67a2.53,2.53,0,0,0-1.24.3,2.1,2.1,0,0,0-.86.81,2.26,2.26,0,0,0-.31,1.16V15a.4.4,0,0,1-.42.42.41.41,0,0,1-.42-.42V8.19a.41.41,0,0,1,.12-.31.44.44,0,0,1,.3-.11.43.43,0,0,1,.31.11.41.41,0,0,1,.11.31v.87a3,3,0,0,1,1-1,2.72,2.72,0,0,1,1.37-.36C142.87,7.69,143.23,7.84,143.23,8.15Z"/><path d="M151.26,8.11a.881.881,0,0,1,0,.19L146.5,18.49c-.08.17-.19.26-.32.26a.58.58,0,0,1-.2-.05.35.35,0,0,1-.26-.32.76.76,0,0,1,.05-.19l1.4-3v-.1L144.1,8.37a.44.44,0,0,1-.05-.22.35.35,0,0,1,.23-.32.49.49,0,0,1,.23-.06.34.34,0,0,1,.32.24l2.84,6.22L150.48,8a.38.38,0,0,1,.32-.25.71.71,0,0,1,.2,0A.37.37,0,0,1,151.26,8.11Z"/><path d="M156.4,15.31a.42.42,0,0,1-.13-.3.48.48,0,0,1,.13-.31l4.42-5.26a2.43,2.43,0,0,0,.5-.8,2.23,2.23,0,0,0,.2-.9,2.51,2.51,0,0,0-.3-1.22,2.22,2.22,0,0,0-.82-.87,2.13,2.13,0,0,0-1.14-.32,2.16,2.16,0,0,0-1.15.32,2.22,2.22,0,0,0-.82.87,2.51,2.51,0,0,0-.3,1.22.41.41,0,0,1-.42.42.43.43,0,0,1-.31-.12.42.42,0,0,1-.13-.3,3.4,3.4,0,0,1,.41-1.66,2.93,2.93,0,0,1,1.12-1.17,3.173,3.173,0,0,1,3.19,0A2.93,2.93,0,0,1,162,6.08a3.4,3.4,0,0,1,.41,1.66,2.84,2.84,0,0,1-.26,1.2,4.77,4.77,0,0,1-.74,1.11l-3.85,4.52h4.71a.42.42,0,0,1,.3.13.43.43,0,0,1,.12.31.41.41,0,0,1-.42.42h-5.53A.43.43,0,0,1,156.4,15.31Z"/><path d="M165.35,14.77a4.16,4.16,0,0,1-1.12-1.89,10.139,10.139,0,0,1-.38-2.94A10.121,10.121,0,0,1,164.23,7a4.16,4.16,0,0,1,1.12-1.89,2.51,2.51,0,0,1,1.76-.67,2.48,2.48,0,0,1,1.76.67A4.15,4.15,0,0,1,170,7a10.14,10.14,0,0,1,.38,2.92,8,8,0,0,1-.85,4,2.67,2.67,0,0,1-2.41,1.46,2.55,2.55,0,0,1-1.77-.61Zm3.56-1.45a8,8,0,0,0,.61-3.38,7.8,7.8,0,0,0-.62-3.37,1.9,1.9,0,0,0-3.58,0,7.8,7.8,0,0,0-.62,3.37,7.8,7.8,0,0,0,.61,3.38,1.91,1.91,0,0,0,3.6,0Z"/><path d="M173.68,15.31a.38.38,0,0,1-.13-.3V5.5l-1.67.55a.39.39,0,0,1-.18,0,.41.41,0,0,1-.42-.42.4.4,0,0,1,.27-.41l2.14-.71.29-.07a.41.41,0,0,1,.31.12.44.44,0,0,1,.11.3V15a.44.44,0,0,1-.11.3.462.462,0,0,1-.61.01Z"/><path d="M182.4,9.41l-.1.17-3.43,5.61a.45.45,0,0,1-.39.24.4.4,0,0,1-.31-.13A.41.41,0,0,1,178,15a.64.64,0,0,1,.07-.24l2.41-3.89a3.42,3.42,0,0,1-2.63-.29,3.08,3.08,0,0,1-1.17-1.18,3.44,3.44,0,0,1,0-3.33,3.06,3.06,0,0,1,1.17-1.17,3.22,3.22,0,0,1,1.67-.43,3.27,3.27,0,0,1,1.67.43,3,3,0,0,1,1.17,1.17,3.21,3.21,0,0,1,.43,1.66,3.22,3.22,0,0,1-.39,1.58h0Zm-5-.42a2.5,2.5,0,0,0,3.36.88,2.4,2.4,0,0,0,.88-.88A2.43,2.43,0,0,0,182,7.74a2.37,2.37,0,0,0-.33-1.24,2.3,2.3,0,0,0-.88-.87,2.39,2.39,0,0,0-1.24-.32,2.42,2.42,0,0,0-2.12,1.19,2.46,2.46,0,0,0-.32,1.24A2.53,2.53,0,0,0,177.44,9Z"/><path d="M98.46,87.31a.41.41,0,0,1-.12-.3V77.5l-1.67.55a.42.42,0,0,1-.18,0,.41.41,0,0,1-.42-.42.4.4,0,0,1,.26-.41l2.15-.71a1.45,1.45,0,0,1,.29-.07.41.41,0,0,1,.42.42V87a.41.41,0,0,1-.42.42.45.45,0,0,1-.31-.11Z"/><path class="c" d="M59.13,87.31A.42.42,0,0,1,59,87V77.5l-1.66.55a.45.45,0,0,1-.18,0,.41.41,0,0,1-.31-.12.44.44,0,0,1-.11-.3.39.39,0,0,1,.26-.41l2.14-.71a1.639,1.639,0,0,1,.3-.07.41.41,0,0,1,.42.42V87a.41.41,0,0,1-.42.42.43.43,0,0,1-.31-.11Z"/><path class="c" d="M19.8,87.31a.38.38,0,0,1-.13-.3V77.5L18,78.05a.39.39,0,0,1-.18,0,.41.41,0,0,1-.42-.42.4.4,0,0,1,.27-.41l2.14-.71.29-.07a.41.41,0,0,1,.31.12.44.44,0,0,1,.11.3V87a.44.44,0,0,1-.11.3.462.462,0,0,1-.61.01Z"/><path d="M134.16,87.31A.42.42,0,0,1,134,87a.48.48,0,0,1,.13-.31l4.42-5.26a2.43,2.43,0,0,0,.5-.8,2.23,2.23,0,0,0,.2-.9,2.51,2.51,0,0,0-.3-1.22,2.22,2.22,0,0,0-.82-.87,2.13,2.13,0,0,0-1.14-.32,2.16,2.16,0,0,0-1.15.32,2.22,2.22,0,0,0-.82.87,2.51,2.51,0,0,0-.3,1.22.41.41,0,0,1-.42.42A.43.43,0,0,1,134,80a.42.42,0,0,1-.13-.3,3.4,3.4,0,0,1,.41-1.66,2.93,2.93,0,0,1,1.12-1.17,3.17,3.17,0,0,1,3.19,0,2.93,2.93,0,0,1,1.12,1.17,3.4,3.4,0,0,1,.41,1.66,2.84,2.84,0,0,1-.26,1.2,4.77,4.77,0,0,1-.74,1.11l-3.85,4.52H140a.42.42,0,0,1,.3.13.43.43,0,0,1,.12.31.41.41,0,0,1-.42.42h-5.53a.43.43,0,0,1-.31-.08Z"/><path d="M174.38,87.13A3,3,0,0,1,173.19,86a3.17,3.17,0,0,1-.44-1.64.48.48,0,0,1,.12-.33.44.44,0,0,1,.32-.13.42.42,0,0,1,.31.13.52.52,0,0,1,.11.33,2.24,2.24,0,0,0,.32,1.21,2.3,2.3,0,0,0,.89.86,2.77,2.77,0,0,0,3.07-.35,2.29,2.29,0,0,0,.67-1.7,2.44,2.44,0,0,0-.32-1.28,2.26,2.26,0,0,0-.87-.84,2.7,2.7,0,0,0-1.24-.29.42.42,0,0,1,0-.84,1.89,1.89,0,0,0,1-.27,1.82,1.82,0,0,0,.71-.72,2,2,0,0,0,.26-1,1.88,1.88,0,0,0-.54-1.39,2,2,0,0,0-1.46-.54,2.2,2.2,0,0,0-1.53.52A1.67,1.67,0,0,0,174,79a.41.41,0,0,1-.12.3.45.45,0,0,1-.31.12.4.4,0,0,1-.42-.42,2.45,2.45,0,0,1,.38-1.36,2.62,2.62,0,0,1,1.05-1,3.36,3.36,0,0,1,1.54-.35,2.81,2.81,0,0,1,1.44.37,2.65,2.65,0,0,1,1,1,2.61,2.61,0,0,1,.38,1.4,2.37,2.37,0,0,1-.48,1.35,2.79,2.79,0,0,1-1.18,1,2.65,2.65,0,0,1,1.58,1.07,3.07,3.07,0,0,1,.56,1.8A3.17,3.17,0,0,1,179,86a3.13,3.13,0,0,1-1.2,1.14,3.53,3.53,0,0,1-1.72.42,3.38,3.38,0,0,1-1.7-.43Z"/><path class="d" d="M218.89,84.35a.36.36,0,0,1-.13.24.4.4,0,0,1-.29.12h-1.29V87a.42.42,0,0,1-.84,0V84.7h-5.25a.4.4,0,0,1-.31-.13.45.45,0,0,1-.13-.3.32.32,0,0,1,.09-.24l5.67-7.39a.55.55,0,0,1,.14-.13.44.44,0,0,1,.21,0,.38.38,0,0,1,.3.13.41.41,0,0,1,.12.3v7h1.29Q218.89,84,218.89,84.35ZM211.82,84h4.52V78.1Z"/><path d="M252.28,87A3.32,3.32,0,0,1,251,85.69a3.55,3.55,0,0,1-.47-1.8.41.41,0,0,1,.12-.31.38.38,0,0,1,.3-.13.4.4,0,0,1,.31.13.39.39,0,0,1,.13.31,2.66,2.66,0,0,0,.35,1.37,2.46,2.46,0,0,0,1,1,2.88,2.88,0,0,0,2.75,0,2.46,2.46,0,0,0,1-1,2.88,2.88,0,0,0,0-2.75,2.55,2.55,0,0,0-1-1,2.67,2.67,0,0,0-1.37-.36h-2.55a.41.41,0,0,1-.42-.42V76.9a.41.41,0,0,1,.42-.42h5.09a.43.43,0,0,1,.31.12.38.38,0,0,1,.13.3.42.42,0,0,1-.13.31.43.43,0,0,1-.31.12H252v3h2.13a3.55,3.55,0,0,1,1.8.47,3.32,3.32,0,0,1,1.28,1.27,3.77,3.77,0,0,1,0,3.61A3.42,3.42,0,0,1,255.89,87,3.77,3.77,0,0,1,252.28,87Z"/><path d="M100.82,123a3.07,3.07,0,0,1,.49,1.7,3.41,3.41,0,0,1-.43,1.72A3.24,3.24,0,0,1,98,128a3.33,3.33,0,0,1-1.69-.44,3.24,3.24,0,0,1-1.18-1.2,3.33,3.33,0,0,1-.43-1.7,3.12,3.12,0,0,1,.49-1.73,3,3,0,0,1,1.31-1.15,2.6,2.6,0,0,1-.85-1,2.71,2.71,0,0,1-.31-1.3,2.57,2.57,0,0,1,.35-1.31,2.52,2.52,0,0,1,1-.92,2.87,2.87,0,0,1,1.37-.34,2.74,2.74,0,0,1,1.34.33,2.56,2.56,0,0,1,.94.91,2.6,2.6,0,0,1,.34,1.3,2.79,2.79,0,0,1-.32,1.31,2.65,2.65,0,0,1-.84,1,3,3,0,0,1,1.3,1.24Zm-.7.48a2.27,2.27,0,0,0-.87-.87,2.45,2.45,0,0,0-1.23-.32,2.37,2.37,0,0,0-1.24.33,2.21,2.21,0,0,0-.86.88,2.58,2.58,0,0,0-.32,1.27,2.69,2.69,0,0,0,.32,1.3,2.35,2.35,0,0,0,2.1,1.25,2.23,2.23,0,0,0,1.23-.34,2.39,2.39,0,0,0,.87-.94,2.79,2.79,0,0,0,.31-1.32,2.43,2.43,0,0,0-.31-1.29Zm-3.43-2.5a1.83,1.83,0,0,0,1.33.53,1.8,1.8,0,0,0,1.32-.55,1.93,1.93,0,0,0,.53-1.38,1.67,1.67,0,0,0-.53-1.25,1.89,1.89,0,0,0-1.32-.5,1.82,1.82,0,0,0-1.33.52,1.72,1.72,0,0,0-.53,1.28,1.86,1.86,0,0,0,.53,1.3Z"/><path d="M56.76,127.81a.38.38,0,0,1-.13-.3.89.89,0,0,1,.1-.3l4.3-9.38H55.8a.41.41,0,0,1-.3-.12.42.42,0,0,1-.13-.31.38.38,0,0,1,.13-.3.41.41,0,0,1,.3-.12h6a.41.41,0,0,1,.31.12.44.44,0,0,1,.11.3.76.76,0,0,1-.07.24l-4.64,10a.55.55,0,0,1-.16.18.48.48,0,0,1-.24.07.41.41,0,0,1-.35-.08Z"/><path d="M21.16,121.82A3,3,0,0,1,22.33,123a3.28,3.28,0,0,1,.43,1.68,3.21,3.21,0,0,1-.43,1.66,3,3,0,0,1-1.17,1.17,3.21,3.21,0,0,1-1.66.43,3.28,3.28,0,0,1-1.68-.43,3,3,0,0,1-1.17-1.17,3.21,3.21,0,0,1-.43-1.66,3.28,3.28,0,0,1,.39-1.59h0v-.08l.1-.17,3.43-5.61a.45.45,0,0,1,.39-.24.4.4,0,0,1,.31.13.41.41,0,0,1,.13.29.75.75,0,0,1-.07.24l-2.41,3.89a3.57,3.57,0,0,1,2.67.28Zm-.43,5a2.47,2.47,0,0,0,.88-.88,2.42,2.42,0,0,0,.32-1.23,2.5,2.5,0,0,0-.32-1.25,2.4,2.4,0,0,0-.88-.88,2.33,2.33,0,0,0-1.23-.32,2.4,2.4,0,0,0-1.25.32,2.32,2.32,0,0,0-.88.88,2.41,2.41,0,0,0-.33,1.25,2.34,2.34,0,0,0,.33,1.23,2.4,2.4,0,0,0,.88.88,2.5,2.5,0,0,0,1.25.32,2.42,2.42,0,0,0,1.23-.36Z"/><path d="M139.71,121.91l-.1.17-3.43,5.61a.45.45,0,0,1-.39.24.42.42,0,0,1-.31-.13.4.4,0,0,1-.12-.29.49.49,0,0,1,.07-.24l2.4-3.89a3.42,3.42,0,0,1-2.63-.29,3.16,3.16,0,0,1-1.17-1.18,3.51,3.51,0,0,1,0-3.33,3.13,3.13,0,0,1,1.17-1.17,3.46,3.46,0,0,1,3.34,0,3.08,3.08,0,0,1,1.18,1.17,3.3,3.3,0,0,1,.42,1.66,3.22,3.22,0,0,1-.39,1.58h0Zm-5-.42a2.5,2.5,0,0,0,3.36.88,2.42,2.42,0,0,0,.89-.88,2.53,2.53,0,0,0,.32-1.25A2.46,2.46,0,0,0,139,119a2.32,2.32,0,0,0-.89-.87,2.425,2.425,0,0,0-3.68,2.11,2.53,2.53,0,0,0,.32,1.25Z"/><path d="M172.57,127.81a.41.41,0,0,1-.12-.3V118l-1.67.55a.45.45,0,0,1-.18,0,.41.41,0,0,1-.42-.42.4.4,0,0,1,.26-.41l2.15-.71a1.449,1.449,0,0,1,.29-.07.41.41,0,0,1,.42.42v10.11a.41.41,0,0,1-.42.42.45.45,0,0,1-.31-.08Z"/><path d="M176.76,127.27a4.16,4.16,0,0,1-1.12-1.89,11.52,11.52,0,0,1,0-5.87,4.16,4.16,0,0,1,1.12-1.89,2.66,2.66,0,0,1,3.53,0,4.22,4.22,0,0,1,1.11,1.9,10.139,10.139,0,0,1,.38,2.92,8,8,0,0,1-.85,4,2.67,2.67,0,0,1-2.41,1.46,2.55,2.55,0,0,1-1.76-.63Zm3.56-1.45a9.57,9.57,0,0,0,0-6.75,1.9,1.9,0,0,0-3.58,0,7.8,7.8,0,0,0-.62,3.37,8,8,0,0,0,.61,3.38,1.91,1.91,0,0,0,3.6,0Z"/><path class="d" d="M213,127.81a.38.38,0,0,1-.13-.3V118l-1.66.55a.46.46,0,0,1-.19,0,.41.41,0,0,1-.42-.42.4.4,0,0,1,.27-.41l2.14-.71a1.64,1.64,0,0,1,.3-.07.41.41,0,0,1,.42.42v10.11a.467.467,0,0,1-.73.34Z"/><path class="d" d="M218,127.81a.38.38,0,0,1-.13-.3V118l-1.66.55a.46.46,0,0,1-.19,0,.41.41,0,0,1-.42-.42.4.4,0,0,1,.27-.41l2.14-.71a1.64,1.64,0,0,1,.3-.07.41.41,0,0,1,.42.42v10.11a.41.41,0,0,1-.42.42.43.43,0,0,1-.31-.08Z"/><path d="M250.5,127.81a.41.41,0,0,1-.12-.3V118l-1.67.55a.45.45,0,0,1-.18,0,.39.39,0,0,1-.3-.12.41.41,0,0,1-.12-.3.4.4,0,0,1,.26-.41l2.15-.71a1.45,1.45,0,0,1,.29-.07.41.41,0,0,1,.42.42v10.11a.41.41,0,0,1-.42.42.43.43,0,0,1-.31-.08Z"/><path d="M253.66,127.81a.41.41,0,0,1-.12-.3.47.47,0,0,1,.12-.31l4.43-5.26a2.61,2.61,0,0,0,.5-.8,2.41,2.41,0,0,0,.2-.9,2.51,2.51,0,0,0-.3-1.22,2.29,2.29,0,0,0-.82-.87,2.23,2.23,0,0,0-2.3,0,2.29,2.29,0,0,0-.82.87,2.51,2.51,0,0,0-.3,1.22.42.42,0,0,1-.72.3.38.38,0,0,1-.13-.3,3.4,3.4,0,0,1,.4-1.66,3.1,3.1,0,0,1,5.44,0,3.4,3.4,0,0,1,.4,1.66,2.7,2.7,0,0,1-.26,1.2,4.71,4.71,0,0,1-.73,1.11l-3.85,4.52h4.7a.42.42,0,0,1,.3.13.43.43,0,0,1,.12.31.41.41,0,0,1-.42.42H254a.45.45,0,0,1-.34-.12Z"/><path d="M94.15,168.31A.41.41,0,0,1,94,168v-9.5l-1.67.55a.45.45,0,0,1-.18,0,.41.41,0,0,1-.42-.42.4.4,0,0,1,.26-.41l2.15-.71a1.45,1.45,0,0,1,.29-.07.41.41,0,0,1,.42.42V168a.41.41,0,0,1-.42.42.45.45,0,0,1-.28-.11Z"/><path d="M98.79,168a3.35,3.35,0,0,1-1.28-1.28,3.55,3.55,0,0,1-.46-1.8.41.41,0,0,1,.12-.31.38.38,0,0,1,.3-.13.43.43,0,0,1,.43.44,2.76,2.76,0,0,0,.35,1.37,2.55,2.55,0,0,0,1,1,2.86,2.86,0,0,0,2.74,0,2.49,2.49,0,0,0,1-1,2.88,2.88,0,0,0,0-2.75,2.58,2.58,0,0,0-1-1,2.64,2.64,0,0,0-1.37-.36H98a.41.41,0,0,1-.42-.42V157.9a.41.41,0,0,1,.42-.42h5.1a.45.45,0,0,1,.31.12.425.425,0,0,1-.31.73H98.46v3h2.13a3.59,3.59,0,0,1,1.81.47,3.3,3.3,0,0,1,1.27,1.27,3.77,3.77,0,0,1,0,3.61A3.39,3.39,0,0,1,102.4,168a3.69,3.69,0,0,1-1.81.46A3.65,3.65,0,0,1,98.79,168Z"/><path d="M54.7,168.31a.42.42,0,0,1-.13-.3V158.5l-1.66.55a.46.46,0,0,1-.19,0,.41.41,0,0,1-.42-.42.4.4,0,0,1,.27-.41l2.14-.71a1.64,1.64,0,0,1,.3-.07.41.41,0,0,1,.42.42V168a.41.41,0,0,1-.42.42.43.43,0,0,1-.31-.11Z"/><path d="M65.06,165.35a.32.32,0,0,1-.13.24.4.4,0,0,1-.29.12H63.35V168a.42.42,0,0,1-.84,0v-2.3H57.26a.42.42,0,0,1-.31-.13.44.44,0,0,1-.12-.3.32.32,0,0,1,.08-.24l5.67-7.39a.58.58,0,0,1,.15-.13.4.4,0,0,1,.2,0,.38.38,0,0,1,.3.13.41.41,0,0,1,.12.3V165h1.29Q65.06,165,65.06,165.35ZM58,165h4.52v-5.9Z"/><path d="M15.83,168.31a.41.41,0,0,1-.12-.3V158.5l-1.67.55a.39.39,0,0,1-.18,0,.41.41,0,0,1-.42-.42.4.4,0,0,1,.27-.41l2.14-.71.29-.07a.41.41,0,0,1,.42.42V168a.41.41,0,0,1-.42.42.45.45,0,0,1-.31-.11Z"/><path d="M20.22,168.13A3,3,0,0,1,19,167a3.17,3.17,0,0,1-.44-1.64.48.48,0,0,1,.12-.33.44.44,0,0,1,.32-.13.38.38,0,0,1,.3.13.48.48,0,0,1,.12.33,2.24,2.24,0,0,0,.32,1.21,2.3,2.3,0,0,0,.89.86,2.77,2.77,0,0,0,3.07-.35,2.29,2.29,0,0,0,.67-1.7,2.53,2.53,0,0,0-.32-1.28,2.26,2.26,0,0,0-.87-.84,2.7,2.7,0,0,0-1.24-.29.38.38,0,0,1-.3-.12.44.44,0,0,1,0-.6.38.38,0,0,1,.3-.12,1.981,1.981,0,0,0,1.96-2,1.88,1.88,0,0,0-.54-1.39,2,2,0,0,0-1.47-.54,2.19,2.19,0,0,0-1.52.52,1.67,1.67,0,0,0-.59,1.31.38.38,0,0,1-.13.3.41.41,0,0,1-.3.12A.4.4,0,0,1,19,160a2.53,2.53,0,0,1,.37-1.36,2.71,2.71,0,0,1,1.06-1,3.32,3.32,0,0,1,1.53-.35,2.82,2.82,0,0,1,1.45.37,2.65,2.65,0,0,1,1,1,2.7,2.7,0,0,1,.38,1.4,2.37,2.37,0,0,1-.48,1.35,2.81,2.81,0,0,1-1.19,1,2.67,2.67,0,0,1,1.59,1.07,3.07,3.07,0,0,1,.56,1.8,3.17,3.17,0,0,1-.44,1.64,3.13,3.13,0,0,1-1.2,1.14,3.56,3.56,0,0,1-1.72.42,3.38,3.38,0,0,1-1.69-.35Z"/><path d="M133.49,168.31a.41.41,0,0,1-.12-.3V158.5l-1.67.55a.39.39,0,0,1-.18,0,.41.41,0,0,1-.42-.42.4.4,0,0,1,.27-.41l2.14-.71.29-.07a.41.41,0,0,1,.42.42V168a.41.41,0,0,1-.42.42.45.45,0,0,1-.31-.11Z"/><path d="M141.33,162.32a3,3,0,0,1,1.17,1.17,3.28,3.28,0,0,1,.43,1.68,3.21,3.21,0,0,1-.43,1.66,3,3,0,0,1-1.17,1.17,3.44,3.44,0,0,1-3.33,0,3,3,0,0,1-1.18-1.17,3.21,3.21,0,0,1-.43-1.66,3.28,3.28,0,0,1,.39-1.59h0l.06-.08.09-.17,3.43-5.61a.47.47,0,0,1,.4-.24.38.38,0,0,1,.3.13.37.37,0,0,1,.13.29.56.56,0,0,1-.07.24L138.7,162a3.292,3.292,0,0,1,2.63.32Zm-.42,5a2.37,2.37,0,0,0,.87-.88,2.33,2.33,0,0,0,.32-1.23,2.4,2.4,0,0,0-.32-1.25,2.3,2.3,0,0,0-.87-.88,2.58,2.58,0,0,0-2.49,0,2.32,2.32,0,0,0-.88.88,2.5,2.5,0,0,0-.32,1.25,2.4,2.4,0,0,0,1.2,2.11,2.58,2.58,0,0,0,2.49,0Z"/><path d="M172.45,168.31a.41.41,0,0,1-.12-.3V158.5l-1.67.55a.45.45,0,0,1-.18,0,.41.41,0,0,1-.42-.42.4.4,0,0,1,.26-.41l2.15-.71a1.449,1.449,0,0,1,.29-.07.41.41,0,0,1,.42.42V168a.41.41,0,0,1-.42.42.45.45,0,0,1-.31-.11Z"/><path d="M176.6,168.31a.38.38,0,0,1-.13-.3.89.89,0,0,1,.1-.3l4.3-9.38h-5.23a.41.41,0,0,1-.3-.12.42.42,0,0,1-.13-.31.38.38,0,0,1,.13-.3.41.41,0,0,1,.3-.12h6a.39.39,0,0,1,.3.12.41.41,0,0,1,.12.3.76.76,0,0,1-.07.24l-4.64,10a.48.48,0,0,1-.17.18.45.45,0,0,1-.23.07.41.41,0,0,1-.35-.08Z"/><path class="d" d="M211.33,168.31a.38.38,0,0,1-.13-.3V158.5l-1.67.55a.39.39,0,0,1-.18,0,.41.41,0,0,1-.42-.42.4.4,0,0,1,.27-.41l2.14-.71.29-.07a.41.41,0,0,1,.31.12.44.44,0,0,1,.11.3V168a.44.44,0,0,1-.11.3.462.462,0,0,1-.61.01Z"/><path class="d" d="M220.33,163.45a3.15,3.15,0,0,1,.49,1.7,3.41,3.41,0,0,1-.44,1.72,3.12,3.12,0,0,1-1.18,1.21,3.19,3.19,0,0,1-1.67.45,3.3,3.3,0,0,1-1.69-.44,3.16,3.16,0,0,1-1.18-1.2,3.34,3.34,0,0,1-.44-1.7,3.2,3.2,0,0,1,.49-1.73,3,3,0,0,1,1.32-1.15,2.51,2.51,0,0,1-.85-.95,2.71,2.71,0,0,1-.31-1.3,2.47,2.47,0,0,1,.35-1.31,2.43,2.43,0,0,1,1-.92,2.88,2.88,0,0,1,1.38-.34,2.68,2.68,0,0,1,1.33.33,2.46,2.46,0,0,1,1.28,2.21,2.78,2.78,0,0,1-.31,1.31,2.58,2.58,0,0,1-.85,1,3,3,0,0,1,1.28,1.11Zm-.71.48a2.27,2.27,0,0,0-.87-.87,2.41,2.41,0,0,0-1.22-.32,2.37,2.37,0,0,0-1.24.33,2.3,2.3,0,0,0-.87.88,2.57,2.57,0,0,0-.31,1.27,2.69,2.69,0,0,0,.31,1.3,2.38,2.38,0,0,0,.87.91,2.29,2.29,0,0,0,1.24.34,2.23,2.23,0,0,0,1.23-.34,2.44,2.44,0,0,0,.86-.94,2.8,2.8,0,0,0,.32-1.32A2.44,2.44,0,0,0,219.62,163.93Zm-3.42-2.5a1.82,1.82,0,0,0,1.33.53,1.77,1.77,0,0,0,1.31-.55,1.9,1.9,0,0,0,.54-1.38,1.64,1.64,0,0,0-.54-1.25,1.84,1.84,0,0,0-1.31-.5,1.81,1.81,0,0,0-1.33.52,1.68,1.68,0,0,0-.53,1.28A1.82,1.82,0,0,0,216.2,161.43Z"/><path d="M250.49,168.31a.41.41,0,0,1-.12-.3V158.5l-1.67.55a.39.39,0,0,1-.18,0,.41.41,0,0,1-.42-.42.4.4,0,0,1,.27-.41l2.14-.71.29-.07a.41.41,0,0,1,.42.42V168a.41.41,0,0,1-.42.42.45.45,0,0,1-.31-.11Z"/><path d="M259.22,162.41l-.1.17-3.43,5.61a.46.46,0,0,1-.39.24.39.39,0,0,1-.31-.13.37.37,0,0,1-.13-.29.49.49,0,0,1,.07-.24l2.41-3.89a3.5,3.5,0,0,1-2.66-.29,3,3,0,0,1-1.17-1.18,3.44,3.44,0,0,1,0-3.33,3,3,0,0,1,1.17-1.17,3.21,3.21,0,0,1,1.66-.43,3.28,3.28,0,0,1,1.68.43,3,3,0,0,1,1.17,1.17,3.41,3.41,0,0,1,0,3.24h0Zm-5-.42a2.45,2.45,0,0,0,.87.88,2.58,2.58,0,0,0,2.49,0,2.4,2.4,0,0,0,.88-.88,2.43,2.43,0,0,0,.32-1.25,2.36,2.36,0,0,0-.32-1.24,2.3,2.3,0,0,0-.88-.87,2.58,2.58,0,0,0-2.49,0,2.38,2.38,0,0,0-1.19,2.11,2.43,2.43,0,0,0,.36,1.26Z"/><path d="M91.2,208.81a.38.38,0,0,1-.13-.3.43.43,0,0,1,.13-.31l4.42-5.26a2.61,2.61,0,0,0,.5-.8,2.41,2.41,0,0,0,.2-.9A2.51,2.51,0,0,0,96,200a2.22,2.22,0,0,0-.82-.87,2.16,2.16,0,0,0-1.15-.32,2.13,2.13,0,0,0-1.14.32,2.22,2.22,0,0,0-.82.87,2.51,2.51,0,0,0-.3,1.22.431.431,0,0,1-.73.3.38.38,0,0,1-.13-.3,3.4,3.4,0,0,1,.41-1.66,3.1,3.1,0,0,1,5.43,0,3.4,3.4,0,0,1,.41,1.66,2.84,2.84,0,0,1-.26,1.2,5.1,5.1,0,0,1-.74,1.11l-3.85,4.52H97a.42.42,0,0,1,.3.13.43.43,0,0,1,.12.31.41.41,0,0,1-.42.42H91.51A.41.41,0,0,1,91.2,208.81Z"/><path d="M99.12,208.81a.41.41,0,0,1-.12-.3.47.47,0,0,1,.12-.31l4.42-5.26a2.43,2.43,0,0,0,.5-.8,2.25,2.25,0,0,0,.21-.9,2.51,2.51,0,0,0-.31-1.22,2.22,2.22,0,0,0-.82-.87,2.13,2.13,0,0,0-1.14-.32,2.16,2.16,0,0,0-1.15.32,2.22,2.22,0,0,0-.82.87,2.51,2.51,0,0,0-.3,1.22.41.41,0,0,1-.42.42.45.45,0,0,1-.31-.12.41.41,0,0,1-.12-.3,3.4,3.4,0,0,1,.4-1.66,3.13,3.13,0,0,1,5.45.02,3.4,3.4,0,0,1,.41,1.66,2.84,2.84,0,0,1-.26,1.2,5,5,0,0,1-.73,1.11l-3.85,4.52H105a.42.42,0,0,1,.3.13.43.43,0,0,1,.12.31.41.41,0,0,1-.42.42H99.43a.45.45,0,0,1-.31-.14Z"/><path d="M53.32,208.81a.42.42,0,0,1-.13-.3.48.48,0,0,1,.13-.31l4.42-5.26a2.43,2.43,0,0,0,.5-.8,2.23,2.23,0,0,0,.2-.9,2.51,2.51,0,0,0-.3-1.22,2.22,2.22,0,0,0-.82-.87,2.13,2.13,0,0,0-1.14-.32,2.16,2.16,0,0,0-1.15.32,2.22,2.22,0,0,0-.82.87,2.51,2.51,0,0,0-.3,1.22.41.41,0,0,1-.42.42.43.43,0,0,1-.31-.12.42.42,0,0,1-.13-.3,3.4,3.4,0,0,1,.41-1.66,2.93,2.93,0,0,1,1.12-1.17,3.173,3.173,0,0,1,3.19,0,2.93,2.93,0,0,1,1.12,1.17,3.4,3.4,0,0,1,.41,1.66,2.84,2.84,0,0,1-.26,1.2,4.77,4.77,0,0,1-.74,1.11l-3.85,4.52h4.71a.42.42,0,0,1,.3.13.43.43,0,0,1,.12.31.41.41,0,0,1-.42.42H53.63a.43.43,0,0,1-.31-.12Z"/><path d="M63.09,208.81a.41.41,0,0,1-.12-.3V199l-1.67.55a.45.45,0,0,1-.18,0,.41.41,0,0,1-.42-.42.4.4,0,0,1,.26-.41l2.15-.71a1.449,1.449,0,0,1,.29-.07.41.41,0,0,1,.42.42v10.11a.41.41,0,0,1-.42.42.45.45,0,0,1-.31-.08Z"/><path d="M12.6,208.81a.42.42,0,0,1-.13-.3.48.48,0,0,1,.13-.31l4.4-5.26a2.43,2.43,0,0,0,.5-.8,2.23,2.23,0,0,0,.2-.9,2.51,2.51,0,0,0-.3-1.22,2.22,2.22,0,0,0-.82-.87,2.13,2.13,0,0,0-1.14-.32,2.16,2.16,0,0,0-1.15.32,2.22,2.22,0,0,0-.82.87,2.51,2.51,0,0,0-.3,1.22.41.41,0,0,1-.42.42.43.43,0,0,1-.31-.12.42.42,0,0,1-.13-.3,3.4,3.4,0,0,1,.41-1.66,2.93,2.93,0,0,1,1.12-1.17,3.173,3.173,0,0,1,3.19,0,2.93,2.93,0,0,1,1.12,1.17,3.4,3.4,0,0,1,.41,1.66,2.84,2.84,0,0,1-.26,1.2,4.77,4.77,0,0,1-.74,1.11l-3.85,4.52h4.71a.42.42,0,0,1,.3.13.43.43,0,0,1,.12.31.41.41,0,0,1-.42.42H12.91a.43.43,0,0,1-.31-.12Z"/><path d="M21.55,208.27a4.16,4.16,0,0,1-1.12-1.89,11.52,11.52,0,0,1,0-5.87,4.16,4.16,0,0,1,1.12-1.89,2.51,2.51,0,0,1,1.76-.67,2.48,2.48,0,0,1,1.76.67,4.15,4.15,0,0,1,1.12,1.9,10.14,10.14,0,0,1,.38,2.92,8,8,0,0,1-.85,4,2.67,2.67,0,0,1-2.41,1.46,2.55,2.55,0,0,1-1.76-.63Zm3.56-1.45a9.57,9.57,0,0,0,0-6.75,1.9,1.9,0,0,0-3.58,0,7.8,7.8,0,0,0-.62,3.37,8,8,0,0,0,.61,3.38,1.91,1.91,0,0,0,3.6,0Z"/><path d="M130.2,208.81a.38.38,0,0,1-.13-.3.43.43,0,0,1,.13-.31l4.42-5.26a2.61,2.61,0,0,0,.5-.8,2.41,2.41,0,0,0,.2-.9A2.51,2.51,0,0,0,135,200a2.22,2.22,0,0,0-.82-.87,2.16,2.16,0,0,0-1.15-.32,2.13,2.13,0,0,0-1.14.32,2.22,2.22,0,0,0-.82.87,2.51,2.51,0,0,0-.3,1.22.431.431,0,0,1-.73.3.38.38,0,0,1-.13-.3,3.4,3.4,0,0,1,.41-1.66,3.1,3.1,0,0,1,5.43,0,3.4,3.4,0,0,1,.41,1.66,2.84,2.84,0,0,1-.26,1.2,5.1,5.1,0,0,1-.74,1.11l-3.85,4.52H136a.42.42,0,0,1,.3.13.43.43,0,0,1,.12.31.41.41,0,0,1-.42.42h-5.53a.41.41,0,0,1-.27-.1Z"/><path d="M139.34,208.63a3.08,3.08,0,0,1-1.19-1.16,3.17,3.17,0,0,1-.44-1.64.48.48,0,0,1,.12-.33.44.44,0,0,1,.32-.13.42.42,0,0,1,.31.13.52.52,0,0,1,.11.33,2.33,2.33,0,0,0,.32,1.21,2.37,2.37,0,0,0,.89.86,2.77,2.77,0,0,0,3.07-.35,2.3,2.3,0,0,0,.68-1.7,2.44,2.44,0,0,0-.33-1.28,2.2,2.2,0,0,0-.87-.84,2.67,2.67,0,0,0-1.24-.29.42.42,0,0,1,0-.84,1.86,1.86,0,0,0,1-.27,1.82,1.82,0,0,0,.71-.72,2,2,0,0,0,.26-1,1.88,1.88,0,0,0-.54-1.39,2,2,0,0,0-1.46-.54,2.2,2.2,0,0,0-1.53.52,1.67,1.67,0,0,0-.59,1.31.41.41,0,0,1-.12.3.45.45,0,0,1-.31.12.41.41,0,0,1-.31-.12.44.44,0,0,1-.11-.3,2.53,2.53,0,0,1,.38-1.36,2.62,2.62,0,0,1,1-1,3.39,3.39,0,0,1,1.54-.35,2.87,2.87,0,0,1,1.45.37,2.79,2.79,0,0,1,1,1,2.69,2.69,0,0,1,.37,1.4,2.37,2.37,0,0,1-.48,1.35,2.79,2.79,0,0,1-1.18,1,2.62,2.62,0,0,1,1.58,1.07,3.07,3.07,0,0,1,.56,1.8,3.26,3.26,0,0,1-.43,1.64,3.16,3.16,0,0,1-1.21,1.14,3.53,3.53,0,0,1-1.72.42A3.38,3.38,0,0,1,139.34,208.63Z"/><path d="M168.73,208.81a.38.38,0,0,1-.13-.3.43.43,0,0,1,.13-.31l4.42-5.26a2.61,2.61,0,0,0,.5-.8,2.23,2.23,0,0,0,.2-.9,2.51,2.51,0,0,0-.3-1.22,2.22,2.22,0,0,0-.82-.87,2.16,2.16,0,0,0-1.15-.32,2.13,2.13,0,0,0-1.14.32,2.22,2.22,0,0,0-.82.87,2.51,2.51,0,0,0-.3,1.22.41.41,0,0,1-.42.42.43.43,0,0,1-.31-.12.38.38,0,0,1-.13-.3,3.4,3.4,0,0,1,.41-1.66,2.93,2.93,0,0,1,1.12-1.17,3.173,3.173,0,0,1,3.19,0,2.93,2.93,0,0,1,1.12,1.17,3.4,3.4,0,0,1,.41,1.66,2.84,2.84,0,0,1-.26,1.2,5.1,5.1,0,0,1-.74,1.11l-3.85,4.52h4.71a.42.42,0,0,1,.3.13.43.43,0,0,1,.12.31.41.41,0,0,1-.42.42H169A.43.43,0,0,1,168.73,208.81Z"/><path d="M183.85,205.85a.32.32,0,0,1-.13.24.4.4,0,0,1-.29.12h-1.29v2.3a.42.42,0,0,1-.84,0v-2.3h-5.25a.42.42,0,0,1-.31-.13.44.44,0,0,1-.12-.3.32.32,0,0,1,.08-.24l5.67-7.39a.581.581,0,0,1,.15-.13.4.4,0,0,1,.2,0,.38.38,0,0,1,.3.13.41.41,0,0,1,.12.3v7.05h1.29Q183.85,205.46,183.85,205.85Zm-7.07-.39h4.52V199.6Z"/><path class="d" d="M207.85,208.81a.38.38,0,0,1-.13-.3.43.43,0,0,1,.13-.31l4.42-5.26a2.61,2.61,0,0,0,.5-.8,2.41,2.41,0,0,0,.2-.9,2.51,2.51,0,0,0-.3-1.22,2.22,2.22,0,0,0-.82-.87,2.16,2.16,0,0,0-1.15-.32,2.19,2.19,0,0,0-1.15.32,2.27,2.27,0,0,0-.81.87,2.51,2.51,0,0,0-.3,1.22.431.431,0,0,1-.73.3.38.38,0,0,1-.13-.3,3.4,3.4,0,0,1,.41-1.66,2.93,2.93,0,0,1,1.12-1.17,3.173,3.173,0,0,1,3.19,0,2.93,2.93,0,0,1,1.12,1.17,3.4,3.4,0,0,1,.41,1.66,2.84,2.84,0,0,1-.26,1.2,5.1,5.1,0,0,1-.74,1.11L209,208.07h4.71a.42.42,0,0,1,.3.13.43.43,0,0,1,.12.31.41.41,0,0,1-.42.42h-5.53a.41.41,0,0,1-.33-.12Z"/><path class="d" d="M217.24,208.47a3.39,3.39,0,0,1-1.27-1.28,3.55,3.55,0,0,1-.46-1.8.41.41,0,0,1,.11-.31.39.39,0,0,1,.31-.13.38.38,0,0,1,.3.13.39.39,0,0,1,.13.31,2.76,2.76,0,0,0,.35,1.37,2.42,2.42,0,0,0,1,1,2.86,2.86,0,0,0,2.74,0,2.46,2.46,0,0,0,1-1,2.81,2.81,0,0,0,0-2.75,2.55,2.55,0,0,0-1-1,2.67,2.67,0,0,0-1.37-.36H216.5a.41.41,0,0,1-.42-.42V198.4a.41.41,0,0,1,.42-.42h5.1a.41.41,0,0,1,.3.12.38.38,0,0,1,.13.3.42.42,0,0,1-.13.31.41.41,0,0,1-.3.12h-4.68v3h2.13a3.55,3.55,0,0,1,1.8.47,3.32,3.32,0,0,1,1.28,1.27,3.77,3.77,0,0,1,0,3.61,3.42,3.42,0,0,1-1.28,1.28,3.77,3.77,0,0,1-3.61,0Z"/><path d="M247.19,208.81a.42.42,0,0,1-.13-.3.48.48,0,0,1,.13-.31l4.42-5.26a2.43,2.43,0,0,0,.5-.8,2.23,2.23,0,0,0,.2-.9A2.51,2.51,0,0,0,252,200a2.22,2.22,0,0,0-.82-.87,2.13,2.13,0,0,0-1.14-.32,2.16,2.16,0,0,0-1.15.32,2.22,2.22,0,0,0-.82.87,2.51,2.51,0,0,0-.3,1.22.41.41,0,0,1-.42.42.43.43,0,0,1-.31-.12.42.42,0,0,1-.13-.3,3.4,3.4,0,0,1,.41-1.66,2.93,2.93,0,0,1,1.12-1.17,3.173,3.173,0,0,1,3.19,0,2.93,2.93,0,0,1,1.12,1.17,3.4,3.4,0,0,1,.41,1.66,2.84,2.84,0,0,1-.26,1.2,4.77,4.77,0,0,1-.74,1.11l-3.85,4.52H253a.42.42,0,0,1,.3.13.43.43,0,0,1,.12.31.41.41,0,0,1-.42.42h-5.5a.43.43,0,0,1-.31-.1Z"/><path d="M259.79,202.82A3.06,3.06,0,0,1,261,204a3.39,3.39,0,0,1,.43,1.68,3.31,3.31,0,0,1-.43,1.66,3.06,3.06,0,0,1-1.17,1.17,3.46,3.46,0,0,1-3.34,0,3,3,0,0,1-1.17-1.17,3.21,3.21,0,0,1-.43-1.66,3.28,3.28,0,0,1,.39-1.59h0l.05-.08.1-.17,3.43-5.61a.45.45,0,0,1,.39-.24.4.4,0,0,1,.31.13.41.41,0,0,1,.13.29.75.75,0,0,1-.07.24l-2.41,3.89a3.42,3.42,0,0,1,2.63.29Zm-.43,5a2.47,2.47,0,0,0,.88-.88,2.42,2.42,0,0,0,.32-1.23,2.5,2.5,0,0,0-.32-1.25,2.4,2.4,0,0,0-.88-.88,2.36,2.36,0,0,0-1.24-.32,2.39,2.39,0,0,0-1.24.32,2.26,2.26,0,0,0-.88.88,2.472,2.472,0,0,0,.88,3.36,2.49,2.49,0,0,0,1.24.32,2.46,2.46,0,0,0,1.24-.36Z"/><path d="M91.19,249.31a.42.42,0,0,1-.13-.3.48.48,0,0,1,.13-.31l4.42-5.26a2.43,2.43,0,0,0,.5-.8,2.23,2.23,0,0,0,.2-.9,2.51,2.51,0,0,0-.3-1.22,2.22,2.22,0,0,0-.82-.87,2.13,2.13,0,0,0-1.14-.32,2.16,2.16,0,0,0-1.15.32,2.22,2.22,0,0,0-.82.87,2.51,2.51,0,0,0-.3,1.22.41.41,0,0,1-.42.42.43.43,0,0,1-.31-.12.42.42,0,0,1-.13-.3,3.4,3.4,0,0,1,.41-1.66,2.93,2.93,0,0,1,1.12-1.17,3.173,3.173,0,0,1,3.19,0,2.93,2.93,0,0,1,1.12,1.17,3.4,3.4,0,0,1,.41,1.66,2.84,2.84,0,0,1-.26,1.2,4.771,4.771,0,0,1-.74,1.11l-3.85,4.52H97a.42.42,0,0,1,.3.13.43.43,0,0,1,.12.31.41.41,0,0,1-.42.42H91.5a.43.43,0,0,1-.31-.12Z"/><path d="M104.67,243.41l-.1.17-3.43,5.61a.45.45,0,0,1-.39.24.42.42,0,0,1-.31-.13.4.4,0,0,1-.12-.29.49.49,0,0,1,.07-.24l2.41-3.89a3.289,3.289,0,0,1-1,.14,3.25,3.25,0,0,1-1.67-.43A3.06,3.06,0,0,1,99,243.41a3.44,3.44,0,0,1,0-3.33,3,3,0,0,1,1.16-1.17,3.46,3.46,0,0,1,3.34,0,3.08,3.08,0,0,1,1.18,1.17,3.31,3.31,0,0,1,.43,1.66,3.22,3.22,0,0,1-.4,1.58h0Zm-5-.42a2.37,2.37,0,0,0,.87.88,2.46,2.46,0,0,0,1.24.32,2.53,2.53,0,0,0,1.25-.32A2.47,2.47,0,0,0,104,243a2.53,2.53,0,0,0,.32-1.25,2.46,2.46,0,0,0-.32-1.24,2.37,2.37,0,0,0-.88-.87,2.43,2.43,0,0,0-1.25-.32,2.36,2.36,0,0,0-1.24.32,2.27,2.27,0,0,0-.87.87,2.37,2.37,0,0,0-.33,1.24,2.43,2.43,0,0,0,.29,1.25Z"/><path d="M51.69,249.31a.38.38,0,0,1-.13-.3.43.43,0,0,1,.13-.31l4.42-5.26a2.61,2.61,0,0,0,.5-.8,2.23,2.23,0,0,0,.2-.9,2.51,2.51,0,0,0-.3-1.22,2.22,2.22,0,0,0-.82-.87,2.16,2.16,0,0,0-1.15-.32,2.13,2.13,0,0,0-1.14.32,2.22,2.22,0,0,0-.82.87,2.51,2.51,0,0,0-.3,1.22.41.41,0,0,1-.42.42.43.43,0,0,1-.31-.12.38.38,0,0,1-.13-.3,3.4,3.4,0,0,1,.41-1.66A2.93,2.93,0,0,1,53,238.91a3.17,3.17,0,0,1,3.19,0,2.93,2.93,0,0,1,1.12,1.17,3.4,3.4,0,0,1,.41,1.66,2.84,2.84,0,0,1-.26,1.2,4.77,4.77,0,0,1-.74,1.11l-3.85,4.52h4.71a.42.42,0,0,1,.3.13.43.43,0,0,1,.12.3.41.41,0,0,1-.42.42H52a.43.43,0,0,1-.31-.11Z"/><path d="M65.45,244.45a3.07,3.07,0,0,1,.49,1.7,3.41,3.41,0,0,1-.43,1.72,3.27,3.27,0,0,1-2.86,1.66,3.33,3.33,0,0,1-1.69-.44,3.16,3.16,0,0,1-1.18-1.2,3.33,3.33,0,0,1-.43-1.7,3.12,3.12,0,0,1,.49-1.73,2.92,2.92,0,0,1,1.31-1.15,2.51,2.51,0,0,1-.85-.95,2.71,2.71,0,0,1-.31-1.3,2.57,2.57,0,0,1,.35-1.31,2.46,2.46,0,0,1,1-.92,2.84,2.84,0,0,1,1.37-.34,2.74,2.74,0,0,1,1.34.33,2.54,2.54,0,0,1,.93.91,2.51,2.51,0,0,1,.35,1.3,2.79,2.79,0,0,1-.32,1.31,2.58,2.58,0,0,1-.85,1,3,3,0,0,1,1.29,1.11Zm-.71.48a2.32,2.32,0,0,0-.86-.87,2.45,2.45,0,0,0-1.23-.32,2.37,2.37,0,0,0-1.24.33,2.3,2.3,0,0,0-.87.88,2.57,2.57,0,0,0-.31,1.27,2.69,2.69,0,0,0,.31,1.3,2.38,2.38,0,0,0,.87.91,2.29,2.29,0,0,0,1.24.34,2.23,2.23,0,0,0,1.23-.34,2.37,2.37,0,0,0,.86-.94,2.8,2.8,0,0,0,.32-1.32A2.44,2.44,0,0,0,64.74,244.93Zm-3.42-2.5a1.83,1.83,0,0,0,1.33.53,1.8,1.8,0,0,0,1.32-.55A1.93,1.93,0,0,0,64.5,241a1.67,1.67,0,0,0-.53-1.25,1.89,1.89,0,0,0-1.32-.5,1.82,1.82,0,0,0-1.33.52,1.72,1.72,0,0,0-.53,1.28,1.86,1.86,0,0,0,.53,1.38Z"/><path d="M12.48,249.31a.41.41,0,0,1-.12-.3.47.47,0,0,1,.12-.31l4.43-5.26a2.59,2.59,0,0,0,.49-.8,2.25,2.25,0,0,0,.21-.9,2.51,2.51,0,0,0-.31-1.22,2.27,2.27,0,0,0-.81-.87,2.19,2.19,0,0,0-1.15-.32,2.16,2.16,0,0,0-1.15.32,2.22,2.22,0,0,0-.82.87,2.51,2.51,0,0,0-.3,1.22.41.41,0,0,1-.42.42.45.45,0,0,1-.31-.12.41.41,0,0,1-.12-.3,3.4,3.4,0,0,1,.4-1.66,3.1,3.1,0,0,1,5.43,0,3.4,3.4,0,0,1,.41,1.66,2.84,2.84,0,0,1-.26,1.2,5,5,0,0,1-.73,1.11l-3.85,4.52h4.7a.42.42,0,0,1,.3.13.43.43,0,0,1,.12.31.41.41,0,0,1-.42.42H12.79a.45.45,0,0,1-.31-.12Z"/><path d="M21.38,249.31a.41.41,0,0,1-.12-.3.89.89,0,0,1,.1-.3l4.3-9.38H20.43a.431.431,0,0,1-.31-.73.45.45,0,0,1,.31-.12h5.95a.41.41,0,0,1,.42.42.76.76,0,0,1-.07.24l-4.65,10a.46.46,0,0,1-.16.18.44.44,0,0,1-.54-.05Z"/><path d="M131.49,249.13a3,3,0,0,1-1.2-1.16,3.26,3.26,0,0,1-.43-1.64A.48.48,0,0,1,130,246a.42.42,0,0,1,.31-.13.39.39,0,0,1,.31.13.47.47,0,0,1,.11.33,2.24,2.24,0,0,0,.33,1.21,2.3,2.3,0,0,0,.89.86,2.77,2.77,0,0,0,3.07-.35,2.29,2.29,0,0,0,.67-1.7,2.53,2.53,0,0,0-.32-1.28,2.29,2.29,0,0,0-.88-.84,2.63,2.63,0,0,0-1.23-.29.41.41,0,0,1-.31-.12.46.46,0,0,1,0-.6.41.41,0,0,1,.31-.12,1.982,1.982,0,0,0,1.96-2,1.88,1.88,0,0,0-.54-1.39,2,2,0,0,0-1.47-.54,2.19,2.19,0,0,0-1.52.52,1.67,1.67,0,0,0-.59,1.31.38.38,0,0,1-.13.3.41.41,0,0,1-.3.12.39.39,0,0,1-.31-.12.41.41,0,0,1-.12-.3,2.53,2.53,0,0,1,.38-1.36,2.71,2.71,0,0,1,1.06-1,3.32,3.32,0,0,1,1.53-.35,2.85,2.85,0,0,1,1.45.37,2.65,2.65,0,0,1,1,1,2.7,2.7,0,0,1,.38,1.4,2.37,2.37,0,0,1-.48,1.35,2.81,2.81,0,0,1-1.19,1,2.62,2.62,0,0,1,1.58,1.07,3,3,0,0,1,.57,1.8,3.17,3.17,0,0,1-.44,1.64,3.13,3.13,0,0,1-1.2,1.14,3.56,3.56,0,0,1-1.72.42,3.38,3.38,0,0,1-1.67-.35Z"/><path d="M139.22,248.77a4.16,4.16,0,0,1-1.12-1.89,11.24,11.24,0,0,1,0-5.87,4.16,4.16,0,0,1,1.12-1.89,2.51,2.51,0,0,1,1.76-.67,2.48,2.48,0,0,1,1.76.67,4.05,4.05,0,0,1,1.11,1.9,9.79,9.79,0,0,1,.39,2.92,8,8,0,0,1-.86,4,2.65,2.65,0,0,1-2.4,1.46,2.55,2.55,0,0,1-1.76-.63Zm3.56-1.45a8,8,0,0,0,.6-3.38,7.81,7.81,0,0,0-.61-3.37,1.9,1.9,0,0,0-3.58,0,7.65,7.65,0,0,0-.62,3.37,7.8,7.8,0,0,0,.61,3.38,1.91,1.91,0,0,0,3.6,0Z"/><path d="M171.87,249.13a3.08,3.08,0,0,1-1.19-1.16,3.16,3.16,0,0,1-.43-1.64.48.48,0,0,1,.12-.33.43.43,0,0,1,.62,0,.52.52,0,0,1,.11.33,2.33,2.33,0,0,0,.32,1.21,2.37,2.37,0,0,0,.89.86,2.51,2.51,0,0,0,1.24.31,2.47,2.47,0,0,0,1.83-.66,2.3,2.3,0,0,0,.68-1.7,2.44,2.44,0,0,0-.33-1.28,2.2,2.2,0,0,0-.87-.84,2.67,2.67,0,0,0-1.24-.29.42.42,0,0,1,0-.84,1.92,1.92,0,0,0,1-.27,1.86,1.86,0,0,0,.7-.72,2,2,0,0,0,.26-1,1.88,1.88,0,0,0-.54-1.39,2,2,0,0,0-1.46-.54,2.22,2.22,0,0,0-1.53.52,1.67,1.67,0,0,0-.59,1.31.41.41,0,0,1-.12.3.45.45,0,0,1-.31.12.41.41,0,0,1-.31-.12.44.44,0,0,1-.11-.3,2.53,2.53,0,0,1,.38-1.36,2.58,2.58,0,0,1,1.06-1,3.32,3.32,0,0,1,1.53-.35,2.87,2.87,0,0,1,1.45.37,2.79,2.79,0,0,1,1,1,2.7,2.7,0,0,1,.38,1.4,2.38,2.38,0,0,1-.49,1.35,2.73,2.73,0,0,1-1.18,1,2.62,2.62,0,0,1,1.58,1.07,3.07,3.07,0,0,1,.56,1.8,3.16,3.16,0,0,1-.43,1.64,3.09,3.09,0,0,1-1.21,1.14,3.51,3.51,0,0,1-1.72.42A3.43,3.43,0,0,1,171.87,249.13Z"/><path d="M180.42,249.31a.41.41,0,0,1-.12-.3V239.5l-1.67.55a.39.39,0,0,1-.18,0,.41.41,0,0,1-.42-.42.4.4,0,0,1,.27-.41l2.14-.71.29-.07a.39.39,0,0,1,.3.12.41.41,0,0,1,.12.3V249a.41.41,0,0,1-.12.3.39.39,0,0,1-.3.12A.45.45,0,0,1,180.42,249.31Z"/><path class="c" d="M218.89,246.35a.36.36,0,0,1-.13.24.4.4,0,0,1-.29.12h-1.29V249a.42.42,0,0,1-.84,0v-2.3h-5.25a.4.4,0,0,1-.31-.13.45.45,0,0,1-.13-.3.32.32,0,0,1,.09-.24l5.67-7.39a.549.549,0,0,1,.14-.13.44.44,0,0,1,.21,0,.38.38,0,0,1,.3.13.41.41,0,0,1,.12.3V246h1.29Q218.89,246,218.89,246.35Zm-7.07-.39h4.52V240.1Z"/><path class="c" d="M252.28,249a3.32,3.32,0,0,1-1.27-1.28,3.55,3.55,0,0,1-.47-1.8.41.41,0,0,1,.12-.31.38.38,0,0,1,.3-.13.4.4,0,0,1,.31.13.39.39,0,0,1,.13.31,2.66,2.66,0,0,0,.35,1.37,2.46,2.46,0,0,0,1,1,2.88,2.88,0,0,0,2.75,0,2.46,2.46,0,0,0,1-1,2.88,2.88,0,0,0,0-2.75,2.55,2.55,0,0,0-1-1,2.67,2.67,0,0,0-1.37-.36h-2.55a.41.41,0,0,1-.42-.42V238.9a.41.41,0,0,1,.42-.42h5.09a.43.43,0,0,1,.31.12.38.38,0,0,1,.13.3.42.42,0,0,1-.13.31.43.43,0,0,1-.31.12H252v3h2.13a3.55,3.55,0,0,1,1.8.47,3.32,3.32,0,0,1,1.28,1.27,3.77,3.77,0,0,1,0,3.61,3.42,3.42,0,0,1-1.28,1.28,3.77,3.77,0,0,1-3.61,0Z"/><path d="M13.5,47.14a3,3,0,0,1-1.24-1.27.33.33,0,0,1,0-.14.3.3,0,0,1,.11-.24.39.39,0,0,1,.27-.1.38.38,0,0,1,.35.23,2.16,2.16,0,0,0,1,.93,3.33,3.33,0,0,0,1.54.33,2.43,2.43,0,0,0,1.63-.51,1.88,1.88,0,0,0,.59-1.47,1.76,1.76,0,0,0-.58-1.35,3.21,3.21,0,0,0-1.72-.69A3.9,3.9,0,0,1,13.28,42a2.12,2.12,0,0,1-.77-1.65,2.17,2.17,0,0,1,.36-1.23,2.39,2.39,0,0,1,1-.83A3.67,3.67,0,0,1,15.35,38a3.16,3.16,0,0,1,1.6.42,2.86,2.86,0,0,1,1.08,1,.3.3,0,0,1,0,.19.34.34,0,0,1,0,.17.37.37,0,0,1-.15.13.3.3,0,0,1-.15,0,.38.38,0,0,1-.33-.18,2.34,2.34,0,0,0-2-1,2.42,2.42,0,0,0-1.56.45,1.53,1.53,0,0,0-.56,1.25,1.41,1.41,0,0,0,.56,1.13,3.51,3.51,0,0,0,1.7.65,4.13,4.13,0,0,1,2.21.93,2.39,2.39,0,0,1,.69,1.78A2.8,2.8,0,0,1,18,46.34a2.46,2.46,0,0,1-1,.94,3.61,3.61,0,0,1-1.55.32,3.91,3.91,0,0,1-1.95-.46Z"/><path d="M26,41a.36.36,0,0,1,.1.27v5.84a.34.34,0,0,1-.1.26.33.33,0,0,1-.26.1.34.34,0,0,1-.36-.36V46.5a2.83,2.83,0,0,1-1,.78,2.9,2.9,0,0,1-1.28.29,3.33,3.33,0,0,1-1.57-.36,2.6,2.6,0,0,1-1.08-1.05A3.3,3.3,0,0,1,20,44.51V41.28a.35.35,0,0,1,.11-.26.32.32,0,0,1,.25-.1.34.34,0,0,1,.36.36v3.23a2.26,2.26,0,0,0,.65,1.74,2.33,2.33,0,0,0,1.67.6,2.77,2.77,0,0,0,1.16-.25,2,2,0,0,0,.82-.68,1.71,1.71,0,0,0,.3-1V41.28a.36.36,0,0,1,.1-.27.37.37,0,0,1,.26-.09A.36.36,0,0,1,26,41Z"/><path d="M11.45,48.68v-.6H27v.6Z"/><path d="M248.5,47.14a3,3,0,0,1-1.24-1.27.33.33,0,0,1,0-.14.3.3,0,0,1,.11-.24.39.39,0,0,1,.27-.1.38.38,0,0,1,.35.23,2.16,2.16,0,0,0,1,.93,3.33,3.33,0,0,0,1.54.33,2.43,2.43,0,0,0,1.63-.51,1.88,1.88,0,0,0,.59-1.47,1.76,1.76,0,0,0-.58-1.35,3.21,3.21,0,0,0-1.72-.69,3.9,3.9,0,0,1-2.09-.87,2.12,2.12,0,0,1-.77-1.65,2.17,2.17,0,0,1,.36-1.23,2.39,2.39,0,0,1,1-.83,3.67,3.67,0,0,1,1.49-.29,3.16,3.16,0,0,1,1.6.42,2.86,2.86,0,0,1,1.08,1,.3.3,0,0,1,.05.19.34.34,0,0,1-.05.17.37.37,0,0,1-.15.13.3.3,0,0,1-.15,0,.38.38,0,0,1-.33-.18,2.34,2.34,0,0,0-2.05-1,2.42,2.42,0,0,0-1.56.45,1.53,1.53,0,0,0-.56,1.25,1.41,1.41,0,0,0,.56,1.13,3.51,3.51,0,0,0,1.7.65,4.13,4.13,0,0,1,2.21.93,2.39,2.39,0,0,1,.69,1.78,2.8,2.8,0,0,1-.36,1.44,2.46,2.46,0,0,1-1,.94,3.61,3.61,0,0,1-1.55.32,3.91,3.91,0,0,1-2.07-.47Z"/><path d="M261,41a.36.36,0,0,1,.1.27v5.84a.34.34,0,0,1-.1.26.33.33,0,0,1-.26.1.34.34,0,0,1-.36-.36V46.5a2.83,2.83,0,0,1-1,.78,2.9,2.9,0,0,1-1.28.29,3.33,3.33,0,0,1-1.57-.36,2.6,2.6,0,0,1-1.08-1.05,3.3,3.3,0,0,1-.39-1.65V41.28a.35.35,0,0,1,.11-.26.32.32,0,0,1,.25-.1.34.34,0,0,1,.36.36v3.23a2.26,2.26,0,0,0,.65,1.74,2.33,2.33,0,0,0,1.67.6,2.77,2.77,0,0,0,1.16-.25,2,2,0,0,0,.82-.68,1.71,1.71,0,0,0,.3-1V41.28a.36.36,0,0,1,.1-.27.37.37,0,0,1,.26-.09A.36.36,0,0,1,261,41Z"/><path d="M246.45,48.68v-.6H262v.6Z"/><path d="M209.37,47.38a.34.34,0,0,1-.1-.26V38.47a.34.34,0,0,1,.36-.36h5.77a.358.358,0,0,1,.36.36.31.31,0,0,1-.11.25.34.34,0,0,1-.25.11H210v3.6h4a.34.34,0,0,1,.26.1.39.39,0,0,1,0,.52.31.31,0,0,1-.26.11h-4v4a.34.34,0,0,1-.1.26.39.39,0,0,1-.52,0Z"/><path d="M221,41.24v.1a.32.32,0,0,1-.12.18.33.33,0,0,1-.21.06h-.57a2.2,2.2,0,0,0-1.07.25,1.82,1.82,0,0,0-.73.7,1.86,1.86,0,0,0-.27,1v3.65a.37.37,0,0,1-.09.26.36.36,0,0,1-.27.1.35.35,0,0,1-.26-.1.38.38,0,0,1-.1-.26v-5.9a.41.41,0,0,1,.1-.27.39.39,0,0,1,.26-.09.32.32,0,0,1,.36.36V42a2.52,2.52,0,0,1,.89-.86,2.29,2.29,0,0,1,1.18-.31C220.65,40.85,221,41,221,41.24Z"/><path d="M208.8,48.68v-.6h12.52v.6Z"/><path d="M175.61,38.2a.32.32,0,0,1,.09.23.31.31,0,0,1-.33.33h-3v8.36a.35.35,0,0,1-.11.26.32.32,0,0,1-.25.1.34.34,0,0,1-.36-.36V38.76h-3a.3.3,0,0,1-.23-.09.352.352,0,0,1,0-.47.3.3,0,0,1,.23-.09h6.79a.32.32,0,0,1,.17.09Z"/><path d="M181.4,41.19a2.6,2.6,0,0,1,1.08,1.05,3.3,3.3,0,0,1,.39,1.65v3.23a.34.34,0,0,1-.36.36.35.35,0,0,1-.26-.1.38.38,0,0,1-.1-.26V43.89a2.26,2.26,0,0,0-.64-1.74,2.36,2.36,0,0,0-1.67-.6,2.74,2.74,0,0,0-1.16.25,2,2,0,0,0-.82.68,1.71,1.71,0,0,0-.3,1v3.67a.38.38,0,0,1-.1.26.33.33,0,0,1-.26.1.34.34,0,0,1-.36-.36V38.47a.33.33,0,0,1,.1-.26.34.34,0,0,1,.26-.1.33.33,0,0,1,.26.1.36.36,0,0,1,.1.26V41.9a2.79,2.79,0,0,1,1-.78,2.91,2.91,0,0,1,1.29-.29,3.32,3.32,0,0,1,1.55.36Z"/><path d="M168.08,48.68v-.6h15.63v.6Z"/><path d="M139,38.21a.36.36,0,0,1,.1.27v.17l-2.48,8.52a.53.53,0,0,1-.14.23.4.4,0,0,1-.23.08.41.41,0,0,1-.24-.08.52.52,0,0,1-.13-.23l-2-7.21-2,7.21a.41.41,0,0,1-.39.31.32.32,0,0,1-.23-.09.4.4,0,0,1-.14-.22l-2.48-8.52a.8.8,0,0,1,0-.16.36.36,0,0,1,.71-.1l2.17,7.51,2.07-7.2a.21.21,0,0,1,.12-.16.35.35,0,0,1,.21-.07.36.36,0,0,1,.22.07.31.31,0,0,1,.13.17l2.06,7.19,2.18-7.55a.25.25,0,0,1,.11-.17.37.37,0,0,1,.23-.07.3.3,0,0,1,.15.1Z"/><path d="M143.47,41.27a2.83,2.83,0,0,1,1.07,1.15,3.49,3.49,0,0,1,.39,1.67.3.3,0,0,1-.1.24.33.33,0,0,1-.25.09h-5a2.7,2.7,0,0,0,.38,1.27,2.35,2.35,0,0,0,.9.87,2.49,2.49,0,0,0,1.25.31,2.87,2.87,0,0,0,.95-.16,2.08,2.08,0,0,0,.75-.43.4.4,0,0,1,.25-.09.32.32,0,0,1,.22.07.3.3,0,0,1,.02.48,3.09,3.09,0,0,1-1,.57,3.26,3.26,0,0,1-1.19.23,3.33,3.33,0,0,1-1.68-.42,3.09,3.09,0,0,1-1.16-1.19,3.51,3.51,0,0,1-.42-1.72,3.78,3.78,0,0,1,.39-1.74,2.92,2.92,0,0,1,1.09-1.19,3.07,3.07,0,0,1,1.61-.42,3,3,0,0,1,1.53.41Zm-3.14.88a2.66,2.66,0,0,0-.77,1.65h4.67a2.47,2.47,0,0,0-.72-1.65,2.21,2.21,0,0,0-1.6-.62A2.18,2.18,0,0,0,140.33,42.15Z"/><path d="M128.17,48.68v-.6h17.12v.6Z"/><path d="M98.05,38.2a.325.325,0,0,1-.23.56h-3v8.36a.34.34,0,0,1-.36.36.35.35,0,0,1-.26-.1.38.38,0,0,1-.1-.26V38.76H91a.31.31,0,0,1-.33-.33.309.309,0,0,1,.33-.32h6.79a.32.32,0,0,1,.26.09Z"/><path d="M103.54,41a.36.36,0,0,1,.1.27v5.84a.34.34,0,0,1-.1.26.33.33,0,0,1-.26.1.34.34,0,0,1-.36-.36V46.5a2.83,2.83,0,0,1-1,.78,2.9,2.9,0,0,1-1.28.29,3.33,3.33,0,0,1-1.57-.36A2.6,2.6,0,0,1,98,46.16a3.3,3.3,0,0,1-.39-1.65V41.28a.38.38,0,0,1,.1-.26.35.35,0,0,1,.26-.1.34.34,0,0,1,.36.36v3.23A2.29,2.29,0,0,0,99,46.25a2.37,2.37,0,0,0,1.68.6,2.77,2.77,0,0,0,1.16-.25,2,2,0,0,0,.82-.68,1.71,1.71,0,0,0,.3-1V41.28A.36.36,0,0,1,103,41a.37.37,0,0,1,.26-.09.36.36,0,0,1,.28.09Z"/><path d="M90.52,48.68v-.6H104.6v.6Z"/><path d="M59,38.21a.4.4,0,0,1,.1.26v8.65a.38.38,0,0,1-.1.26.32.32,0,0,1-.25.1.38.38,0,0,1-.27-.1.34.34,0,0,1-.1-.26V39.77l-3.65,7.42a.31.31,0,0,1-.31.17.36.36,0,0,1-.34-.23l-3.64-7.26v7.25a.34.34,0,0,1-.36.36.32.32,0,0,1-.25-.1.35.35,0,0,1-.11-.26V38.47a.36.36,0,0,1,.11-.26.32.32,0,0,1,.25-.1.34.34,0,0,1,.33.18l4,8,4-8a.37.37,0,0,1,.33-.18A.32.32,0,0,1,59,38.21Z"/><path d="M62.57,47.12a3.34,3.34,0,0,1-1.21-1.21,3.62,3.62,0,0,1,0-3.42,3.34,3.34,0,0,1,1.21-1.21,3.62,3.62,0,0,1,3.42,0,3.34,3.34,0,0,1,1.21,1.21,3.62,3.62,0,0,1,0,3.42A3.34,3.34,0,0,1,66,47.12a3.62,3.62,0,0,1-3.42,0Zm3.06-.59a2.48,2.48,0,0,0,.94-1,2.69,2.69,0,0,0,.34-1.36,2.73,2.73,0,0,0-.34-1.37,2.58,2.58,0,0,0-.94-1,2.64,2.64,0,0,0-3.64,1,2.73,2.73,0,0,0-.34,1.37,2.672,2.672,0,0,0,3.99,2.4Z"/><path d="M48.55,48.68v-.6H68.23v.6Z"/><path class="e" d="M16.47,23l-11-11,11-11"/><path class="e" d="M260.97,23l11-11-11-11"/><rect class="a" width="117" height="31" rx="4" transform="translate(153.47 283)"/><path d="M196.8,302.29a.69.69,0,0,1-.21.5.7.7,0,0,1-.52.21.75.75,0,0,1-.4-.12.73.73,0,0,1-.27-.33l-.78-2h-5l-.8,2a.75.75,0,0,1-.28.33.69.69,0,0,1-.39.12.67.67,0,0,1-.51-.22.69.69,0,0,1-.2-.51.84.84,0,0,1,.07-.32l3.93-9.39a.71.71,0,0,1,.69-.49.67.67,0,0,1,.68.49l3.95,9.42a.8.8,0,0,1,.04.31Zm-6.72-2.9h4l-2-5Z"/><path d="M205,292.26a.72.72,0,0,1,.2.52v6.38a4,4,0,0,1-.51,2,3.84,3.84,0,0,1-3.34,1.91,3.79,3.79,0,0,1-2-.52,3.71,3.71,0,0,1-1.39-1.39,4,4,0,0,1-.5-2,4.25,4.25,0,0,1,.46-2,3.68,3.68,0,0,1,1.29-1.39,3.539,3.539,0,0,1,4.53.77v-3.78a.72.72,0,0,1,.2-.52.73.73,0,0,1,.52-.19.69.69,0,0,1,.54.21Zm-2.38,9.19a2.42,2.42,0,0,0,.88-.94,2.75,2.75,0,0,0,.33-1.35,2.68,2.68,0,0,0-.33-1.33,2.48,2.48,0,0,0-3.42-.94,2.44,2.44,0,0,0-.89.94,2.68,2.68,0,0,0-.33,1.33,2.75,2.75,0,0,0,.33,1.35,2.44,2.44,0,0,0,.89.94A2.48,2.48,0,0,0,202.62,301.45Z"/><path d="M214.67,292.26a.71.71,0,0,1,.19.52v6.38a4,4,0,0,1-.51,2,3.948,3.948,0,0,1-5.34,1.39,3.71,3.71,0,0,1-1.39-1.39,4.05,4.05,0,0,1-.5-2,4.13,4.13,0,0,1,.47-2,3.58,3.58,0,0,1,1.28-1.39,3.4,3.4,0,0,1,1.83-.5,3.48,3.48,0,0,1,1.51.33,3.43,3.43,0,0,1,1.19.94v-3.78a.68.68,0,0,1,.72-.71.71.71,0,0,1,.55.21Zm-2.39,9.19a2.44,2.44,0,0,0,.89-.94,2.86,2.86,0,0,0,.32-1.35,2.78,2.78,0,0,0-.32-1.33,2.44,2.44,0,0,0-.89-.94,2.449,2.449,0,0,0-3.43.94,2.68,2.68,0,0,0-.33,1.33,2.75,2.75,0,0,0,.33,1.35,2.52,2.52,0,0,0,.89.94,2.48,2.48,0,0,0,2.54,0Z"/><path d="M221.55,302.79a.7.7,0,0,1-.21-.52v-9.48a.69.69,0,0,1,.21-.52.71.71,0,0,1,.52-.2h3.35a3.56,3.56,0,0,1,1.66.37,2.71,2.71,0,0,1,1.14,1,2.79,2.79,0,0,1,.42,1.51,2.17,2.17,0,0,1-.37,1.23,2.749,2.749,0,0,1-1,.88,2.68,2.68,0,0,1,1.5.9,2.65,2.65,0,0,1,.54,1.71,3.25,3.25,0,0,1-.45,1.7,3.08,3.08,0,0,1-1.27,1.18,4,4,0,0,1-1.86.42h-3.64a.72.72,0,0,1-.54-.18Zm3.87-6.23a2,2,0,0,0,1.32-.41,1.62,1.62,0,0,0,0-2.34,2,2,0,0,0-1.32-.4H222.8v3.15Zm.29,5.1a2.36,2.36,0,0,0,1.58-.51,1.82,1.82,0,0,0,.6-1.45,1.56,1.56,0,0,0-.59-1.33,2.53,2.53,0,0,0-1.59-.47H222.8v3.76Z"/><path d="M231.92,302.67a2.21,2.21,0,0,1-.75-.92,3.24,3.24,0,0,1-.27-1.34v-7.64a.67.67,0,0,1,.71-.7.68.68,0,0,1,.5.19.69.69,0,0,1,.19.51v7.64a1.64,1.64,0,0,0,.2.85.57.57,0,0,0,.5.34h.36a.59.59,0,0,1,.45.2.69.69,0,0,1,.17.5.58.58,0,0,1-.26.5,1.15,1.15,0,0,1-.69.2h0a1.86,1.86,0,0,1-1.11-.33Z"/><path d="M236.29,302.56a3.56,3.56,0,0,1-1.37-1.38,4.37,4.37,0,0,1,0-4,3.56,3.56,0,0,1,1.37-1.38,4.327,4.327,0,0,1,4,0,3.56,3.56,0,0,1,1.37,1.38,4.06,4.06,0,0,1,.5,2,4.14,4.14,0,0,1-.49,2,3.5,3.5,0,0,1-1.37,1.38,4.27,4.27,0,0,1-4.01,0Zm3.29-1.1a2.26,2.26,0,0,0,.88-.93,3.12,3.12,0,0,0,0-2.71,2.35,2.35,0,0,0-.88-.94,2.52,2.52,0,0,0-1.28-.33,2.46,2.46,0,0,0-1.28.33,2.37,2.37,0,0,0-.89.94,2.95,2.95,0,0,0,0,2.71,2.28,2.28,0,0,0,.89.93,2.47,2.47,0,0,0,1.28.34,2.52,2.52,0,0,0,1.28-.34Z"/><path d="M245.62,302.55a3.55,3.55,0,0,1-1.38-1.39,4.288,4.288,0,0,1-.01-4,3.47,3.47,0,0,1,1.35-1.39,3.88,3.88,0,0,1,2-.49,3.48,3.48,0,0,1,2.74,1.26.52.52,0,0,1,.14.36.6.6,0,0,1-.31.52.58.58,0,0,1-.32.1.72.72,0,0,1-.55-.26,2.2,2.2,0,0,0-.76-.55,2.32,2.32,0,0,0-.94-.17,2.27,2.27,0,0,0-1.75.72,2.67,2.67,0,0,0-.67,1.91,2.86,2.86,0,0,0,.31,1.35,2.26,2.26,0,0,0,.88.93,2.54,2.54,0,0,0,1.3.34,2.39,2.39,0,0,0,1.54-.49.87.87,0,0,1,.51-.2.58.58,0,0,1,.37.13.63.63,0,0,1,.26.5.52.52,0,0,1-.16.38,3.57,3.57,0,0,1-2.52.94,3.9,3.9,0,0,1-2.03-.5Z"/><path d="M258.34,302.41a.64.64,0,0,1-.25.52.72.72,0,0,1-.45.17.63.63,0,0,1-.5-.25l-2.66-3.29-.7.61v2.14a.65.65,0,0,1-.19.5.66.66,0,0,1-.5.19.64.64,0,0,1-.49-.19.65.65,0,0,1-.19-.5v-9.56a.64.64,0,0,1,.68-.68.7.7,0,0,1,.5.18.68.68,0,0,1,.19.5v5.7l3.4-3a.6.6,0,0,1,.44-.18.57.57,0,0,1,.47.22.62.62,0,0,1,.18.44.57.57,0,0,1-.22.47l-2.58,2.3,2.72,3.33A.6.6,0,0,1,258.34,302.41Z"/><rect class="f" width="2" height="9" transform="translate(175.47 294)"/><rect class="f" width="2" height="9" transform="translate(171.97 299.5) rotate(-90)"/><line class="a" x2="27.85" transform="translate(361.62 8)"/><line class="a" x2="5.1" transform="translate(341.47 8)"/><line class="a" x2="23.97" transform="translate(723.5 8)"/><line class="a" x2="251.9" transform="translate(458.47 8)"/><path d="M402.08,12a.7.7,0,0,1-.21-.52V2a.7.7,0,0,1,.73-.72H406a3.59,3.59,0,0,1,1.66.37,2.71,2.71,0,0,1,1.14,1,2.78,2.78,0,0,1,.41,1.51,2.1,2.1,0,0,1-.37,1.23,2.64,2.64,0,0,1-1,.88,2.68,2.68,0,0,1,1.5.9A2.65,2.65,0,0,1,409.82,9a3.25,3.25,0,0,1-.45,1.7,3.11,3.11,0,0,1-1.28,1.18,4,4,0,0,1-1.85.42H402.6a.7.7,0,0,1-.52-.3ZM406,5.81a2,2,0,0,0,1.32-.41,1.42,1.42,0,0,0,.49-1.17,1.41,1.41,0,0,0-.49-1.17,2,2,0,0,0-1.32-.4h-2.62V5.81Zm.29,5.1a2.36,2.36,0,0,0,1.58-.51,1.82,1.82,0,0,0,.6-1.45,1.59,1.59,0,0,0-.59-1.33,2.53,2.53,0,0,0-1.59-.47h-2.91v3.76Z"/><path d="M412.45,11.92a2.14,2.14,0,0,1-.75-.92,3.24,3.24,0,0,1-.27-1.34V2a.69.69,0,0,1,.2-.51.68.68,0,0,1,.5-.19.69.69,0,0,1,.51.19.69.69,0,0,1,.19.51V9.66a1.64,1.64,0,0,0,.2.85.57.57,0,0,0,.5.34h.35a.6.6,0,0,1,.46.2.74.74,0,0,1,.17.5.6.6,0,0,1-.26.5,1.15,1.15,0,0,1-.69.2h0a1.86,1.86,0,0,1-1.11-.33Z"/><path d="M416.82,11.81a3.5,3.5,0,0,1-1.37-1.38,4,4,0,0,1-.49-2,4.06,4.06,0,0,1,.49-2A3.5,3.5,0,0,1,416.82,5a4,4,0,0,1,2-.49,3.93,3.93,0,0,1,2,.49,3.52,3.52,0,0,1,1.38,1.38,4.06,4.06,0,0,1,.49,2,4,4,0,0,1-.49,2,3.47,3.47,0,0,1-1.36,1.38,4.49,4.49,0,0,1-4.02.05Zm3.29-1.1a2.32,2.32,0,0,0,.88-.93,2.86,2.86,0,0,0,.31-1.35,2.87,2.87,0,0,0-.3-1.36,2.42,2.42,0,0,0-.88-.94,2.47,2.47,0,0,0-3.46.94,3,3,0,0,0,0,2.71,2.42,2.42,0,0,0,.89.93,2.6,2.6,0,0,0,2.57,0Z"/><path d="M426.15,11.8a3.55,3.55,0,0,1-1.38-1.39,4,4,0,0,1-.5-2,4.15,4.15,0,0,1,.48-2A3.61,3.61,0,0,1,426.1,5a3.91,3.91,0,0,1,2-.49,3.48,3.48,0,0,1,2.75,1.26.52.52,0,0,1,.14.36.6.6,0,0,1-.31.52.58.58,0,0,1-.32.1.71.71,0,0,1-.55-.26A2.2,2.2,0,0,0,429,6a2.37,2.37,0,0,0-.95-.17,2.3,2.3,0,0,0-1.75.72,2.71,2.71,0,0,0-.67,1.91A2.859,2.859,0,0,0,426,9.78a2.26,2.26,0,0,0,.88.93,2.53,2.53,0,0,0,1.29.34,2.35,2.35,0,0,0,1.54-.49.9.9,0,0,1,.52-.2.6.6,0,0,1,.37.13.66.66,0,0,1,.26.5.5.5,0,0,1-.17.38,3.57,3.57,0,0,1-2.52.94,3.87,3.87,0,0,1-2.02-.51Z"/><path d="M438.87,11.66a.64.64,0,0,1-.25.52.72.72,0,0,1-.45.17.63.63,0,0,1-.5-.25L435,8.81l-.7.61v2.14a.65.65,0,0,1-.19.5.66.66,0,0,1-.5.19.64.64,0,0,1-.68-.69V2a.71.71,0,0,1,.18-.5.71.71,0,0,1,.5-.18.7.7,0,0,1,.5.18.68.68,0,0,1,.19.5V7.7l3.4-3a.6.6,0,0,1,.43-.18.58.58,0,0,1,.48.22.62.62,0,0,1,.18.44.57.57,0,0,1-.22.47L436,7.91l2.72,3.33a.6.6,0,0,1,.15.42Z"/><path d="M446.35,12a.69.69,0,0,1-.21-.5V3l-1,.43a1.12,1.12,0,0,1-.45.1.69.69,0,0,1-.51-.2.66.66,0,0,1-.21-.5.69.69,0,0,1,.12-.41.6.6,0,0,1,.35-.26l2.18-.79a.78.78,0,0,1,.27-.05.65.65,0,0,1,.5.2.72.72,0,0,1,.2.52v9.5a.69.69,0,0,1-.21.5.72.72,0,0,1-.52.21.67.67,0,0,1-.51-.25Z"/><path class="f" d="M353.97,4l-4.5,5h9Z"/><path d="M547.11,44.88a.35.35,0,0,1-.11-.26V36.47l-1.43.47a.31.31,0,0,1-.15,0,.36.36,0,0,1-.37-.36.34.34,0,0,1,.23-.35l1.84-.61.25-.06a.35.35,0,0,1,.26.1.34.34,0,0,1,.1.26v8.66a.34.34,0,0,1-.1.26.39.39,0,0,1-.52,0Z"/><path d="M549.82,44.88a.35.35,0,0,1-.11-.26.4.4,0,0,1,.11-.26l3.79-4.51a2.4,2.4,0,0,0,.43-.68,2.16,2.16,0,0,0,.17-.78,2.209,2.209,0,0,0-.26-1,1.92,1.92,0,0,0-.7-.74,1.83,1.83,0,0,0-1-.27,1.89,1.89,0,0,0-1,.27,2,2,0,0,0-.7.74,2.211,2.211,0,0,0-.26,1,.34.34,0,0,1-.36.36.359.359,0,0,1-.37-.36,2.929,2.929,0,0,1,.35-1.42,2.59,2.59,0,0,1,1-1,2.64,2.64,0,0,1,1.37-.36,2.61,2.61,0,0,1,1.36.36,2.69,2.69,0,0,1,1,1,2.92,2.92,0,0,1,.34,1.42,2.38,2.38,0,0,1-.22,1,4.339,4.339,0,0,1-.63.95l-3.3,3.88h4a.359.359,0,0,1,.36.37.34.34,0,0,1-.36.36h-4.74a.35.35,0,0,1-.27-.07Z"/><path d="M556.19,45a.59.59,0,0,1-.18-.44.54.54,0,0,1,.18-.42.6.6,0,0,1,.43-.18.58.58,0,0,1,.43.18.54.54,0,0,1,.17.42.57.57,0,0,1-.17.43.58.58,0,0,1-.43.18.56.56,0,0,1-.43-.17Zm0-5.41a.59.59,0,0,1-.18-.44.61.61,0,0,1,.17-.43.62.62,0,0,1,.44-.17.57.57,0,0,1,.42.17.58.58,0,0,1,.18.43.59.59,0,0,1-.18.44.57.57,0,0,1-.42.17.61.61,0,0,1-.39-.17Z"/><path d="M559.71,44.42a3.57,3.57,0,0,1-1-1.62,8.56,8.56,0,0,1-.33-2.52,8.44,8.44,0,0,1,.33-2.51,3.61,3.61,0,0,1,1-1.63,2.29,2.29,0,0,1,3,0,3.58,3.58,0,0,1,.95,1.64,8.418,8.418,0,0,1,.33,2.5,6.809,6.809,0,0,1-.73,3.45A2.26,2.26,0,0,1,561.22,45a2.21,2.21,0,0,1-1.51-.58Zm3-1.24a6.749,6.749,0,0,0,.52-2.9,6.569,6.569,0,0,0-.53-2.89,1.65,1.65,0,0,0-1.53-1.08,1.68,1.68,0,0,0-1.54,1.08,6.72,6.72,0,0,0-.53,2.89,6.741,6.741,0,0,0,.53,2.9,1.64,1.64,0,0,0,3.08,0Z"/><path d="M566.38,44.42a3.57,3.57,0,0,1-1-1.62,8.9,8.9,0,0,1-.33-2.52,8.781,8.781,0,0,1,.33-2.51,3.61,3.61,0,0,1,1-1.63,2.18,2.18,0,0,1,1.51-.57,2.15,2.15,0,0,1,1.51.57,3.59,3.59,0,0,1,1,1.64,8.418,8.418,0,0,1,.33,2.5,6.911,6.911,0,0,1-.73,3.45A2.28,2.28,0,0,1,567.89,45a2.22,2.22,0,0,1-1.51-.58Zm3-1.24a6.74,6.74,0,0,0,.53-2.9,6.72,6.72,0,0,0-.53-2.89,1.64,1.64,0,0,0-3.08,0,6.729,6.729,0,0,0-.52,2.89,6.749,6.749,0,0,0,.52,2.9,1.64,1.64,0,0,0,3.08,0Z"/><rect class="a" width="108" height="26.99" rx="4" transform="translate(660.47 27.99)"/><path d="M670.11,44.88a.35.35,0,0,1-.11-.26V36.47l-1.43.47a.31.31,0,0,1-.15,0,.36.36,0,0,1-.37-.36.34.34,0,0,1,.23-.35l1.84-.61.25-.06a.35.35,0,0,1,.26.1.34.34,0,0,1,.1.26v8.66a.34.34,0,0,1-.1.26.39.39,0,0,1-.52,0Z"/><path d="M676.83,39.74a2.77,2.77,0,0,1,1,1,2.909,2.909,0,0,1,.37,1.44,2.84,2.84,0,0,1-.37,1.42,2.77,2.77,0,0,1-1,1,2.87,2.87,0,0,1-1.43.36,2.9,2.9,0,0,1-1.44-.36,2.69,2.69,0,0,1-1-1,2.9,2.9,0,0,1,0-2.78h0v-.07l.09-.15L676,35.8a.4.4,0,0,1,.33-.2.33.33,0,0,1,.27.11.34.34,0,0,1,.11.25.53.53,0,0,1-.07.2l-2.06,3.34a2.68,2.68,0,0,1,.83-.12,2.87,2.87,0,0,1,1.42.36ZM676.46,44a2.07,2.07,0,0,0,.75-.75,2.17,2.17,0,0,0,0-2.13,2,2,0,0,0-.75-.76,2.12,2.12,0,0,0-1.06-.27,2.079,2.079,0,0,0-1.82,3.16,2.07,2.07,0,0,0,.75.75,2.15,2.15,0,0,0,1.07.27,2.12,2.12,0,0,0,1.06-.27Z"/><path d="M679.2,45a.59.59,0,0,1-.18-.44.54.54,0,0,1,.18-.42.6.6,0,0,1,.43-.18.57.57,0,0,1,.43.18.54.54,0,0,1,.18.42.58.58,0,0,1-.18.43.57.57,0,0,1-.43.18.56.56,0,0,1-.43-.17Zm0-5.41a.59.59,0,0,1-.18-.44.61.61,0,0,1,.17-.43.64.64,0,0,1,.44-.17.58.58,0,0,1,.6.6.62.62,0,0,1-.17.44.63.63,0,0,1-.86,0Z"/><path d="M682.72,44.42a3.48,3.48,0,0,1-1-1.62,8.241,8.241,0,0,1-.33-2.52,8.131,8.131,0,0,1,.33-2.51,3.51,3.51,0,0,1,1-1.63,2.18,2.18,0,0,1,1.51-.57,2.15,2.15,0,0,1,1.51.57,3.59,3.59,0,0,1,1,1.64,8.418,8.418,0,0,1,.33,2.5,6.8,6.8,0,0,1-.74,3.45,2.25,2.25,0,0,1-2.1,1.27,2.22,2.22,0,0,1-1.51-.58Zm3-1.24a6.75,6.75,0,0,0,.52-2.9,6.73,6.73,0,0,0-.52-2.89,1.63,1.63,0,0,0-3.07,0,6.57,6.57,0,0,0-.53,2.89,6.75,6.75,0,0,0,.52,2.9,1.64,1.64,0,0,0,3.08,0Z"/><path d="M689.4,44.42a3.57,3.57,0,0,1-1-1.62,8.558,8.558,0,0,1-.33-2.52,8.44,8.44,0,0,1,.33-2.51,3.61,3.61,0,0,1,1-1.63,2.16,2.16,0,0,1,1.5-.57,2.19,2.19,0,0,1,1.52.57,3.67,3.67,0,0,1,1,1.64,8.42,8.42,0,0,1,.33,2.5,6.811,6.811,0,0,1-.73,3.45A2.28,2.28,0,0,1,690.9,45a2.2,2.2,0,0,1-1.5-.58Zm3.05-1.24a6.9,6.9,0,0,0,.52-2.9,6.721,6.721,0,0,0-.53-2.89,1.63,1.63,0,0,0-3.07,0,6.57,6.57,0,0,0-.53,2.89,6.75,6.75,0,0,0,.52,2.9,1.65,1.65,0,0,0,3.09,0Z"/><path d="M389.59,43.15a.33.33,0,0,1-.13.25.4.4,0,0,1-.29.12h-1.29v2.29a.42.42,0,0,1-.84,0V43.52h-5.25a.43.43,0,0,1-.31-.14.44.44,0,0,1-.12-.3.41.41,0,0,1,.08-.24l5.67-7.39a.53.53,0,0,1,.15-.12.39.39,0,0,1,.2,0,.42.42,0,0,1,.3.13.43.43,0,0,1,.12.31v7h1.29Q389.59,42.76,389.59,43.15Zm-7.07-.39H387V36.91Z"/><path d="M395.11,45.5a.425.425,0,0,1-.31.73h-.32a2.65,2.65,0,0,1-1.38-.35,2.39,2.39,0,0,1-.93-1,2.72,2.72,0,0,1-.34-1.38V39.61h-1.09a.4.4,0,0,1-.28-.1.39.39,0,0,1-.1-.28.36.36,0,0,1,.1-.27.41.41,0,0,1,.28-.11h1.09V36.57a.411.411,0,0,1,.42-.43.4.4,0,0,1,.31.12.41.41,0,0,1,.12.31v2.28h1.85a.37.37,0,0,1,.27.11.33.33,0,0,1,.11.27.36.36,0,0,1-.38.38h-1.85v3.93a1.79,1.79,0,0,0,.51,1.33,1.74,1.74,0,0,0,1.3.51h.31A.41.41,0,0,1,395.11,45.5Z"/><path d="M402.17,38.9a3,3,0,0,1,1.26,1.22,3.91,3.91,0,0,1,.45,1.93v3.76a.44.44,0,0,1-.11.3.425.425,0,0,1-.73-.3V42.05a2.63,2.63,0,0,0-.75-2,2.73,2.73,0,0,0-2-.7,3.17,3.17,0,0,0-1.35.28,2.36,2.36,0,0,0-1,.8,2,2,0,0,0-.35,1.13v4.28a.44.44,0,0,1-.11.3.4.4,0,0,1-.31.12.41.41,0,0,1-.42-.42V35.72a.41.41,0,0,1,.12-.31.44.44,0,0,1,.3-.11.43.43,0,0,1,.31.11.45.45,0,0,1,.11.31v4a3.31,3.31,0,0,1,1.16-.91,3.43,3.43,0,0,1,1.5-.33,3.92,3.92,0,0,1,1.92.42Z"/><path d="M411.07,45.93a3.23,3.23,0,0,1-1.18-1.17,3.11,3.11,0,0,1-.43-1.61.41.41,0,0,1,.12-.3.38.38,0,0,1,.3-.12.41.41,0,0,1,.42.42,2.331,2.331,0,0,0,.32,1.19,2.44,2.44,0,0,0,.88.87,2.37,2.37,0,0,0,2.38,0,2.5,2.5,0,0,0,.87-.87,2.39,2.39,0,0,0,.32-1.19V35.72a.38.38,0,0,1,.13-.3.4.4,0,0,1,.29-.12.41.41,0,0,1,.42.42v7.43a3.11,3.11,0,0,1-.43,1.61,3.26,3.26,0,0,1-1.18,1.18,3.13,3.13,0,0,1-1.61.43,3,3,0,0,1-1.62-.44Z"/><path d="M423.92,39a3.65,3.65,0,0,1,1.4,1.41,3.88,3.88,0,0,1,.52,2v3.4a.41.41,0,0,1-.12.3.44.44,0,0,1-.6,0,.41.41,0,0,1-.12-.3V44.72a3.26,3.26,0,0,1-1.27,1.17,3.86,3.86,0,0,1-1.8.43,4,4,0,0,1-2-.51,3.74,3.74,0,0,1-1.41-1.41,4.16,4.16,0,0,1,0-4,3.67,3.67,0,0,1,1.41-1.4,4.16,4.16,0,0,1,4,0Zm-.42,6.13A3,3,0,0,0,424.6,44a3.4,3.4,0,0,0,0-3.2,3,3,0,0,0-1.1-1.12,3.14,3.14,0,0,0-3.14,0,3,3,0,0,0-1.1,1.12,3.33,3.33,0,0,0,0,3.2,3,3,0,0,0,1.1,1.12,3.28,3.28,0,0,0,3.14,0Z"/><path d="M433.12,38.9a3,3,0,0,1,1.26,1.22,3.8,3.8,0,0,1,.46,1.93v3.76a.42.42,0,1,1-.84,0V42.05a2.63,2.63,0,0,0-.75-2,2.74,2.74,0,0,0-2-.7,3.09,3.09,0,0,0-1.34.28,2.3,2.3,0,0,0-1,.8,1.91,1.91,0,0,0-.35,1.13v4.28a.41.41,0,0,1-.12.3.38.38,0,0,1-.3.12.41.41,0,0,1-.31-.12.45.45,0,0,1-.12-.3V39a.425.425,0,1,1,.85,0v.73a3.14,3.14,0,0,1,1.16-.91,3.36,3.36,0,0,1,1.49-.33,3.86,3.86,0,0,1,1.91.41Z"/><path d="M443.87,38.69a.41.41,0,0,1,.11.3v6.82a.44.44,0,0,1-.11.3.425.425,0,0,1-.73-.3v-.73A3.341,3.341,0,0,1,442,46a3.43,3.43,0,0,1-1.5.33,3.92,3.92,0,0,1-1.83-.42,3.14,3.14,0,0,1-1.26-1.22,3.91,3.91,0,0,1-.45-1.93V39a.42.42,0,1,1,.84,0v3.77a2.64,2.64,0,0,0,.75,2,2.73,2.73,0,0,0,2,.7,3,3,0,0,0,1.35-.29,2.28,2.28,0,0,0,1-.79,2,2,0,0,0,.35-1.13V39a.38.38,0,0,1,.12-.3.324.324,0,0,1,.5-.01Z"/><path d="M451.85,39a3.72,3.72,0,0,1,1.4,1.41,4,4,0,0,1,.52,2v3.4a.41.41,0,0,1-.12.3.38.38,0,0,1-.3.12.41.41,0,0,1-.31-.12.4.4,0,0,1-.11-.3V44.72a3.26,3.26,0,0,1-1.27,1.17,3.86,3.86,0,0,1-1.8.43,3.94,3.94,0,0,1-2-.51,3.74,3.74,0,0,1-1.41-1.41,4.16,4.16,0,0,1,0-4,3.67,3.67,0,0,1,1.41-1.4,4.16,4.16,0,0,1,4,0Zm-.42,6.13a3,3,0,0,0,1.1-1.12,3.4,3.4,0,0,0,0-3.2,3,3,0,0,0-1.1-1.12,3.14,3.14,0,0,0-3.14,0,3,3,0,0,0-1.1,1.12,3.33,3.33,0,0,0,0,3.2,3,3,0,0,0,1.1,1.12,3.28,3.28,0,0,0,3.14,0Z"/><path d="M460,39a.27.27,0,0,1,0,.11.36.36,0,0,1-.13.22.44.44,0,0,1-.25.06,2,2,0,0,1-.32,0h-.35a2.64,2.64,0,0,0-1.24.29,2.24,2.24,0,0,0-.86.81,2.32,2.32,0,0,0-.31,1.17v4.25a.4.4,0,0,1-.11.3.39.39,0,0,1-.31.12.41.41,0,0,1-.42-.42V39a.38.38,0,0,1,.12-.3.41.41,0,0,1,.3-.12.39.39,0,0,1,.31.12.37.37,0,0,1,.11.3v.87a3.13,3.13,0,0,1,1-1,2.72,2.72,0,0,1,1.37-.36C459.68,38.49,460,38.64,460,39Z"/><path d="M468.07,38.91a.92.92,0,0,1-.05.2L463.31,49.3a.36.36,0,0,1-.32.25.58.58,0,0,1-.2,0c-.17-.08-.26-.18-.26-.32a.8.8,0,0,1,.05-.2l1.4-3-.05-.1-3.07-6.72a.64.64,0,0,1-.05-.23.36.36,0,0,1,.23-.32.64.64,0,0,1,.23-.05.35.35,0,0,1,.32.23L464.43,45l2.86-6.2a.36.36,0,0,1,.32-.25.48.48,0,0,1,.2,0,.35.35,0,0,1,.26.36Z"/><path d="M473.21,46.11a.42.42,0,0,1-.13-.3.5.5,0,0,1,.13-.31l4.42-5.26a2.381,2.381,0,0,0,.5-.79,2.23,2.23,0,0,0,.2-.9,2.541,2.541,0,0,0-.3-1.23,2.22,2.22,0,0,0-.82-.87,2.12,2.12,0,0,0-1.14-.31,2.16,2.16,0,0,0-1.15.31,2.22,2.22,0,0,0-.82.87,2.539,2.539,0,0,0-.3,1.23.41.41,0,0,1-.42.42.43.43,0,0,1-.31-.12.41.41,0,0,1-.12-.3,3.44,3.44,0,0,1,.4-1.67,3.071,3.071,0,0,1,1.12-1.17,3.12,3.12,0,0,1,1.6-.43,3,3,0,0,1,2.71,1.6,3.441,3.441,0,0,1,.41,1.67,2.76,2.76,0,0,1-.26,1.19,5.339,5.339,0,0,1-.73,1.12l-3.86,4.52h4.71a.41.41,0,0,1,.3.12.45.45,0,0,1,.12.31.41.41,0,0,1-.42.42h-5.53a.43.43,0,0,1-.31-.12Z"/><path d="M482.16,45.57A4.06,4.06,0,0,1,481,43.68a11.49,11.49,0,0,1,0-5.86,4.2,4.2,0,0,1,1.12-1.9,2.55,2.55,0,0,1,1.76-.66,2.52,2.52,0,0,1,1.76.66,4.18,4.18,0,0,1,1.12,1.91,10,10,0,0,1,.38,2.91,8,8,0,0,1-.85,4,2.66,2.66,0,0,1-2.41,1.45,2.55,2.55,0,0,1-1.72-.62Zm3.56-1.44a8,8,0,0,0,.61-3.39,7.721,7.721,0,0,0-.62-3.36,1.9,1.9,0,0,0-3.58,0,7.72,7.72,0,0,0-.62,3.36,7.88,7.88,0,0,0,.61,3.39,1.92,1.92,0,0,0,3.6,0Z"/><path d="M490.49,46.11a.38.38,0,0,1-.13-.3v-9.5l-1.67.54a.39.39,0,0,1-.18,0,.44.44,0,0,1-.3-.11.41.41,0,0,1-.12-.31.38.38,0,0,1,.27-.4l2.14-.72.29-.07a.41.41,0,0,1,.31.12.44.44,0,0,1,.11.3V45.81a.44.44,0,0,1-.11.3.448.448,0,0,1-.61,0Z"/><path d="M499.21,40.21l-.1.17L495.68,46a.45.45,0,0,1-.39.24.43.43,0,0,1-.31-.12.45.45,0,0,1-.13-.3.752.752,0,0,1,.07-.24l2.41-3.89a2.931,2.931,0,0,1-1,.14,3.34,3.34,0,0,1-1.67-.42,3.23,3.23,0,0,1-1.17-1.18,3.46,3.46,0,0,1,0-3.34,3.28,3.28,0,0,1,1.17-1.17,3.46,3.46,0,0,1,3.34,0,3.23,3.23,0,0,1,1.18,1.17,3.34,3.34,0,0,1,.42,1.67,3.27,3.27,0,0,1-.39,1.58h0Zm-5-.42a2.32,2.32,0,0,0,.88.88,2.37,2.37,0,0,0,1.24.33,2.4,2.4,0,0,0,1.24-.33,2.19,2.19,0,0,0,.88-.88,2.4,2.4,0,0,0,.33-1.24,2.37,2.37,0,0,0-.33-1.24,2.32,2.32,0,0,0-.88-.88,2.49,2.49,0,0,0-1.24-.32,2.4,2.4,0,0,0-2.44,2.44,2.49,2.49,0,0,0,.36,1.24Z"/><line class="g" x2="4" transform="translate(650.67 41.48)"/><path class="h" d="M713.47,5h7.76a.24.24,0,0,1,.24.24v7.41A1.35,1.35,0,0,1,720.11,14h-5.29a1.35,1.35,0,0,1-1.35-1.35V5Z"/><path class="i" d="M712,4.69h10.93"/><path class="j" d="M715.44,12.06V6.7"/><path class="j" d="M717.5,12.06V6.7"/><path class="j" d="M719.55,12.06V6.7"/><path class="k" d="M716.34,2.5h2.25A1.37,1.37,0,0,1,720,3.87V4.5h-5V3.87a1.37,1.37,0,0,1,1.34-1.37Z"/><rect class="a" width="108" height="26.99" rx="4" transform="translate(537.47 104.75)"/><line class="a" x2="27.85" transform="translate(361.62 84.76)"/><line class="a" x2="5.1" transform="translate(341.47 84.76)"/><line class="a" x2="23.97" transform="translate(723.5 84.76)"/><line class="a" x2="251.9" transform="translate(458.47 84.76)"/><path d="M402.08,88.8a.69.69,0,0,1-.21-.51V78.81a.71.71,0,0,1,.21-.53.73.73,0,0,1,.52-.2H406a3.59,3.59,0,0,1,1.66.37,2.78,2.78,0,0,1,1.5,2.55,2.1,2.1,0,0,1-.37,1.23,2.56,2.56,0,0,1-1,.88,2.68,2.68,0,0,1,1.5.9,2.65,2.65,0,0,1,.54,1.71,3.31,3.31,0,0,1-.45,1.71,3.15,3.15,0,0,1-1.28,1.17,4,4,0,0,1-1.85.42H402.6a.7.7,0,0,1-.52-.22ZM406,82.57a2,2,0,0,0,1.32-.4,1.44,1.44,0,0,0,.49-1.18,1.42,1.42,0,0,0-.49-1.17,2.08,2.08,0,0,0-1.32-.4h-2.62v3.15Zm.29,5.1a2.36,2.36,0,0,0,1.58-.51,1.81,1.81,0,0,0,.6-1.45,1.6,1.6,0,0,0-.59-1.33,2.52,2.52,0,0,0-1.59-.46h-2.91v3.75Z"/><path d="M412.45,88.68a2.08,2.08,0,0,1-.75-.92,3.21,3.21,0,0,1-.27-1.34V78.78a.67.67,0,0,1,.2-.5.65.65,0,0,1,.5-.2.668.668,0,0,1,.7.7v7.64a1.71,1.71,0,0,0,.2.86.58.58,0,0,0,.5.33h.35a.6.6,0,0,1,.46.2.76.76,0,0,1,.17.5.62.62,0,0,1-.26.51,1.15,1.15,0,0,1-.69.19h0a1.86,1.86,0,0,1-1.11-.33Z"/><path d="M416.82,88.57a3.5,3.5,0,0,1-1.37-1.38,4.35,4.35,0,0,1,0-4,3.5,3.5,0,0,1,1.37-1.38,3.93,3.93,0,0,1,2-.5,3.84,3.84,0,0,1,2,.5,3.52,3.52,0,0,1,1.38,1.38,4.35,4.35,0,0,1,0,4,3.47,3.47,0,0,1-1.36,1.38,4.29,4.29,0,0,1-4.02,0Zm3.29-1.1a2.32,2.32,0,0,0,.88-.93,2.8,2.8,0,0,0,.31-1.35,2.9,2.9,0,0,0-.31-1.36,2.32,2.32,0,0,0-.88-.93,2.48,2.48,0,0,0-3.46.93,2.9,2.9,0,0,0-.32,1.36,2.809,2.809,0,0,0,.32,1.35,2.53,2.53,0,0,0,3.46.93Z"/><path d="M426.15,88.56a3.48,3.48,0,0,1-1.38-1.39,4,4,0,0,1-.5-2,4.15,4.15,0,0,1,.48-2,3.58,3.58,0,0,1,1.35-1.38,3.81,3.81,0,0,1,2-.5,3.48,3.48,0,0,1,2.75,1.26.52.52,0,0,1,.14.36.6.6,0,0,1-.31.52.51.51,0,0,1-.32.1.7.7,0,0,1-.55-.25,2.24,2.24,0,0,0-.76-.56,2.55,2.55,0,0,0-.95-.17,2.3,2.3,0,0,0-1.75.72,2.73,2.73,0,0,0-.67,1.91,2.81,2.81,0,0,0,.32,1.35,2.26,2.26,0,0,0,.88.93,2.44,2.44,0,0,0,1.29.34,2.3,2.3,0,0,0,1.54-.49.9.9,0,0,1,.52-.2.65.65,0,0,1,.63.63.5.5,0,0,1-.17.38,3.53,3.53,0,0,1-2.52.94A3.87,3.87,0,0,1,426.15,88.56Z"/><path d="M438.87,88.43a.63.63,0,0,1-.25.51.67.67,0,0,1-.45.17.6.6,0,0,1-.5-.25L435,85.57l-.7.62v2.14a.64.64,0,0,1-.19.49.66.66,0,0,1-.5.19.64.64,0,0,1-.68-.68V78.77a.64.64,0,0,1,.68-.69.66.66,0,0,1,.5.19.65.65,0,0,1,.19.5v5.69l3.4-3a.57.57,0,0,1,.43-.19.59.59,0,0,1,.48.23.62.62,0,0,1,0,.91L436,84.67,438.72,88a.6.6,0,0,1,.15.43Z"/><path d="M446.35,88.8a.67.67,0,0,1-.21-.5V79.76l-1,.43a1.12,1.12,0,0,1-.45.1.69.69,0,0,1-.51-.19.68.68,0,0,1-.21-.51.69.69,0,0,1,.12-.41.64.64,0,0,1,.35-.26l2.18-.78a.83.83,0,0,1,.27-.06.69.69,0,0,1,.5.2.74.74,0,0,1,.2.53V88.3a.67.67,0,0,1-.21.5.72.72,0,0,1-.52.21A.67.67,0,0,1,446.35,88.8Z"/><path class="f" d="M353.97,80.76l-4.5,5h9Z"/><path d="M547.11,121.64a.33.33,0,0,1-.11-.25v-8.15l-1.43.47a.44.44,0,0,1-.15,0,.33.33,0,0,1-.26-.1.37.37,0,0,1,.12-.61l1.84-.61.25-.06a.4.4,0,0,1,.26.1.35.35,0,0,1,.1.26v8.67a.32.32,0,0,1-.1.25.36.36,0,0,1-.52,0Z"/><path d="M549.82,121.64a.33.33,0,0,1-.11-.25.4.4,0,0,1,.11-.27l3.79-4.51a2.271,2.271,0,0,0,.43-.68,2.071,2.071,0,0,0,.17-.77,2.149,2.149,0,0,0-.26-1,1.88,1.88,0,0,0-.7-.75,1.83,1.83,0,0,0-1-.27,1.89,1.89,0,0,0-1,.27,2,2,0,0,0-.7.75,2.15,2.15,0,0,0-.26,1,.35.35,0,0,1-.1.26.38.38,0,0,1-.26.1.4.4,0,0,1-.26-.1.36.36,0,0,1-.11-.26,2.94,2.94,0,0,1,.35-1.43,2.62,2.62,0,0,1,2.33-1.37,2.53,2.53,0,0,1,1.36.37,2.66,2.66,0,0,1,1,1,2.93,2.93,0,0,1,.34,1.43,2.309,2.309,0,0,1-.22,1,4.39,4.39,0,0,1-.63,1l-3.3,3.87h4a.35.35,0,0,1,.26.11.36.36,0,0,1,.1.27.32.32,0,0,1-.1.25.35.35,0,0,1-.26.11h-4.74A.36.36,0,0,1,549.82,121.64Z"/><path d="M556.19,121.76a.57.57,0,0,1-.18-.43.58.58,0,0,1,.18-.43.59.59,0,0,1,.43-.17.58.58,0,0,1,.6.6.59.59,0,0,1-.17.43.58.58,0,0,1-.43.18.57.57,0,0,1-.43-.18Zm0-5.41a.57.57,0,0,1-.18-.44.6.6,0,0,1,.61-.6.54.54,0,0,1,.42.18.56.56,0,0,1,.18.42.57.57,0,0,1-.18.44.54.54,0,0,1-.42.18.58.58,0,0,1-.39-.18Z"/><path d="M559.71,121.18a3.47,3.47,0,0,1-1-1.62,9.75,9.75,0,0,1,0-5,3.57,3.57,0,0,1,1-1.62,2.29,2.29,0,0,1,3,0,3.55,3.55,0,0,1,.95,1.63A8.463,8.463,0,0,1,564,117a6.851,6.851,0,0,1-.73,3.46,2.28,2.28,0,0,1-2.06,1.25,2.17,2.17,0,0,1-1.5-.53Zm3-1.24a6.719,6.719,0,0,0,.52-2.9,6.5,6.5,0,0,0-.53-2.88,1.65,1.65,0,0,0-1.53-1.09,1.67,1.67,0,0,0-1.54,1.09,8.14,8.14,0,0,0,0,5.78,1.63,1.63,0,0,0,3.08,0Z"/><path d="M566.38,121.18a3.47,3.47,0,0,1-1-1.62,9.75,9.75,0,0,1,0-5,3.57,3.57,0,0,1,1-1.62,2.18,2.18,0,0,1,1.51-.57,2.15,2.15,0,0,1,1.51.57,3.56,3.56,0,0,1,1,1.63,8.459,8.459,0,0,1,.33,2.5,7,7,0,0,1-.73,3.46,2.3,2.3,0,0,1-2.07,1.25,2.18,2.18,0,0,1-1.55-.6Zm3-1.24a8.14,8.14,0,0,0,0-5.78,1.63,1.63,0,0,0-3.08,0,8.29,8.29,0,0,0,0,5.78,1.63,1.63,0,0,0,3.08,0Z"/><rect class="a" width="108" height="26.99" rx="4" transform="translate(660.47 104.75)"/><path d="M670.11,121.64a.33.33,0,0,1-.11-.25v-8.15l-1.43.47a.44.44,0,0,1-.15,0,.33.33,0,0,1-.26-.1.37.37,0,0,1,.12-.61l1.84-.61.25-.06a.4.4,0,0,1,.26.1.35.35,0,0,1,.1.26v8.67a.32.32,0,0,1-.1.25.36.36,0,0,1-.52,0Z"/><path d="M676.83,116.51a2.69,2.69,0,0,1,1,1,2.95,2.95,0,0,1,0,2.86,2.74,2.74,0,0,1-1,1,2.87,2.87,0,0,1-1.43.37,2.91,2.91,0,0,1-1.44-.37,2.671,2.671,0,0,1-1-1,2.77,2.77,0,0,1-.37-1.43,2.72,2.72,0,0,1,.34-1.36h0v-.07l.09-.14,2.94-4.81a.39.39,0,0,1,.33-.21.37.37,0,0,1,.27.11.36.36,0,0,1,.11.25.519.519,0,0,1-.07.21l-2.06,3.33a2.68,2.68,0,0,1,.83-.12A2.77,2.77,0,0,1,676.83,116.51Zm-.37,4.25a1.93,1.93,0,0,0,.75-.75,2.1,2.1,0,0,0,.28-1.06,2.16,2.16,0,0,0-.28-1.07,1.93,1.93,0,0,0-.75-.75,2,2,0,0,0-1.06-.28,2.06,2.06,0,0,0-1.07.28,1.93,1.93,0,0,0-.75.75,2.061,2.061,0,0,0-.28,1.07,2,2,0,0,0,.28,1.06,1.929,1.929,0,0,0,.75.75,2.06,2.06,0,0,0,1.07.28,2,2,0,0,0,1.06-.28Z"/><path d="M679.2,121.76a.57.57,0,0,1-.18-.43.58.58,0,0,1,.18-.43.59.59,0,0,1,.43-.17.56.56,0,0,1,.43.17.58.58,0,0,1,.18.43.607.607,0,0,1-1.04.43Zm0-5.41a.57.57,0,0,1-.18-.44.59.59,0,0,1,.17-.42.6.6,0,0,1,.44-.18.58.58,0,0,1,.43.18.59.59,0,0,1,.17.42.6.6,0,0,1-1.03.44Z"/><path d="M682.72,121.18a3.379,3.379,0,0,1-1-1.62,9.751,9.751,0,0,1,0-5,3.48,3.48,0,0,1,1-1.62,2.18,2.18,0,0,1,1.51-.57,2.15,2.15,0,0,1,1.51.57,3.56,3.56,0,0,1,1,1.63A8.462,8.462,0,0,1,687,117a6.84,6.84,0,0,1-.74,3.46,2.27,2.27,0,0,1-2.06,1.25,2.18,2.18,0,0,1-1.48-.53Zm3-1.24a8.29,8.29,0,0,0,0-5.78,1.63,1.63,0,0,0-3.07,0,6.5,6.5,0,0,0-.53,2.88,6.719,6.719,0,0,0,.52,2.9,1.63,1.63,0,0,0,3.08,0Z"/><path d="M689.4,121.18a3.47,3.47,0,0,1-1-1.62,9.75,9.75,0,0,1,0-5,3.57,3.57,0,0,1,1-1.62,2.16,2.16,0,0,1,1.5-.57,2.19,2.19,0,0,1,1.52.57,3.63,3.63,0,0,1,1,1.63,8.459,8.459,0,0,1,.33,2.5,6.85,6.85,0,0,1-.73,3.46,2.3,2.3,0,0,1-2.07,1.25,2.16,2.16,0,0,1-1.55-.6Zm3.05-1.24A6.868,6.868,0,0,0,693,117a6.639,6.639,0,0,0-.53-2.88,1.63,1.63,0,0,0-3.07,0,6.5,6.5,0,0,0-.53,2.88,6.719,6.719,0,0,0,.52,2.9,1.64,1.64,0,0,0,3.09,0Z"/><path d="M384.24,122.88a.41.41,0,0,1-.12-.3v-9.51l-1.67.55a.739.739,0,0,1-.18,0,.41.41,0,0,1-.42-.42.4.4,0,0,1,.26-.41l2.15-.71a1.449,1.449,0,0,1,.29-.07.41.41,0,0,1,.42.42v10.11a.41.41,0,0,1-.42.42.45.45,0,0,1-.31-.08Z"/><path d="M389.25,122.88a.41.41,0,0,1-.12-.3v-9.51l-1.67.55a.58.58,0,0,1-.18,0,.41.41,0,0,1-.42-.42.4.4,0,0,1,.27-.41l2.14-.71.29-.07a.41.41,0,0,1,.42.42v10.11a.41.41,0,0,1-.42.42.45.45,0,0,1-.31-.08Z"/><path d="M396.28,122.26a.46.46,0,0,1,.11.32.4.4,0,0,1-.43.42h-.32a2.68,2.68,0,0,1-1.37-.35,2.55,2.55,0,0,1-.94-1,2.77,2.77,0,0,1-.34-1.38v-3.94H391.9a.36.36,0,0,1-.27-.1.37.37,0,0,1-.11-.27.38.38,0,0,1,.11-.28.36.36,0,0,1,.27-.1H393V113.3a.44.44,0,0,1,.12-.32.43.43,0,0,1,.74.32v2.28h1.84a.35.35,0,0,1,.38.38.36.36,0,0,1-.1.27.37.37,0,0,1-.28.1h-1.84v3.94a1.78,1.78,0,0,0,.5,1.32,1.76,1.76,0,0,0,1.3.51H396A.44.44,0,0,1,396.28,122.26Z"/><path d="M403.33,115.66a3,3,0,0,1,1.26,1.22,3.91,3.91,0,0,1,.46,1.93v3.77a.41.41,0,0,1-.42.42.38.38,0,0,1-.3-.12.41.41,0,0,1-.12-.3v-3.77a2.64,2.64,0,0,0-.75-2,2.74,2.74,0,0,0-2-.7,3.17,3.17,0,0,0-1.35.29,2.41,2.41,0,0,0-1,.79,2,2,0,0,0-.35,1.13v4.29a.4.4,0,0,1-.42.42.41.41,0,0,1-.42-.42v-10.1a.41.41,0,0,1,.12-.31.44.44,0,0,1,.3-.11.43.43,0,0,1,.31.11.41.41,0,0,1,.11.31v4a3.28,3.28,0,0,1,1.17-.92,3.36,3.36,0,0,1,1.49-.33,3.89,3.89,0,0,1,1.91.4Z"/><path d="M412.23,122.69a3.23,3.23,0,0,1-1.18-1.17,3.1,3.1,0,0,1-.43-1.6.41.41,0,0,1,.12-.31.46.46,0,0,1,.6,0,.41.41,0,0,1,.12.31,2.27,2.27,0,0,0,.33,1.19,2.47,2.47,0,0,0,.87.86,2.317,2.317,0,0,0,3.21-.84,2.35,2.35,0,0,0,.32-1.18v-7.44a.38.38,0,0,1,.13-.3.4.4,0,0,1,.29-.12.41.41,0,0,1,.42.42v7.44a3.16,3.16,0,0,1-.43,1.61,3.23,3.23,0,0,1-1.18,1.17,3.12,3.12,0,0,1-1.61.44,3,3,0,0,1-1.58-.48Z"/><path d="M425.08,115.76a3.74,3.74,0,0,1,1.41,1.41,4,4,0,0,1,.51,2v3.41a.44.44,0,0,1-.11.3.425.425,0,0,1-.73-.3v-1.1a3.189,3.189,0,0,1-1.27,1.17,3.74,3.74,0,0,1-1.8.43,4,4,0,0,1-2-.51,3.67,3.67,0,0,1-1.41-1.41,4.16,4.16,0,0,1,0-4,3.74,3.74,0,0,1,1.41-1.41,4.16,4.16,0,0,1,4,0Zm-.42,6.13a2.89,2.89,0,0,0,1.1-1.12,3.38,3.38,0,0,0,0-3.19,3,3,0,0,0-1.1-1.13,3.21,3.21,0,0,0-3.14,0,3.06,3.06,0,0,0-1.1,1.13,3.16,3.16,0,0,0-.41,1.59,3.2,3.2,0,0,0,.41,1.6,3,3,0,0,0,1.1,1.12,3.21,3.21,0,0,0,3.14,0Z"/><path d="M434.29,115.66a3.06,3.06,0,0,1,1.25,1.22,3.8,3.8,0,0,1,.46,1.93v3.77a.42.42,0,0,1-.84,0v-3.77a2.64,2.64,0,0,0-.75-2,2.73,2.73,0,0,0-2-.7,3.11,3.11,0,0,0-1.35.29,2.28,2.28,0,0,0-1,.79,1.93,1.93,0,0,0-.35,1.13v4.29a.44.44,0,0,1-.11.3.425.425,0,0,1-.73-.3v-6.82a.4.4,0,0,1,.12-.31.44.44,0,0,1,.3-.11.45.45,0,0,1,.31.11.43.43,0,0,1,.11.31v.73a3.25,3.25,0,0,1,1.16-.92,3.43,3.43,0,0,1,1.5-.33,3.92,3.92,0,0,1,1.92.39Z"/><path d="M445,115.45a.43.43,0,0,1,.11.31v6.82a.44.44,0,0,1-.11.3.4.4,0,0,1-.31.12.41.41,0,0,1-.42-.42v-.73a3.22,3.22,0,0,1-1.16.91,3.43,3.43,0,0,1-1.5.33,3.92,3.92,0,0,1-1.83-.42,3.08,3.08,0,0,1-1.26-1.22,3.91,3.91,0,0,1-.45-1.93v-3.76a.42.42,0,1,1,.84,0v3.76a2.63,2.63,0,0,0,.75,2,2.73,2.73,0,0,0,1.95.7A3.11,3.11,0,0,0,443,122a2.3,2.3,0,0,0,1-.8,2,2,0,0,0,.35-1.13v-4.28a.4.4,0,0,1,.12-.31.44.44,0,0,1,.3-.11.43.43,0,0,1,.23.08Z"/><path d="M453,115.76a3.74,3.74,0,0,1,1.41,1.41,4,4,0,0,1,.51,2v3.41a.44.44,0,0,1-.11.3.425.425,0,0,1-.73-.3v-1.1a3.19,3.19,0,0,1-1.27,1.17,3.74,3.74,0,0,1-1.8.43,4,4,0,0,1-2-.51,3.67,3.67,0,0,1-1.41-1.41,4.16,4.16,0,0,1,0-4,3.74,3.74,0,0,1,1.41-1.41,4.16,4.16,0,0,1,4,0Zm-.42,6.13a2.89,2.89,0,0,0,1.1-1.12,3.3,3.3,0,0,0,.4-1.6,3.26,3.26,0,0,0-.4-1.59,3,3,0,0,0-1.1-1.13,3.21,3.21,0,0,0-3.14,0,3.06,3.06,0,0,0-1.1,1.13,3.16,3.16,0,0,0-.41,1.59,3.2,3.2,0,0,0,.41,1.6,3,3,0,0,0,1.1,1.12,3.21,3.21,0,0,0,3.14,0Z"/><path d="M461.2,115.72v.11a.37.37,0,0,1-.14.21.36.36,0,0,1-.24.07h-.68a2.53,2.53,0,0,0-1.24.3,2.07,2.07,0,0,0-.85.81,2.17,2.17,0,0,0-.31,1.16v4.26a.44.44,0,0,1-.11.3.41.41,0,0,1-.31.12.39.39,0,0,1-.3-.12.41.41,0,0,1-.12-.3v-6.82a.4.4,0,0,1,.12-.31.42.42,0,0,1,.3-.11.45.45,0,0,1,.31.11.43.43,0,0,1,.11.31v.87a2.93,2.93,0,0,1,1-1,2.73,2.73,0,0,1,1.37-.37C460.84,115.25,461.2,115.41,461.2,115.72Z"/><path d="M469.24,115.67a.58.58,0,0,1-.06.2l-4.71,10.19a.36.36,0,0,1-.32.25.5.5,0,0,1-.19,0c-.18-.07-.27-.18-.27-.32a.651.651,0,0,1,.06-.2l1.4-3-.06-.1L462,115.91a.46.46,0,0,1-.06-.22.34.34,0,0,1,.24-.32.46.46,0,0,1,.22-.06.34.34,0,0,1,.32.24l2.85,6.21,2.85-6.2c.09-.17.19-.25.32-.25a.48.48,0,0,1,.2,0C469.15,115.43,469.24,115.53,469.24,115.67Z"/><path d="M474.37,122.88a.41.41,0,0,1-.12-.3.45.45,0,0,1,.12-.31L478.8,117a2.541,2.541,0,0,0,.49-.79,2.251,2.251,0,0,0,.21-.9,2.54,2.54,0,0,0-.3-1.23,2.34,2.34,0,0,0-.82-.86,2.23,2.23,0,0,0-2.3,0,2.34,2.34,0,0,0-.82.86,2.54,2.54,0,0,0-.3,1.23.41.41,0,0,1-.42.42.45.45,0,0,1-.31-.12.41.41,0,0,1-.12-.3,3.44,3.44,0,0,1,.4-1.67,3.15,3.15,0,0,1,1.12-1.17,3.11,3.11,0,0,1,1.6-.42,3,3,0,0,1,1.59.42,3.171,3.171,0,0,1,1.13,1.17,3.549,3.549,0,0,1,.4,1.67,2.84,2.84,0,0,1-.26,1.2,5,5,0,0,1-.73,1.11l-3.85,4.52h4.7a.38.38,0,0,1,.3.13.425.425,0,0,1-.3.73h-5.53a.45.45,0,0,1-.31-.12Z"/><path d="M483.33,122.34a4.08,4.08,0,0,1-1.12-1.89,11.24,11.24,0,0,1,0-5.87,4.16,4.16,0,0,1,1.12-1.9,2.53,2.53,0,0,1,1.75-.66,2.56,2.56,0,0,1,1.77.66,4.32,4.32,0,0,1,1.11,1.91,9.759,9.759,0,0,1,.38,2.92,8,8,0,0,1-.85,4,2.67,2.67,0,0,1-2.41,1.46,2.53,2.53,0,0,1-1.75-.63Zm3.55-1.45a9.64,9.64,0,0,0,0-6.75,1.9,1.9,0,0,0-3.59,0,7.8,7.8,0,0,0-.62,3.37,8,8,0,0,0,.61,3.38,1.91,1.91,0,0,0,3.6,0Z"/><path d="M491.65,122.88a.38.38,0,0,1-.13-.3v-9.51l-1.66.55a.72.72,0,0,1-.19,0,.41.41,0,0,1-.42-.42.4.4,0,0,1,.27-.41l2.14-.71a1.639,1.639,0,0,1,.3-.07.41.41,0,0,1,.42.42v10.11a.467.467,0,0,1-.73.34Z"/><path d="M500.37,117l-.1.16-3.43,5.62a.45.45,0,0,1-.39.24.46.46,0,0,1-.31-.13.4.4,0,0,1-.12-.29.49.49,0,0,1,.07-.24l2.4-3.89a3.18,3.18,0,0,1-1,.14,3.35,3.35,0,0,1-1.67-.43,3.23,3.23,0,0,1-1.17-1.18,3.53,3.53,0,0,1,0-3.34,3.28,3.28,0,0,1,1.17-1.17,3.53,3.53,0,0,1,3.34,0,3.23,3.23,0,0,1,1.18,1.17,3.34,3.34,0,0,1,.42,1.67,3.22,3.22,0,0,1-.39,1.58h0Zm-5-.42a2.4,2.4,0,0,0,2.12,1.2,2.53,2.53,0,0,0,1.25-.32,2.47,2.47,0,0,0,.88-.88,2.53,2.53,0,0,0,.32-1.25,2.46,2.46,0,0,0-.32-1.24,2.37,2.37,0,0,0-.88-.87,2.492,2.492,0,0,0-3.37.87,2.46,2.46,0,0,0-.32,1.24,2.529,2.529,0,0,0,.36,1.23Z"/><line class="g" x2="4" transform="translate(650.67 118.24)"/><path class="h" d="M713.47,81.76h7.76a.24.24,0,0,1,.24.24v7.41a1.35,1.35,0,0,1-1.35,1.35h-5.29a1.35,1.35,0,0,1-1.35-1.35V81.76Z"/><path class="i" d="M712,81.46h10.93"/><path class="j" d="M715.44,88.82V83.46"/><path class="j" d="M717.5,88.82V83.46"/><path class="j" d="M719.55,88.82V83.46"/><path class="k" d="M716.34,79.26h2.25A1.37,1.37,0,0,1,720,80.64v.63h-5v-.63A1.37,1.37,0,0,1,716.34,79.26Z"/><rect class="a" width="108" height="26.99" rx="4" transform="translate(537.47 181.51)"/><line class="a" x2="27.85" transform="translate(361.62 161.53)"/><line class="a" x2="5.1" transform="translate(341.47 161.53)"/><line class="a" x2="23.97" transform="translate(723.5 161.53)"/><line class="a" x2="251.9" transform="translate(458.47 161.53)"/><path d="M402.08,165.57a.72.72,0,0,1-.21-.52v-9.48a.69.69,0,0,1,.21-.52.7.7,0,0,1,.52-.21H406a3.72,3.72,0,0,1,1.66.37,2.8,2.8,0,0,1,1.14,1,2.729,2.729,0,0,1,.41,1.5,2.15,2.15,0,0,1-.37,1.24,2.72,2.72,0,0,1-1,.88,2.72,2.72,0,0,1,1.5.89,2.65,2.65,0,0,1,.54,1.71,3.26,3.26,0,0,1-.45,1.71,3.17,3.17,0,0,1-1.28,1.18,4,4,0,0,1-1.85.42h-3.7a.7.7,0,0,1-.52-.17Zm3.87-6.23a2,2,0,0,0,1.32-.41,1.43,1.43,0,0,0,.49-1.18,1.39,1.39,0,0,0-.49-1.16,2,2,0,0,0-1.32-.4h-2.62v3.15Zm.29,5.09a2.36,2.36,0,0,0,1.58-.51,1.79,1.79,0,0,0,.6-1.45,1.6,1.6,0,0,0-.59-1.33,2.52,2.52,0,0,0-1.59-.46h-2.91v3.75Z"/><path d="M412.45,165.45a2.11,2.11,0,0,1-.75-.93,3.16,3.16,0,0,1-.27-1.33v-7.65a.68.68,0,0,1,.7-.7.69.69,0,0,1,.51.2.68.68,0,0,1,.19.5v7.65a1.67,1.67,0,0,0,.2.85.59.59,0,0,0,.5.34h.35a.59.59,0,0,1,.46.19.77.77,0,0,1,.17.51.61.61,0,0,1-.26.5,1.15,1.15,0,0,1-.69.2h0a1.86,1.86,0,0,1-1.11-.33Z"/><path d="M416.82,165.34a3.63,3.63,0,0,1-1.37-1.38,4.37,4.37,0,0,1,0-4,3.5,3.5,0,0,1,1.37-1.38,4,4,0,0,1,2-.5,3.94,3.94,0,0,1,2,.5,3.52,3.52,0,0,1,1.38,1.38,4.37,4.37,0,0,1,0,4,3.6,3.6,0,0,1-1.36,1.38,4.368,4.368,0,0,1-4.02,0Zm3.29-1.1a2.46,2.46,0,0,0,.88-.93,3.12,3.12,0,0,0,0-2.71,2.35,2.35,0,0,0-.88-.94,2.47,2.47,0,0,0-3.46.94,3,3,0,0,0,0,2.71,2.559,2.559,0,0,0,.89.93,2.67,2.67,0,0,0,2.57,0Z"/><path d="M426.15,165.33a3.61,3.61,0,0,1-1.38-1.39,4.049,4.049,0,0,1-.5-2,4.14,4.14,0,0,1,.48-2,3.54,3.54,0,0,1,1.35-1.39,3.91,3.91,0,0,1,2-.5,3.48,3.48,0,0,1,2.75,1.26.57.57,0,0,1,.14.37.6.6,0,0,1-.31.51.51.51,0,0,1-.32.1.7.7,0,0,1-.55-.25,2.08,2.08,0,0,0-.76-.55,2.37,2.37,0,0,0-.95-.18,2.3,2.3,0,0,0-1.75.72,2.73,2.73,0,0,0-.67,1.91,2.87,2.87,0,0,0,.32,1.36,2.38,2.38,0,0,0,.88.93,2.53,2.53,0,0,0,1.29.33,2.3,2.3,0,0,0,1.54-.49.88.88,0,0,1,.52-.19.65.65,0,0,1,.37.12.67.67,0,0,1,.26.51.48.48,0,0,1-.17.37,3.53,3.53,0,0,1-2.52.94A4,4,0,0,1,426.15,165.33Z"/><path d="M438.87,165.19a.65.65,0,0,1-.25.52.71.71,0,0,1-.45.16.6.6,0,0,1-.5-.25L435,162.33l-.7.62v2.14a.66.66,0,0,1-.19.5.7.7,0,0,1-.5.19.72.72,0,0,1-.5-.19.7.7,0,0,1-.18-.5v-9.56a.7.7,0,0,1,.18-.5.72.72,0,0,1,.5-.19.7.7,0,0,1,.5.19.66.66,0,0,1,.19.5v5.7l3.4-3a.6.6,0,0,1,.43-.18.58.58,0,0,1,.48.22.6.6,0,0,1,.18.43.58.58,0,0,1-.22.48l-2.58,2.3,2.72,3.33A.6.6,0,0,1,438.87,165.19Z"/><path d="M446.35,165.57a.69.69,0,0,1-.21-.51v-8.54l-1,.44a1.29,1.29,0,0,1-.45.09.69.69,0,0,1-.51-.19.66.66,0,0,1-.21-.51.73.73,0,0,1,.12-.41.64.64,0,0,1,.35-.26l2.18-.78a.83.83,0,0,1,.27-.06.66.66,0,0,1,.5.21.72.72,0,0,1,.2.52v9.49a.69.69,0,0,1-.21.51.72.72,0,0,1-.52.21.67.67,0,0,1-.51-.21Z"/><path class="f" d="M353.97,157.53l-4.5,5h9Z"/><path d="M547.11,198.41a.36.36,0,0,1-.11-.26V190l-1.43.47h-.15a.33.33,0,0,1-.26-.1.34.34,0,0,1-.11-.25.33.33,0,0,1,.23-.35l1.84-.62.25-.06a.36.36,0,0,1,.26.11.32.32,0,0,1,.1.25v8.67a.35.35,0,0,1-.1.26.39.39,0,0,1-.52,0Z"/><path d="M549.82,198.41a.36.36,0,0,1-.11-.26.4.4,0,0,1,.11-.27l3.79-4.51a2.151,2.151,0,0,0,.43-.68,2.071,2.071,0,0,0,.17-.77,2.209,2.209,0,0,0-.26-1,1.85,1.85,0,0,0-.7-.74,1.83,1.83,0,0,0-1-.27,1.89,1.89,0,0,0-1,.27,1.92,1.92,0,0,0-.7.74,2.209,2.209,0,0,0-.26,1,.35.35,0,0,1-.1.26.34.34,0,0,1-.26.1.35.35,0,0,1-.26-.1.36.36,0,0,1-.11-.26,3,3,0,0,1,.35-1.43,2.56,2.56,0,0,1,1-1,2.65,2.65,0,0,1,1.37-.37,2.62,2.62,0,0,1,1.36.37,2.66,2.66,0,0,1,1,1,3,3,0,0,1,.34,1.43,2.379,2.379,0,0,1-.22,1,4.588,4.588,0,0,1-.63,1l-3.3,3.88h4a.34.34,0,0,1,.26.1.38.38,0,0,1,.1.27.35.35,0,0,1-.1.26.38.38,0,0,1-.26.1h-4.74a.4.4,0,0,1-.27-.12Z"/><path d="M556.19,198.53a.6.6,0,0,1-.18-.44.58.58,0,0,1,.18-.43.63.63,0,0,1,.43-.17.61.61,0,0,1,.43.17.63.63,0,0,1,0,.86.58.58,0,0,1-.43.18.6.6,0,0,1-.43-.17Zm0-5.42a.57.57,0,0,1-.18-.43.61.61,0,0,1,.17-.43.58.58,0,0,1,.44-.17.54.54,0,0,1,.42.17.58.58,0,0,1,.18.43.57.57,0,0,1-.18.43.54.54,0,0,1-.42.18.58.58,0,0,1-.39-.18Z"/><path d="M559.71,197.94a3.47,3.47,0,0,1-1-1.62,9.71,9.71,0,0,1,0-5,3.56,3.56,0,0,1,1-1.63,2.29,2.29,0,0,1,3,0,3.55,3.55,0,0,1,.95,1.63,8.461,8.461,0,0,1,.33,2.5,6.819,6.819,0,0,1-.73,3.46,2.28,2.28,0,0,1-2.06,1.25A2.17,2.17,0,0,1,559.71,197.94Zm3-1.24a6.72,6.72,0,0,0,.52-2.9,6.5,6.5,0,0,0-.53-2.88,1.65,1.65,0,0,0-1.53-1.09,1.67,1.67,0,0,0-1.54,1.09,8.14,8.14,0,0,0,0,5.78,1.63,1.63,0,0,0,3.08,0Z"/><path d="M566.38,197.94a3.47,3.47,0,0,1-1-1.62,9.71,9.71,0,0,1,0-5,3.56,3.56,0,0,1,1-1.63,2.18,2.18,0,0,1,1.51-.57,2.15,2.15,0,0,1,1.51.57,3.561,3.561,0,0,1,1,1.63,8.459,8.459,0,0,1,.33,2.5,6.931,6.931,0,0,1-.73,3.46,2.3,2.3,0,0,1-2.07,1.25A2.18,2.18,0,0,1,566.38,197.94Zm3-1.24a8.14,8.14,0,0,0,0-5.78,1.63,1.63,0,0,0-3.08,0,8.29,8.29,0,0,0,0,5.78,1.63,1.63,0,0,0,3.08,0Z"/><rect class="a" width="108" height="26.99" rx="4" transform="translate(660.47 181.51)"/><path d="M670.11,198.41a.36.36,0,0,1-.11-.26V190l-1.43.47h-.15a.33.33,0,0,1-.26-.1.34.34,0,0,1-.11-.25.33.33,0,0,1,.23-.35l1.84-.62.25-.06a.36.36,0,0,1,.26.11.32.32,0,0,1,.1.25v8.67a.35.35,0,0,1-.1.26.39.39,0,0,1-.52,0Z"/><path d="M676.83,193.27a2.77,2.77,0,0,1,1,1,2.95,2.95,0,0,1,0,2.86,2.74,2.74,0,0,1-1,1,2.77,2.77,0,0,1-1.43.37,2.81,2.81,0,0,1-1.44-.37,2.67,2.67,0,0,1-1-1,2.75,2.75,0,0,1-.37-1.43,2.681,2.681,0,0,1,.34-1.35h0v-.08l.09-.14,2.94-4.81a.39.39,0,0,1,.33-.21.37.37,0,0,1,.27.11.36.36,0,0,1,.11.25.519.519,0,0,1-.07.21L674.57,193a2.68,2.68,0,0,1,.83-.12,2.87,2.87,0,0,1,1.43.39Zm-.37,4.25a1.93,1.93,0,0,0,.75-.75,2.15,2.15,0,0,0,0-2.12,1.89,1.89,0,0,0-.75-.76,2.12,2.12,0,0,0-1.06-.28,2.16,2.16,0,0,0-1.07.28,1.89,1.89,0,0,0-.75.76,2.15,2.15,0,0,0,0,2.12,1.93,1.93,0,0,0,.75.75,2.06,2.06,0,0,0,1.07.28A2,2,0,0,0,676.46,197.52Z"/><path d="M679.2,198.53a.6.6,0,0,1-.18-.44.58.58,0,0,1,.18-.43.63.63,0,0,1,.43-.17.6.6,0,0,1,.43,1.03.57.57,0,0,1-.43.18A.6.6,0,0,1,679.2,198.53Zm0-5.42a.57.57,0,0,1-.18-.43.61.61,0,0,1,.17-.43.6.6,0,0,1,.44-.17.57.57,0,0,1,.43.17.61.61,0,0,1,.17.43.6.6,0,0,1-1.03.43Z"/><path d="M682.72,197.94a3.38,3.38,0,0,1-1-1.62,9.71,9.71,0,0,1,0-5,3.461,3.461,0,0,1,1-1.63,2.18,2.18,0,0,1,1.51-.57,2.15,2.15,0,0,1,1.51.57,3.56,3.56,0,0,1,1,1.63,8.457,8.457,0,0,1,.33,2.5,6.82,6.82,0,0,1-.74,3.46,2.27,2.27,0,0,1-2.06,1.25,2.18,2.18,0,0,1-1.55-.59Zm3-1.24a8.29,8.29,0,0,0,0-5.78,1.63,1.63,0,0,0-3.07,0,6.5,6.5,0,0,0-.53,2.88,6.719,6.719,0,0,0,.52,2.9,1.63,1.63,0,0,0,3.08,0Z"/><path d="M689.4,197.94a3.47,3.47,0,0,1-1-1.62,9.711,9.711,0,0,1,0-5,3.56,3.56,0,0,1,1-1.63,2.16,2.16,0,0,1,1.5-.57,2.19,2.19,0,0,1,1.52.57,3.63,3.63,0,0,1,1,1.63,8.459,8.459,0,0,1,.33,2.5,6.82,6.82,0,0,1-.73,3.46,2.3,2.3,0,0,1-2.07,1.25,2.16,2.16,0,0,1-1.55-.59Zm3.05-1.24a6.869,6.869,0,0,0,.52-2.9,6.64,6.64,0,0,0-.53-2.88,1.63,1.63,0,0,0-3.07,0,6.5,6.5,0,0,0-.53,2.88,6.719,6.719,0,0,0,.52,2.9,1.64,1.64,0,0,0,3.09,0Z"/><path d="M384.24,199.64a.41.41,0,0,1-.12-.3v-9.51l-1.67.55a.45.45,0,0,1-.18,0,.43.43,0,0,1-.16-.83l2.15-.71a1.449,1.449,0,0,1,.29-.07.41.41,0,0,1,.42.42V199.3a.41.41,0,0,1-.42.42.45.45,0,0,1-.31-.08Z"/><path d="M393.24,194.78a3.07,3.07,0,0,1,.49,1.7,3.41,3.41,0,0,1-.43,1.72,3.22,3.22,0,0,1-1.18,1.22,3.43,3.43,0,0,1-3.36,0,3.23,3.23,0,0,1-1.19-1.19,3.5,3.5,0,0,1-.43-1.71,3.12,3.12,0,0,1,.49-1.73,3,3,0,0,1,1.32-1.15,2.54,2.54,0,0,1-.86-.95,2.83,2.83,0,0,1-.31-1.3,2.57,2.57,0,0,1,.35-1.31,2.52,2.52,0,0,1,1-.92,2.87,2.87,0,0,1,1.37-.34,2.72,2.72,0,0,1,1.34.33,2.46,2.46,0,0,1,1.28,2.21,2.91,2.91,0,0,1-.31,1.31,2.679,2.679,0,0,1-.85,1,3,3,0,0,1,1.28,1.11Zm-.7.48a2.27,2.27,0,0,0-.87-.87,2.45,2.45,0,0,0-1.23-.32,2.34,2.34,0,0,0-1.23.33,2.26,2.26,0,0,0-.87.89,2.54,2.54,0,0,0-.32,1.26,2.69,2.69,0,0,0,.32,1.3,2.31,2.31,0,0,0,.87.91,2.26,2.26,0,0,0,1.23.34,2.29,2.29,0,0,0,1.24-.34,2.44,2.44,0,0,0,.86-.94,2.791,2.791,0,0,0,.31-1.32,2.46,2.46,0,0,0-.31-1.24Zm-3.43-2.5a1.83,1.83,0,0,0,1.33.53,1.74,1.74,0,0,0,1.32-.55,1.89,1.89,0,0,0,.53-1.38,1.63,1.63,0,0,0-.53-1.25,1.85,1.85,0,0,0-1.32-.5,1.82,1.82,0,0,0-1.33.52,1.72,1.72,0,0,0-.53,1.28,1.85,1.85,0,0,0,.53,1.35Z"/><path d="M399.54,199a.44.44,0,0,1,.12.32.41.41,0,0,1-.12.3.44.44,0,0,1-.32.12h-.32a2.71,2.71,0,0,1-1.37-.35,2.41,2.41,0,0,1-.94-1,2.88,2.88,0,0,1-.34-1.38v-3.93h-1.09a.38.38,0,1,1,0-.76h1.09V190.1a.44.44,0,0,1,.12-.32.43.43,0,0,1,.74.32v2.28H399a.37.37,0,0,1,.27.11.41.41,0,0,1,0,.54.37.37,0,0,1-.27.11h-1.85v3.93a1.82,1.82,0,0,0,.5,1.32,1.76,1.76,0,0,0,1.3.51h.31A.44.44,0,0,1,399.54,199Z"/><path d="M406.59,192.42a3,3,0,0,1,1.26,1.23,3.76,3.76,0,0,1,.46,1.92v3.77a.42.42,0,0,1-.84,0v-3.77a2.66,2.66,0,0,0-.75-2,2.77,2.77,0,0,0-2-.7,3.11,3.11,0,0,0-1.35.29,2.3,2.3,0,0,0-1,.8,1.88,1.88,0,0,0-.35,1.12v4.29a.41.41,0,0,1-.12.3.38.38,0,0,1-.3.12.41.41,0,0,1-.31-.12.44.44,0,0,1-.11-.3v-10.1a.42.42,0,1,1,.84,0v4a3.27,3.27,0,0,1,1.16-.92,3.4,3.4,0,0,1,1.5-.33A3.85,3.85,0,0,1,406.59,192.42Z"/><path d="M415.49,199.46a3.42,3.42,0,0,1-1.18-1.18,3.07,3.07,0,0,1-.43-1.6.42.42,0,1,1,.84,0,2.27,2.27,0,0,0,.33,1.19,2.59,2.59,0,0,0,.87.87,2.36,2.36,0,0,0,1.19.32,2.33,2.33,0,0,0,1.19-.32,2.37,2.37,0,0,0,.87-.88,2.25,2.25,0,0,0,.32-1.18v-7.44a.42.42,0,0,1,.13-.3.4.4,0,0,1,.29-.12.38.38,0,0,1,.3.12.41.41,0,0,1,.12.3v7.44a3.22,3.22,0,0,1-4.84,2.78Z"/><path d="M428.34,192.53a3.72,3.72,0,0,1,1.41,1.4,4,4,0,0,1,.51,2v3.4a.44.44,0,0,1-.11.3.425.425,0,0,1-.73-.3v-1.09a3.34,3.34,0,0,1-1.27,1.17,3.79,3.79,0,0,1-1.8.42,4,4,0,0,1-2-.51,3.65,3.65,0,0,1-1.4-1.41,3.83,3.83,0,0,1-.52-2,3.91,3.91,0,0,1,.52-2,3.69,3.69,0,0,1,1.4-1.4,4.16,4.16,0,0,1,4,0Zm-.42,6.12a2.89,2.89,0,0,0,1.1-1.12,3.38,3.38,0,0,0,0-3.19,3,3,0,0,0-1.1-1.13,3.19,3.19,0,0,0-3.13,0,3,3,0,0,0-1.11,1.13,3.2,3.2,0,0,0-.41,1.6,3.16,3.16,0,0,0,.41,1.59,2.91,2.91,0,0,0,1.11,1.12,3.19,3.19,0,0,0,3.13,0Z"/><path d="M437.55,192.42a3.11,3.11,0,0,1,1.26,1.23,3.87,3.87,0,0,1,.45,1.92v3.77a.42.42,0,0,1-.84,0v-3.77a2.66,2.66,0,0,0-.75-2,2.77,2.77,0,0,0-1.95-.7,3.11,3.11,0,0,0-1.35.29,2.3,2.3,0,0,0-1,.8,2,2,0,0,0-.35,1.12v4.29a.44.44,0,0,1-.11.3.425.425,0,0,1-.73-.3v-6.82a.41.41,0,0,1,.12-.31.44.44,0,0,1,.3-.11.38.38,0,0,1,.42.42v.73a3.359,3.359,0,0,1,1.16-.92,3.43,3.43,0,0,1,1.5-.33,3.92,3.92,0,0,1,1.87.39Z"/><path d="M448.29,192.21a.41.41,0,0,1,.11.31v6.82a.4.4,0,0,1-.42.42.41.41,0,0,1-.42-.42v-.73a3.271,3.271,0,0,1-1.16.92,3.4,3.4,0,0,1-1.5.33,3.85,3.85,0,0,1-1.82-.42,3,3,0,0,1-1.26-1.23,3.76,3.76,0,0,1-.46-1.92v-3.77a.42.42,0,1,1,.84,0v3.77a2.66,2.66,0,0,0,.75,2,2.77,2.77,0,0,0,1.95.7,3.11,3.11,0,0,0,1.35-.29,2.3,2.3,0,0,0,1-.8,1.89,1.89,0,0,0,.35-1.13v-4.28a.41.41,0,0,1,.12-.31.44.44,0,0,1,.3-.11A.43.43,0,0,1,448.29,192.21Z"/><path d="M456.27,192.53a3.72,3.72,0,0,1,1.41,1.4,4,4,0,0,1,.51,2v3.4a.44.44,0,0,1-.11.3.425.425,0,0,1-.73-.3v-1.09a3.34,3.34,0,0,1-1.27,1.17,3.82,3.82,0,0,1-1.8.42,4,4,0,0,1-2-.51,3.58,3.58,0,0,1-1.4-1.41,3.83,3.83,0,0,1-.52-2,3.91,3.91,0,0,1,.52-2,3.62,3.62,0,0,1,1.4-1.4,4.16,4.16,0,0,1,4,0Zm-.42,6.12a2.89,2.89,0,0,0,1.1-1.12,3.38,3.38,0,0,0,0-3.19,3,3,0,0,0-1.1-1.13,3.21,3.21,0,0,0-3.14,0,3.06,3.06,0,0,0-1.1,1.13,3.2,3.2,0,0,0-.41,1.6,3.16,3.16,0,0,0,.41,1.59,3,3,0,0,0,1.1,1.12,3.21,3.21,0,0,0,3.14,0Z"/><path d="M464.46,192.48a.34.34,0,0,1,0,.11.35.35,0,0,1-.14.22.43.43,0,0,1-.24.06h-.67a2.57,2.57,0,0,0-1.25.3,2.14,2.14,0,0,0-.85.81,2.19,2.19,0,0,0-.31,1.16v4.26a.44.44,0,0,1-.11.3.425.425,0,0,1-.73-.3v-6.82a.41.41,0,0,1,.12-.31.44.44,0,0,1,.3-.11.38.38,0,0,1,.42.42v.87a3,3,0,0,1,1-1,2.7,2.7,0,0,1,1.37-.36C464.11,192,464.46,192.17,464.46,192.48Z"/><path d="M472.5,192.44a.618.618,0,0,1-.06.19l-4.7,10.19c-.09.17-.2.26-.32.26a.53.53,0,0,1-.2-.05c-.18-.07-.27-.18-.27-.32a.619.619,0,0,1,.06-.19l1.4-3-.06-.09-3.06-6.73a.43.43,0,0,1-.06-.22.34.34,0,0,1,.24-.32.46.46,0,0,1,.22-.06.34.34,0,0,1,.32.24l2.85,6.22,2.85-6.21c.09-.16.19-.25.33-.25a.65.65,0,0,1,.19,0Q472.5,192.23,472.5,192.44Z"/><path d="M477.63,199.64a.41.41,0,0,1-.12-.3.47.47,0,0,1,.12-.31l4.43-5.26a2.89,2.89,0,0,0,.5-.79,2.41,2.41,0,0,0-.1-2.13,2.29,2.29,0,0,0-.82-.87,2.23,2.23,0,0,0-2.3,0,2.29,2.29,0,0,0-.82.87,2.51,2.51,0,0,0-.3,1.22.42.42,0,0,1-.72.3.38.38,0,0,1-.13-.3,3.3,3.3,0,0,1,.41-1.66,2.91,2.91,0,0,1,1.11-1.17,3.1,3.1,0,0,1,4.32,1.17,3.4,3.4,0,0,1,.4,1.66,2.7,2.7,0,0,1-.26,1.2,4.713,4.713,0,0,1-.73,1.11l-3.85,4.52h4.7a.42.42,0,0,1,.3.13.43.43,0,0,1,.12.31.41.41,0,0,1-.42.42h-5.53a.45.45,0,0,1-.31-.12Z"/><path d="M486.59,199.1a4.08,4.08,0,0,1-1.12-1.89,11.239,11.239,0,0,1,0-5.87,4.08,4.08,0,0,1,1.12-1.89,2.65,2.65,0,0,1,3.52,0,4.28,4.28,0,0,1,1.11,1.9,9.79,9.79,0,0,1,.39,2.92,8,8,0,0,1-.86,4,2.67,2.67,0,0,1-2.41,1.46,2.53,2.53,0,0,1-1.75-.63Zm3.55-1.45a9.64,9.64,0,0,0,0-6.75,1.91,1.91,0,0,0-3.59,0,9.64,9.64,0,0,0,0,6.75,1.9,1.9,0,0,0,3.59,0Z"/><path d="M494.91,199.64a.41.41,0,0,1-.12-.3v-9.51l-1.67.55a.45.45,0,0,1-.18,0,.39.39,0,0,1-.3-.12.45.45,0,0,1,.14-.71l2.14-.71a1.64,1.64,0,0,1,.3-.07.41.41,0,0,1,.42.42V199.3a.41.41,0,0,1-.42.42A.43.43,0,0,1,494.91,199.64Z"/><path d="M503.63,193.74l-.09.17-3.44,5.61a.45.45,0,0,1-.39.24.42.42,0,0,1-.31-.13.4.4,0,0,1-.12-.29.491.491,0,0,1,.07-.24l2.41-3.89a3.289,3.289,0,0,1-1,.14,3.25,3.25,0,0,1-1.67-.43,3,3,0,0,1-1.16-1.17,3.28,3.28,0,0,1-.43-1.68,3.21,3.21,0,0,1,.43-1.66,3,3,0,0,1,1.16-1.17,3.46,3.46,0,0,1,3.34,0,3.08,3.08,0,0,1,1.18,1.17,3.31,3.31,0,0,1,.43,1.66,3.12,3.12,0,0,1-.4,1.58h0Zm-4.95-.42a2.3,2.3,0,0,0,.87.88,2.36,2.36,0,0,0,1.24.32,2.43,2.43,0,0,0,1.25-.32,2.4,2.4,0,0,0,.88-.88,2.58,2.58,0,0,0,0-2.49,2.42,2.42,0,0,0-2.13-1.19,2.38,2.38,0,0,0-2.11,1.19,2.51,2.51,0,0,0,0,2.49Z"/><line class="g" x2="4" transform="translate(650.67 195.01)"/><path class="h" d="M713.47,158.53h7.76a.24.24,0,0,1,.24.24v7.41a1.35,1.35,0,0,1-1.35,1.35h-5.29a1.35,1.35,0,0,1-1.35-1.35v-7.65Z"/><path class="i" d="M712,158.22h10.93"/><path class="j" d="M715.44,165.59v-5.36"/><path class="j" d="M717.5,165.59v-5.36"/><path class="j" d="M719.55,165.59v-5.36"/><path class="k" d="M716.34,156h2.25a1.37,1.37,0,0,1,1.41,1.4v.6h-5v-.63a1.37,1.37,0,0,1,1.34-1.37Z"/><rect class="a" width="108" height="26.99" rx="4" transform="translate(537.47 258.28)"/><line class="a" x2="27.85" transform="translate(361.62 238.29)"/><line class="a" x2="5.1" transform="translate(341.47 238.29)"/><line class="a" x2="23.97" transform="translate(723.5 238.29)"/><line class="a" x2="251.9" transform="translate(458.47 238.29)"/><path d="M402.08,242.33a.7.7,0,0,1-.21-.52v-9.48a.7.7,0,0,1,.73-.72H406a3.59,3.59,0,0,1,1.66.37,2.71,2.71,0,0,1,1.14,1,2.78,2.78,0,0,1,.41,1.51,2.1,2.1,0,0,1-.37,1.23,2.64,2.64,0,0,1-1,.88,2.68,2.68,0,0,1,1.5.9,2.63,2.63,0,0,1,.54,1.71,3.25,3.25,0,0,1-.45,1.7,3.11,3.11,0,0,1-1.28,1.18,4,4,0,0,1-1.85.42h-3.7a.7.7,0,0,1-.52-.18ZM406,236.1a2,2,0,0,0,1.32-.41,1.42,1.42,0,0,0,.49-1.17,1.4,1.4,0,0,0-.49-1.17A2,2,0,0,0,406,233h-2.62v3.15Zm.29,5.1a2.32,2.32,0,0,0,1.58-.52,1.79,1.79,0,0,0,.6-1.44,1.59,1.59,0,0,0-.59-1.33,2.53,2.53,0,0,0-1.59-.47h-2.91v3.76Z"/><path d="M412.45,242.21a2.14,2.14,0,0,1-.75-.92,3.24,3.24,0,0,1-.27-1.34v-7.64a.69.69,0,0,1,.2-.51.68.68,0,0,1,.5-.19.65.65,0,0,1,.7.7V240a1.67,1.67,0,0,0,.2.85.57.57,0,0,0,.5.34h.35a.6.6,0,0,1,.46.2.74.74,0,0,1,.17.5.61.61,0,0,1-.26.5,1.15,1.15,0,0,1-.69.2h0a1.86,1.86,0,0,1-1.11-.38Z"/><path d="M416.82,242.1a3.5,3.5,0,0,1-1.37-1.38,4.37,4.37,0,0,1,0-4,3.5,3.5,0,0,1,1.37-1.38,4,4,0,0,1,2-.49,3.93,3.93,0,0,1,2,.49,3.52,3.52,0,0,1,1.38,1.38,4.37,4.37,0,0,1,0,4,3.47,3.47,0,0,1-1.36,1.38,4.29,4.29,0,0,1-4.02,0Zm3.29-1.1a2.32,2.32,0,0,0,.88-.93,3.12,3.12,0,0,0,0-2.71,2.42,2.42,0,0,0-.88-.94,2.47,2.47,0,0,0-3.46.94,3,3,0,0,0,0,2.71,2.42,2.42,0,0,0,.89.93,2.6,2.6,0,0,0,2.57,0Z"/><path d="M426.15,242.09a3.55,3.55,0,0,1-1.38-1.39,4,4,0,0,1-.5-2,4.15,4.15,0,0,1,.48-2,3.61,3.61,0,0,1,1.35-1.39,3.91,3.91,0,0,1,2-.49,3.48,3.48,0,0,1,2.75,1.26.52.52,0,0,1,.14.36.62.62,0,0,1-.31.52.58.58,0,0,1-.32.1.71.71,0,0,1-.55-.26,2.2,2.2,0,0,0-.76-.55,2.37,2.37,0,0,0-.95-.17,2.3,2.3,0,0,0-1.75.72,2.71,2.71,0,0,0-.67,1.91,2.86,2.86,0,0,0,.32,1.35,2.26,2.26,0,0,0,.88.93,2.53,2.53,0,0,0,1.29.34,2.35,2.35,0,0,0,1.54-.49.83.83,0,0,1,.52-.2.6.6,0,0,1,.37.13.64.64,0,0,1,.26.5.5.5,0,0,1-.17.38,3.57,3.57,0,0,1-2.52.94A3.87,3.87,0,0,1,426.15,242.09Z"/><path d="M438.87,242a.64.64,0,0,1-.25.52.72.72,0,0,1-.45.17.63.63,0,0,1-.5-.25L435,239.1l-.7.61v2.14a.65.65,0,0,1-.69.69.68.68,0,0,1-.5-.19.7.7,0,0,1-.18-.5v-9.56a.62.62,0,0,1,.68-.68.7.7,0,0,1,.5.18.68.68,0,0,1,.19.5V238l3.4-3a.6.6,0,0,1,.43-.18.58.58,0,0,1,.48.22.6.6,0,0,1,.18.44.57.57,0,0,1-.22.47L436,238.2l2.72,3.33a.6.6,0,0,1,.15.47Z"/><path d="M446.35,242.33a.69.69,0,0,1-.21-.5v-8.54l-1,.43a1.12,1.12,0,0,1-.45.1.69.69,0,0,1-.51-.2.66.66,0,0,1-.21-.5.74.74,0,0,1,.12-.42.63.63,0,0,1,.35-.25l2.18-.79a.78.78,0,0,1,.27,0,.65.65,0,0,1,.5.2.72.72,0,0,1,.2.52v9.5a.69.69,0,0,1-.21.5.72.72,0,0,1-.52.21A.67.67,0,0,1,446.35,242.33Z"/><path class="f" d="M353.97,234.29l-4.5,5h9Z"/><path d="M547.11,275.17a.35.35,0,0,1-.11-.26v-8.15l-1.43.47a.309.309,0,0,1-.15,0,.36.36,0,0,1-.37-.36.34.34,0,0,1,.23-.35l1.84-.61.25-.06a.35.35,0,0,1,.26.1.34.34,0,0,1,.1.26v8.66a.34.34,0,0,1-.1.26.39.39,0,0,1-.52,0Z"/><path d="M549.82,275.17a.35.35,0,0,1-.11-.26.4.4,0,0,1,.11-.26l3.79-4.51a2.4,2.4,0,0,0,.43-.68,2.16,2.16,0,0,0,.17-.78,2.21,2.21,0,0,0-.26-1.05,1.92,1.92,0,0,0-.7-.74,1.83,1.83,0,0,0-1-.27,1.89,1.89,0,0,0-1,.27,2,2,0,0,0-.7.74,2.209,2.209,0,0,0-.26,1.05.34.34,0,0,1-.36.36.359.359,0,0,1-.37-.36,2.929,2.929,0,0,1,.35-1.42,2.59,2.59,0,0,1,1-1,2.64,2.64,0,0,1,1.37-.36,2.61,2.61,0,0,1,1.36.36,2.69,2.69,0,0,1,1,1,2.92,2.92,0,0,1,.34,1.42,2.38,2.38,0,0,1-.22,1,4.34,4.34,0,0,1-.63,1l-3.3,3.88h4a.358.358,0,0,1,.36.37.34.34,0,0,1-.36.36h-4.74A.35.35,0,0,1,549.82,275.17Z"/><path d="M556.19,275.29a.59.59,0,0,1-.18-.44.54.54,0,0,1,.18-.42.6.6,0,0,1,.43-.18.58.58,0,0,1,.43.18.54.54,0,0,1,.17.42.57.57,0,0,1-.17.43.58.58,0,0,1-.43.18.56.56,0,0,1-.43-.17Zm0-5.41a.59.59,0,0,1-.18-.44.61.61,0,0,1,.17-.43.62.62,0,0,1,.44-.17.57.57,0,0,1,.42.17.58.58,0,0,1,.18.43.59.59,0,0,1-.18.44.57.57,0,0,1-.42.17.61.61,0,0,1-.39-.17Z"/><path d="M559.71,274.71a3.57,3.57,0,0,1-1-1.62,8.56,8.56,0,0,1-.33-2.52,8.44,8.44,0,0,1,.33-2.51,3.61,3.61,0,0,1,1-1.63,2.29,2.29,0,0,1,3,0,3.581,3.581,0,0,1,.95,1.64,8.418,8.418,0,0,1,.33,2.5,6.809,6.809,0,0,1-.73,3.45,2.26,2.26,0,0,1-2.06,1.25,2.21,2.21,0,0,1-1.49-.56Zm3-1.24a6.749,6.749,0,0,0,.52-2.9,6.569,6.569,0,0,0-.53-2.89,1.65,1.65,0,0,0-1.53-1.08,1.68,1.68,0,0,0-1.54,1.08,8.169,8.169,0,0,0,0,5.79,1.64,1.64,0,0,0,3.08,0Z"/><path d="M566.38,274.71a3.571,3.571,0,0,1-1-1.62,8.9,8.9,0,0,1-.33-2.52,8.781,8.781,0,0,1,.33-2.51,3.61,3.61,0,0,1,1-1.63,2.18,2.18,0,0,1,1.51-.57,2.15,2.15,0,0,1,1.51.57,3.59,3.59,0,0,1,1,1.64,8.418,8.418,0,0,1,.33,2.5A6.91,6.91,0,0,1,570,274a2.28,2.28,0,0,1-2.07,1.25A2.22,2.22,0,0,1,566.38,274.71Zm3-1.24a8.17,8.17,0,0,0,0-5.79,1.64,1.64,0,0,0-3.08,0,8.319,8.319,0,0,0,0,5.79,1.64,1.64,0,0,0,3.08,0Z"/><rect class="a" width="108" height="26.99" rx="4" transform="translate(660.47 258.28)"/><path d="M670.11,275.17a.35.35,0,0,1-.11-.26v-8.15l-1.43.47a.31.31,0,0,1-.15,0,.36.36,0,0,1-.37-.36.34.34,0,0,1,.23-.35l1.84-.61.25-.06a.35.35,0,0,1,.26.1.34.34,0,0,1,.1.26v8.66a.34.34,0,0,1-.1.26.39.39,0,0,1-.52,0Z"/><path d="M676.83,270a2.77,2.77,0,0,1,1,1,2.909,2.909,0,0,1,.37,1.44,2.84,2.84,0,0,1-.37,1.42,2.77,2.77,0,0,1-1,1,2.87,2.87,0,0,1-1.43.36,2.9,2.9,0,0,1-1.44-.36,2.69,2.69,0,0,1-1-1,2.9,2.9,0,0,1,0-2.78h0v-.07l.09-.15,2.94-4.81a.4.4,0,0,1,.33-.2.33.33,0,0,1,.27.11.34.34,0,0,1,.11.25.531.531,0,0,1-.07.2l-2.06,3.34a2.68,2.68,0,0,1,.83-.12A2.87,2.87,0,0,1,676.83,270Zm-.37,4.26a2.069,2.069,0,0,0,.75-.75,2.17,2.17,0,0,0,0-2.13,2,2,0,0,0-.75-.76,2.12,2.12,0,0,0-1.06-.27,2.079,2.079,0,0,0-1.82,3.16,2.07,2.07,0,0,0,.75.75,2.15,2.15,0,0,0,1.07.27,2.12,2.12,0,0,0,1.06-.24Z"/><path d="M679.2,275.29a.59.59,0,0,1-.18-.44.54.54,0,0,1,.18-.42.6.6,0,0,1,.43-.18.57.57,0,0,1,.43.18.54.54,0,0,1,.18.42.58.58,0,0,1-.18.43.57.57,0,0,1-.43.18.56.56,0,0,1-.43-.17Zm0-5.41a.59.59,0,0,1-.18-.44.61.61,0,0,1,.17-.43.64.64,0,0,1,.44-.17.58.58,0,0,1,.6.6.62.62,0,0,1-.17.44.63.63,0,0,1-.86,0Z"/><path d="M682.72,274.71a3.48,3.48,0,0,1-1-1.62,8.241,8.241,0,0,1-.33-2.52,8.131,8.131,0,0,1,.33-2.51,3.51,3.51,0,0,1,1-1.63,2.18,2.18,0,0,1,1.51-.57,2.15,2.15,0,0,1,1.51.57,3.59,3.59,0,0,1,1,1.64,8.419,8.419,0,0,1,.33,2.5,6.8,6.8,0,0,1-.74,3.45,2.25,2.25,0,0,1-2.06,1.25A2.22,2.22,0,0,1,682.72,274.71Zm3-1.24a8.321,8.321,0,0,0,0-5.79,1.63,1.63,0,0,0-3.07,0,6.569,6.569,0,0,0-.53,2.89,6.75,6.75,0,0,0,.52,2.9,1.64,1.64,0,0,0,3.08,0Z"/><path d="M689.4,274.71a3.57,3.57,0,0,1-1-1.62,8.558,8.558,0,0,1-.33-2.52,8.441,8.441,0,0,1,.33-2.51,3.61,3.61,0,0,1,1-1.63,2.161,2.161,0,0,1,1.5-.57,2.19,2.19,0,0,1,1.52.57,3.67,3.67,0,0,1,1,1.64,8.42,8.42,0,0,1,.33,2.5A6.81,6.81,0,0,1,693,274a2.28,2.28,0,0,1-2.07,1.25A2.2,2.2,0,0,1,689.4,274.71Zm3.05-1.24a6.9,6.9,0,0,0,.52-2.9,6.721,6.721,0,0,0-.53-2.89,1.63,1.63,0,0,0-3.07,0,6.57,6.57,0,0,0-.53,2.89,6.75,6.75,0,0,0,.52,2.9,1.65,1.65,0,0,0,3.09,0Z"/><path d="M382.39,276.4a.41.41,0,0,1-.12-.3.48.48,0,0,1,.12-.31l4.43-5.26a2.891,2.891,0,0,0,.5-.79,2.411,2.411,0,0,0,.2-.9,2.54,2.54,0,0,0-.3-1.23,2.225,2.225,0,0,0-3.94,0,2.54,2.54,0,0,0-.3,1.23.41.41,0,0,1-.42.42.45.45,0,0,1-.31-.12.41.41,0,0,1-.12-.3,3.41,3.41,0,0,1,.4-1.67,3.1,3.1,0,0,1,5.44,0,3.41,3.41,0,0,1,.4,1.67,2.66,2.66,0,0,1-.26,1.19,5,5,0,0,1-.73,1.12l-3.85,4.52h4.7a.41.41,0,0,1,.3.12.45.45,0,0,1,.12.31.41.41,0,0,1-.42.42H382.7A.45.45,0,0,1,382.39,276.4Z"/><path d="M391.79,276.06a3.391,3.391,0,0,1-1.28-1.27,3.72,3.72,0,0,1-.46-1.81.45.45,0,0,1,.12-.31.41.41,0,0,1,.3-.12.43.43,0,0,1,.31.12.46.46,0,0,1,.13.31,2.66,2.66,0,0,0,.35,1.37,2.55,2.55,0,0,0,1,1,2.76,2.76,0,0,0,1.37.35,2.8,2.8,0,0,0,1.38-.35,2.55,2.55,0,0,0,1-1,2.86,2.86,0,0,0,0-2.74,2.58,2.58,0,0,0-1-1,2.8,2.8,0,0,0-1.38-.35h-2.54a.38.38,0,0,1-.3-.12.41.41,0,0,1-.12-.3V266a.41.41,0,0,1,.12-.3.38.38,0,0,1,.3-.12h5.09a.43.43,0,0,1,.31.12.423.423,0,0,1,0,.61.4.4,0,0,1-.31.13h-4.67v3h2.12a3.56,3.56,0,0,1,1.81.46,3.3,3.3,0,0,1,1.27,1.27,3.72,3.72,0,0,1,0,3.62,3.3,3.3,0,0,1-1.27,1.27,3.77,3.77,0,0,1-3.61,0Z"/><path d="M402.8,275.79a.448.448,0,0,1,0,.61.42.42,0,0,1-.32.12h-.32a2.61,2.61,0,0,1-1.37-.35,2.48,2.48,0,0,1-.94-1,2.82,2.82,0,0,1-.33-1.38V269.9h-1.1a.37.37,0,0,1-.27-.11.35.35,0,0,1-.1-.27.36.36,0,0,1,.1-.27.37.37,0,0,1,.27-.11h1.1v-2.28a.45.45,0,0,1,.11-.31.43.43,0,0,1,.74.31v2.28h1.85a.38.38,0,0,1,.38.38.35.35,0,0,1-.11.27.37.37,0,0,1-.27.11h-1.85v3.93a1.83,1.83,0,0,0,.5,1.33,1.76,1.76,0,0,0,1.31.51h.3a.42.42,0,0,1,.32.12Z"/><path d="M409.86,269.19a3.08,3.08,0,0,1,1.26,1.22,3.91,3.91,0,0,1,.45,1.93v3.76a.42.42,0,1,1-.84,0v-3.76a2.63,2.63,0,0,0-.75-2,2.73,2.73,0,0,0-2-.7,3.11,3.11,0,0,0-1.35.28,2.3,2.3,0,0,0-1,.8,1.91,1.91,0,0,0-.35,1.13v4.28a.44.44,0,0,1-.11.3.425.425,0,0,1-.73-.3V266a.4.4,0,0,1,.12-.31.44.44,0,0,1,.3-.11.45.45,0,0,1,.31.11.43.43,0,0,1,.11.31v4a3.22,3.22,0,0,1,1.16-.91,3.43,3.43,0,0,1,1.5-.33A3.92,3.92,0,0,1,409.86,269.19Z"/><path d="M418.75,276.22a3.23,3.23,0,0,1-1.17-1.18,3.06,3.06,0,0,1-.44-1.6.42.42,0,1,1,.84,0,2.25,2.25,0,0,0,.33,1.19,2.37,2.37,0,0,0,.88.87,2.33,2.33,0,0,0,1.19.32,2.39,2.39,0,0,0,1.19-.32,2.34,2.34,0,0,0,.86-.88,2.24,2.24,0,0,0,.33-1.18V266a.41.41,0,0,1,.12-.3.42.42,0,0,1,.3-.12.41.41,0,0,1,.42.42v7.43a3.12,3.12,0,0,1-.44,1.61,3.23,3.23,0,0,1-1.17,1.18,3.16,3.16,0,0,1-1.61.43,3.09,3.09,0,0,1-1.63-.43Z"/><path d="M431.6,269.29a3.67,3.67,0,0,1,1.4,1.41,4,4,0,0,1,.51,2v3.4a.44.44,0,0,1-.11.3.425.425,0,0,1-.73-.3V275a3.34,3.34,0,0,1-1.27,1.17,3.79,3.79,0,0,1-1.79.43,4,4,0,0,1-2-.51,3.79,3.79,0,0,1-1.4-1.41,4.16,4.16,0,0,1,0-4,3.72,3.72,0,0,1,1.4-1.41,4,4,0,0,1,2-.51,3.92,3.92,0,0,1,1.99.53Zm-.42,6.13a2.889,2.889,0,0,0,1.1-1.12,3.4,3.4,0,0,0,0-3.2,2.89,2.89,0,0,0-1.1-1.12,3.09,3.09,0,0,0-4.24,1.12,3.4,3.4,0,0,0,0,3.2,3,3,0,0,0,1.11,1.12,3.26,3.26,0,0,0,3.13,0Z"/><path d="M440.81,269.19a3,3,0,0,1,1.26,1.22,3.91,3.91,0,0,1,.45,1.93v3.76a.41.41,0,0,1-.12.3.39.39,0,0,1-.3.12.41.41,0,0,1-.42-.42v-3.76a2.63,2.63,0,0,0-.75-2,2.71,2.71,0,0,0-1.95-.7,3.17,3.17,0,0,0-1.35.28,2.3,2.3,0,0,0-1,.8,2,2,0,0,0-.35,1.13v4.28a.44.44,0,0,1-.11.3.425.425,0,0,1-.73-.3v-6.82a.38.38,0,0,1,.12-.3.415.415,0,0,1,.72.3V270a3.311,3.311,0,0,1,1.16-.91,3.43,3.43,0,0,1,1.5-.33A3.92,3.92,0,0,1,440.81,269.19Z"/><path d="M451.55,269a.38.38,0,0,1,.12.3v6.82a.41.41,0,0,1-.12.3.38.38,0,0,1-.3.12.41.41,0,0,1-.31-.12.44.44,0,0,1-.11-.3v-.73a3.28,3.28,0,0,1-1.17.92,3.36,3.36,0,0,1-1.49.33,3.89,3.89,0,0,1-1.83-.42,3,3,0,0,1-1.26-1.22,3.909,3.909,0,0,1-.46-1.93V269.3a.41.41,0,0,1,.42-.42.39.39,0,0,1,.3.12.41.41,0,0,1,.12.3v3.77a2.64,2.64,0,0,0,.75,2,2.74,2.74,0,0,0,2,.7,3.17,3.17,0,0,0,1.35-.29,2.35,2.35,0,0,0,1-.8,2,2,0,0,0,.35-1.12v-4.29a.4.4,0,0,1,.42-.42.38.38,0,0,1,.22.15Z"/><path d="M459.53,269.29a3.67,3.67,0,0,1,1.41,1.41,4,4,0,0,1,.51,2v3.4a.44.44,0,0,1-.11.3.425.425,0,0,1-.73-.3V275a3.34,3.34,0,0,1-1.27,1.17,3.8,3.8,0,0,1-1.8.43,4,4,0,0,1-2-.51,3.79,3.79,0,0,1-1.4-1.41,4.09,4.09,0,0,1,0-4,3.721,3.721,0,0,1,1.4-1.41,4,4,0,0,1,2-.51,3.93,3.93,0,0,1,1.99.53Zm-.42,6.13a2.89,2.89,0,0,0,1.1-1.12,3.4,3.4,0,0,0,0-3.2,2.889,2.889,0,0,0-1.1-1.12,3.09,3.09,0,0,0-4.24,1.12,3.33,3.33,0,0,0,0,3.2,3,3,0,0,0,1.11,1.12,3.26,3.26,0,0,0,3.13,0Z"/><path d="M467.72,269.24a.31.31,0,0,1,0,.11.36.36,0,0,1-.13.22.46.46,0,0,1-.25.06h-.67a2.68,2.68,0,0,0-1.25.29,2.19,2.19,0,0,0-1.16,2v4.25a.44.44,0,0,1-.11.3.425.425,0,0,1-.73-.3v-6.82a.38.38,0,0,1,.12-.3.415.415,0,0,1,.72.3v.87a3,3,0,0,1,1-1,2.7,2.7,0,0,1,1.37-.36C467.37,268.78,467.72,268.93,467.72,269.24Z"/><path d="M475.76,269.2a.651.651,0,0,1-.06.2L471,279.59c-.09.17-.19.25-.32.25a.51.51,0,0,1-.2,0c-.18-.08-.27-.18-.27-.32a.582.582,0,0,1,.06-.2l1.4-3-.05-.1-3.07-6.72a.489.489,0,0,1-.06-.23.35.35,0,0,1,.24-.32.46.46,0,0,1,.23-.05.37.37,0,0,1,.32.23l2.84,6.22,2.85-6.2a.38.38,0,0,1,.33-.25.43.43,0,0,1,.19,0C475.67,269,475.76,269.06,475.76,269.2Z"/><path d="M480.9,276.4a.38.38,0,0,1-.13-.3.45.45,0,0,1,.13-.31l4.42-5.26a2.671,2.671,0,0,0,.5-.79,2.411,2.411,0,0,0,.2-.9,2.54,2.54,0,0,0-.3-1.23,2.22,2.22,0,0,0-.82-.87,2.206,2.206,0,0,0-3.11.87,2.44,2.44,0,0,0-.31,1.23.4.4,0,0,1-.11.3.448.448,0,0,1-.61,0,.38.38,0,0,1-.13-.3,3.41,3.41,0,0,1,.41-1.67,3.1,3.1,0,0,1,5.43,0,3.41,3.41,0,0,1,.41,1.67,2.8,2.8,0,0,1-.26,1.19,5.412,5.412,0,0,1-.74,1.12L482,275.67h4.7a.41.41,0,0,1,.31.12.44.44,0,0,1,.11.31.4.4,0,0,1-.11.3.41.41,0,0,1-.31.12h-5.52a.41.41,0,0,1-.28-.12Z"/><path d="M489.85,275.86a4.06,4.06,0,0,1-1.12-1.89,11.2,11.2,0,0,1,0-5.86,4.2,4.2,0,0,1,1.12-1.9,2.68,2.68,0,0,1,3.52,0,4.1,4.1,0,0,1,1.11,1.9,9.79,9.79,0,0,1,.39,2.92,8,8,0,0,1-.86,4,2.64,2.64,0,0,1-2.4,1.45,2.55,2.55,0,0,1-1.76-.62Zm3.56-1.44A8,8,0,0,0,494,271a7.731,7.731,0,0,0-.61-3.36,1.9,1.9,0,0,0-3.59,0,7.73,7.73,0,0,0-.61,3.36,7.879,7.879,0,0,0,.61,3.39,1.92,1.92,0,0,0,3.6,0Z"/><path d="M498.17,276.4a.41.41,0,0,1-.12-.3v-9.5l-1.67.54a.45.45,0,0,1-.18,0,.41.41,0,0,1-.3-.12.38.38,0,0,1-.12-.3.39.39,0,0,1,.26-.4l2.15-.72.29-.07a.41.41,0,0,1,.42.42V276.1a.41.41,0,0,1-.42.42.45.45,0,0,1-.31-.12Z"/><path d="M506.89,270.5l-.09.17-3.43,5.61a.47.47,0,0,1-.4.24.43.43,0,0,1-.43-.42.56.56,0,0,1,.07-.24L505,272a3,3,0,0,1-1,.14,3.3,3.3,0,0,1-1.66-.42,3.08,3.08,0,0,1-1.17-1.18,3.27,3.27,0,0,1-.43-1.67,3.22,3.22,0,0,1,.43-1.67,3.13,3.13,0,0,1,1.17-1.17,3.31,3.31,0,0,1,1.66-.43,3.39,3.39,0,0,1,1.68.43,3.21,3.21,0,0,1,1.6,2.84,3.27,3.27,0,0,1-.39,1.58h0Zm-4.95-.42a2.3,2.3,0,0,0,.87.88,2.51,2.51,0,0,0,2.49,0,2.26,2.26,0,0,0,.88-.88,2.49,2.49,0,0,0,.32-1.24,2.46,2.46,0,0,0-.32-1.24,2.4,2.4,0,0,0-.88-.88,2.58,2.58,0,0,0-2.49,0,2.45,2.45,0,0,0-.87.88,2.36,2.36,0,0,0-.32,1.24,2.39,2.39,0,0,0,.32,1.24Z"/><line class="g" x2="4" transform="translate(650.67 271.77)"/><path class="h" d="M713.47,235.29h7.76a.24.24,0,0,1,.24.24v7.41a1.35,1.35,0,0,1-1.35,1.35h-5.29a1.35,1.35,0,0,1-1.35-1.35v-7.65Z"/><path class="i" d="M712,235h10.93"/><path class="j" d="M715.44,242.35v-5.36"/><path class="j" d="M717.5,242.35v-5.36"/><path class="j" d="M719.55,242.35v-5.36"/><path class="k" d="M716.34,232.79h2.25a1.37,1.37,0,0,1,1.37,1.37v.63h-5v-.63a1.37,1.37,0,0,1,1.38-1.37Z"/></g></svg>