<svg xmlns="http://www.w3.org/2000/svg" viewBox="0 0 60 60"><defs><style>.a{fill:#6c68c6;}.b{fill:#fff;}</style></defs><g transform="translate(30 30)"><g transform="translate(-30 -30)"><circle class="a" cx="30" cy="30" r="30"/><path class="b" d="M67.583,66.917l-7.417-3.333H43.583a4,4,0,0,1-4-4v-21a4,4,0,0,1,4-4h20a4,4,0,0,1,4,4Zm-4.178-10.7a1,1,0,1,0-1.205-1.6,14.532,14.532,0,0,1-8.617,2.631,14.54,14.54,0,0,1-8.617-2.631,1,1,0,1,0-1.206,1.6,16.337,16.337,0,0,0,9.822,3.036A16.334,16.334,0,0,0,63.405,56.215Z" transform="translate(-23.75 -20.75)"/></g></g></svg>